SplineFontDB: 3.0
FontName: Essays1743-BoldItalic
FullName: Essays 1743 Bold Italic
FamilyName: Essays1743
Weight: Bold
Copyright: Created by John Stracke with PfaEdit 1.0 (http://pfaedit.sf.net)
FontLog: "2010-03-17: Adding 6 arrows.  Want to add more.+AAoACgAA-2010-03-07: Adding a bunch of characters to round out some scripts (pointed out by Fedora's QA bot, which runs fc-query).+AAoACgAA-2010-03-02: A whole bunch of cleanups (prodded by +AAoA-Fedora's font sanity checker, and a couple of people whose OSes were rendering capital O as a solid circle).  Jumping version # to 1.1.+AAoACgAA-2006-01-09: Moved the dot of uni1E46 to the center (thanks to Nathan Hill).  Calling this 1.001.+AAoACgAA-2004-10-31: working on bold italic version.+AAoACgAA-2004-10-09: Added bunch of other Latin-derived chars.  Calling this 0.2; don't expect much change before 1.0.+AAoACgAA-2004-10-04: Finished Latin-1 and Latin Extended A (plus miscellaneous other chars).+AAoACgAA-2004-9-21: Finished the basic alphabet (Roman alphabet +-------- +AH8A +-------- +AMMAnwAA).+AAoACgAA-2004-6-7: Began." 
Version: 001.203
ItalicAngle: -10
UnderlinePosition: -100
UnderlineWidth: 50
Ascent: 759
Descent: 265
LayerCount: 2
Layer: 0 0 "Back"  1
Layer: 1 0 "Fore"  0
NeedsXUIDChange: 1
XUID: [1021 117 711671440 16274522]
FSType: 0
OS2Version: 0
OS2_WeightWidthSlopeOnly: 0
OS2_UseTypoMetrics: 0
CreationTime: 1168432697
ModificationTime: 1269088379
PfmFamily: 17
TTFWeight: 700
TTFWidth: 5
LineGap: 90
VLineGap: 0
Panose: 2 0 6 2 0 0 0 0 0 0
OS2TypoAscent: 0
OS2TypoAOffset: 1
OS2TypoDescent: 0
OS2TypoDOffset: 1
OS2TypoLinegap: 0
OS2WinAscent: 0
OS2WinAOffset: 1
OS2WinDescent: 0
OS2WinDOffset: 1
HheadAscent: 0
HheadAOffset: 1
HheadDescent: 0
HheadDOffset: 1
OS2Vendor: 'PfEd'
Lookup: 4 0 1 "'liga' Standard Ligatures in Latin lookup 0"  {"'liga' Standard Ligatures in Latin lookup 0 subtable"  } ['liga' ('latn' <'dflt' > ) ]

StartChar: exclam
Encoding: 33 33 1
Width: 474
Flags: W
HStem: 14 159<71.6999 151.014> 739 20G<345 371>
LayerCount: 2
Fore
SplineSet
211 243 m 0
 200 234 175 215 149 215 c 0
 139 215 129 218 119 226 c 1
 111 233 109 239 111 249 c 0
 132 350 143 354 163 414 c 0
 201 529 213 591 265 715 c 1
 267 718 269 721 273 724 c 0
 300 746 331 759 359 759 c 0
 383 759 406 750 423 729 c 1
 429 722 430 716 428 707 c 0
 385 584 367 543 318 440 c 0
 283 365 285 375 218 250 c 1
 216 247 214 245 211 243 c 0
38 29 m 0
 24 39 19 52 19 65 c 0
 19 78 24 91 28 100 c 0
 42 128 64 151 97 164 c 0
 110 168 127 173 144 173 c 0
 166 173 187 166 198 142 c 0
 202 134 204 125 204 117 c 0
 204 85 180 56 152 37 c 0
 131 23 108 14 85 14 c 0
 68 14 52 19 38 29 c 0
EndSplineSet
Validated: 1
EndChar

StartChar: numbersign
Encoding: 35 35 3
Width: 474
Flags: W
HStem: 333 191<290.969 365.563> 455 20G<397 406.5>
LayerCount: 2
Fore
SplineSet
105 106 m 1x80
 95 112 81 122 70 137 c 0
 62 148 59 158 59 168 c 0
 59 196 84 221 109 236 c 0
 126 247 138 253 145 256 c 1
 161 305 l 1
 146 317 151 314 140 329 c 0
 132 340 129 350 129 360 c 0
 129 388 154 413 179 428 c 0
 201 441 209 442 222 447 c 1
 226 454 226 467 276 506 c 0
 292 518 308 524 323 524 c 0x80
 345 524 364 511 374 487 c 0
 381 468 l 1
 387 474 394 475 400 475 c 0x40
 413 475 426 469 427 466 c 1
 430 470 441 485 468 506 c 0
 484 518 500 524 515 524 c 0
 537 524 556 511 566 487 c 0
 568 481 570 473 571 466 c 1
 580 463 595 453 611 431 c 0
 621 417 626 403 626 388 c 0
 626 365 614 342 589 324 c 0
 530 295 l 1
 530 279 527 266 525 257 c 1
 530 253 536 247 541 239 c 0
 551 225 556 211 556 196 c 0
 556 173 544 150 519 132 c 0
 481 104 464 104 460 103 c 1
 457 95 453 85 423 62 c 0
 404 47 379 34 355 34 c 0
 338 34 323 41 311 59 c 0
 297 91 l 1
 288 88 280 87 272 87 c 0
 267 87 262 87 258 89 c 1
 255 84 244 72 231 62 c 0
 212 47 187 34 163 34 c 0
 146 34 131 41 119 59 c 0
 106 79 105 90 105 98 c 0
 105 101 105 103 105 106 c 1x80
404 300 m 0
 404 326 404 326 379 333 c 1
 357 332 335 332 314 330 c 0
 301 329 296 324 291 312 c 0
 290 308 l 2
 284 284 277 266 276 247 c 0
 276 243 276 240 276 238 c 0
 276 222 281 221 302 216 c 0
 310 217 l 0
 331 219 348 222 364 224 c 0
 375 226 380 231 385 241 c 0
 404 300 l 0
EndSplineSet
Validated: 1
EndChar

StartChar: dollar
Encoding: 36 36 4
Width: 474
VWidth: 1080
Flags: W
HStem: 499 202<317.873 381.5>
VStem: 59 107<13.7015 68.3665> 120 150<384 470.09> 258 149<227.684 293.995> 313 115<598.372 692.657>
LayerCount: 2
Fore
SplineSet
319 690 m 1xa8
 319 693 342 701 367 701 c 0
 396 701 428 691 428 654 c 0
 428 653 428 652 428 651 c 1
 428 649 428 647 427 645 c 0
 414 600 412 614 406 590 c 0
 405 587 405 585 405 582 c 0
 405 553 462 568 464 522 c 0
 464 521 464 519 464 518 c 0
 464 485 452 465 418 425 c 0
 404 408 393 402 385 402 c 0
 359 402 360 472 352 480 c 0
 337 494 336 499 330 499 c 0
 328 499 325 498 321 497 c 0
 293 489 273 469 270 454 c 1xa8
 270 445 298 464 340 418 c 0
 364 390 407 366 407 302 c 0
 407 301 407 299 407 298 c 0
 405 245 383 199 337 156 c 0
 294 116 257 116 216 97 c 0
 190 84 172 42 166 15 c 1
 163 13 142 7 119 7 c 0
 98 7 76 12 59 27 c 1
 59 32 72 57 72 60 c 0
 72 63 80 84 89 97 c 1
 72 106 49 124 42 147 c 0
 39 159 37 170 37 181 c 0
 37 212 50 243 82 280 c 0
 99 299 111 306 121 306 c 0
 158 306 154 197 183 197 c 1
 211 200 241 225 253 255 c 0
 255 261 258 270 258 278 c 0xd0
 258 287 255 294 245 294 c 0
 242 294 239 293 235 292 c 0
 231 291 225 290 216 290 c 0
 186 290 133 302 123 358 c 0
 121 370 120 379 120 389 c 0
 120 412 126 431 139 462 c 0
 163 521 206 597 262 597 c 0
 268 597 274 596 281 594 c 0
 282 594 282 594 283 594 c 0
 301 594 313 660 313 671 c 0
 313 672 313 673 313 673 c 1
 317 678 323 685 319 690 c 1xa8
EndSplineSet
Validated: 1
EndChar

StartChar: ampersand
Encoding: 38 38 6
Width: 859
Flags: W
HStem: 0 158<315.68 562.5> 270 134<532.816 604.64> 386 165<266.051 343.994> 435 278<795.094 878.138> 438 86<757.393 795> 447 113<534.119 645.385> 456 20G<156 165.5> 606 143<274.045 376.754>
VStem: 69 143<240.631 370.447> 419 242<320.999 398.438> 677 108<252.219 414.412>
LayerCount: 2
Fore
SplineSet
401 617 m 0x83e0
 385 602 369 598 355 598 c 0
 334 598 316 606 306 606 c 0
 304 606 302 606 301 605 c 0
 276 589 264 576 264 564 c 0
 264 561 265 559 266 556 c 0
 267 552 273 551 281 551 c 0
 289 551 299 552 310 552 c 0
 336 552 367 547 382 515 c 0
 387 504 389 494 389 485 c 0
 389 453 365 427 344 408 c 0
 324 390 303 386 285 386 c 0
 268 386 255 389 247 389 c 0
 243 389 240 388 239 386 c 0xa1e0
 221 342 212 317 212 297 c 0
 212 273 224 256 244 225 c 0
 269 188 301 184 359 170 c 0
 394 162 420 158 446 158 c 0
 470 158 494 161 524 169 c 0
 583 185 615 195 645 237 c 0
 667 267 677 294 677 324 c 0
 677 341 674 359 668 380 c 0
 659 414 648 431 621 440 c 0
 607 445 593 447 582 447 c 0
 561 447 544 440 533 424 c 0
 529 418 530 410 537 404 c 0
 537 404 538 404 539 404 c 0
 547 404 577 423 606 423 c 0
 622 423 638 417 650 399 c 0
 658 387 661 376 661 365 c 0
 661 332 631 303 606 288 c 0
 585 276 561 270 538 270 c 0
 509 270 481 279 458 301 c 0
 430 328 419 360 419 392 c 0
 419 423 429 454 445 482 c 0
 474 534 524 543 569 554 c 0
 584 558 600 560 615 560 c 0xc4e0
 686 560 753 524 781 524 c 0x88e0
 790 524 795 527 795 537 c 0
 795 538 795 538 795 539 c 0
 794 547 733 536 722 586 c 0
 720 595 719 604 719 612 c 0
 719 653 740 692 785 706 c 0
 798 711 813 713 828 713 c 0
 880 713 934 684 942 628 c 0
 943 620 944 611 944 602 c 0
 944 556 928 499 880 458 c 0
 859 439 837 435 818 435 c 0x90e0
 801 435 785 438 774 438 c 0x88e0
 767 438 761 437 758 432 c 0
 757 431 757 430 757 429 c 0
 757 421 773 409 773 369 c 0
 774 331 785 295 785 257 c 0
 785 223 776 187 742 146 c 0
 701 96 671 39 589 23 c 0
 528 12 482 0 429 0 c 0
 394 0 356 6 309 17 c 0
 239 33 182 50 135 110 c 0
 96 162 69 215 69 274 c 0
 69 299 74 324 84 351 c 0
 125 461 149 476 163 476 c 0
 168 476 172 474 175 474 c 0
 177 474 178 474 179 476 c 1
 178 483 136 505 136 557 c 0
 137 624 158 677 225 714 c 0
 255 731 295 749 334 749 c 0
 361 749 387 741 409 718 c 0
 422 704 428 689 428 674 c 0
 428 652 416 631 401 617 c 0x83e0
EndSplineSet
Validated: 1
EndChar

StartChar: quotesingle
Encoding: 39 39 7
Width: 285
Flags: W
VStem: 76 315
LayerCount: 2
Fore
SplineSet
145 459 m 1
 132 468 113 505 113 543 c 0
 113 587 130 619 155 657 c 0
 178 691 200 733 252 748 c 0
 265 752 277 753 289 753 c 0
 334 753 367 728 383 688 c 0
 389 674 391 660 391 646 c 0
 391 604 368 565 345 526 c 0
 322 484 293 471 271 443 c 0
 231 394 248 228 106 224 c 1
 96 224 90 227 84 235 c 0
 78 244 76 255 76 267 c 0
 76 323 129 407 145 459 c 1
EndSplineSet
Validated: 1
EndChar

StartChar: parenleft
Encoding: 40 40 8
Width: 286
Flags: W
VStem: 0 146<-201.708 47.0742> 9 168<-249.368 -118.734>
LayerCount: 2
Fore
SplineSet
9 -237 m 0x40
 4 -191 0 -154 0 -117 c 0
 0 -76 5 -34 16 20 c 0
 46 166 71 260 159 406 c 0
 232 526 294 603 409 692 c 0
 419 699 428 702 436 702 c 0
 458 702 474 680 474 657 c 0
 474 647 471 637 464 629 c 0
 353 496 322 461 260 345 c 0
 197 226 168 157 151 42 c 0
 148 19 146 2 146 -12 c 0x80
 146 -61 162 -79 177 -204 c 0
 177 -206 177 -207 177 -209 c 0
 177 -250 119 -278 71 -278 c 0
 39 -278 12 -266 9 -237 c 0x40
EndSplineSet
Validated: 1
EndChar

StartChar: asterisk
Encoding: 42 42 10
Width: 552
Flags: W
HStem: 400 130<114.829 219.109> 418 109<164.799 247.578> 432 128<534.615 619.781>
VStem: 305 121<625.17 720.062> 307 146<238.96 352.872> 317 105<612 680.919> 446 137<299.92 355.638>
LayerCount: 2
Fore
SplineSet
534 549 m 1x84
 547 552 568 560 588 560 c 0
 611 560 632 548 632 498 c 0
 632 495 632 493 632 490 c 0
 630 442 592 432 557 432 c 0
 534 432 513 436 503 437 c 1
 517 424 583 389 583 343 c 0
 583 327 574 309 551 291 c 0
 529 274 512 267 499 267 c 0
 451 267 451 352 446 356 c 1x26
 446 351 453 326 453 299 c 0
 453 263 440 223 380 223 c 0
 377 223 375 223 372 223 c 0
 320 226 307 249 307 278 c 0x28
 307 302 316 330 317 354 c 1
 292 332 292 252 246 252 c 0
 230 252 209 261 180 286 c 0
 158 305 149 322 149 336 c 0
 149 379 230 402 265 418 c 1
 263 418 261 418 258 418 c 0x44
 225 418 186 400 155 400 c 0
 128 400 108 414 104 467 c 0
 104 470 104 474 104 477 c 0
 104 522 130 530 164 530 c 0x84
 181 530 201 527 220 527 c 0x44
 230 527 239 528 248 530 c 1
 209 547 156 564 156 602 c 0
 156 615 162 630 177 648 c 0
 199 675 217 685 232 685 c 0
 266 685 287 634 317 612 c 1
 317 613 317 615 317 616 c 0x84
 317 632 305 659 305 682 c 0
 305 707 319 729 376 729 c 0
 377 729 377 729 378 729 c 0
 417 729 426 714 426 688 c 0x90
 426 671 422 649 422 624 c 0
 422 620 422 615 422 611 c 1
 450 634 459 697 501 697 c 0
 516 697 536 688 563 666 c 0
 589 645 598 628 598 614 c 0
 598 582 551 566 534 549 c 1x84
EndSplineSet
Validated: 1
EndChar

StartChar: plus
Encoding: 43 43 11
Width: 360
Flags: W
HStem: 89 344<163.354 265.294> 193 138<67.0051 137.906> 200 141<295.094 368.373>
VStem: 142 153<110.203 194 341.001 401.992>
LayerCount: 2
Fore
SplineSet
295 343 m 1x90
 297 342 300 341 302 341 c 0
 309 341 316 343 326 343 c 0
 339 343 354 339 370 317 c 1
 382 301 390 281 390 260 c 0
 390 245 386 230 376 216 c 0
 366 201 348 198 330 198 c 0
 317 198 305 200 296 200 c 0x30
 293 200 290 200 288 199 c 1
 288 192 292 175 292 157 c 0
 292 139 288 120 273 109 c 0
 257 97 237 89 216 89 c 0x90
 201 89 186 93 172 103 c 0
 138 126 140 179 138 193 c 1
 136 194 133 194 129 194 c 0
 124 194 117 193 109 193 c 0
 93 193 73 196 59 215 c 0
 50 228 46 242 46 256 c 0
 46 276 54 295 67 309 c 0
 84 329 129 327 142 331 c 1x50
 142 332 142 334 142 336 c 0
 142 342 142 349 142 357 c 0
 142 377 145 401 172 420 c 0
 185 429 199 433 212 433 c 0
 232 433 251 425 266 412 c 0
 266 412 295 373 295 343 c 1x90
EndSplineSet
Validated: 1
EndChar

StartChar: comma
Encoding: 44 44 12
Width: 283
Flags: W
HStem: 6 196<63.4568 129.134>
VStem: 26 262<36.8659 163.884>
LayerCount: 2
Fore
SplineSet
-5 -102 m 4
 41 -36 73 -34 106 -8 c 4
 123 5 128 5 130 11 c 5
 129 11 117 6 103 6 c 4
 88 6 68 11 53 30 c 4
 35 51 26 75 26 100 c 4
 26 115 30 131 37 146 c 4
 54 184 88 195 116 202 c 4
 135 207 159 215 183 215 c 4
 205 215 226 209 246 190 c 4
 278 158 288 123 288 86 c 4
 288 47 276 8 264 -28 c 4
 245 -80 210 -102 175 -129 c 4
 159 -141 142 -153 116 -158 c 4
 116 -158 92 -161 65 -161 c 4
 28 -161 -15 -155 -15 -129 c 4
 -15 -121 -12 -113 -5 -102 c 4
EndSplineSet
Validated: 1
EndChar

StartChar: hyphen
Encoding: 45 45 13
Width: 364
Flags: W
HStem: 146 179<89.3132 239.013> 150 186<172.125 352.649>
VStem: 46 344<187.76 292.433>
LayerCount: 2
Fore
SplineSet
60 197 m 4xa0
 50 210 46 224 46 238 c 4
 46 258 54 276 67 291 c 4
 95 322 127 325 156 325 c 4
 163 325 169 325 175 325 c 4xa0
 184 325 192 325 199 326 c 4
 220 330 240 336 266 336 c 4
 272 336 279 336 287 335 c 4
 312 332 346 331 370 298 c 4
 382 282 390 262 390 241 c 4
 390 226 386 211 377 197 c 4
 341 144 283 152 240 150 c 4x60
 219 149 195 146 171 146 c 4
 131 146 90 155 60 197 c 4xa0
EndSplineSet
Validated: 1
EndChar

StartChar: period
Encoding: 46 46 14
Width: 277
VWidth: 1080
Flags: W
HStem: 8 248<91.2845 212.931>
VStem: 42 224<54.0083 195.175>
LayerCount: 2
Fore
SplineSet
105 14 m 0
 79 21 65 42 57 60 c 0
 48 82 42 105 42 127 c 0
 42 148 47 170 58 192 c 0
 76 226 105 256 152 256 c 0
 199 256 229 225 246 192 c 0
 257 170 266 144 266 119 c 0
 266 96 259 74 243 53 c 0
 218 21 184 8 149 8 c 0
 134 8 119 10 105 14 c 0
EndSplineSet
Validated: 1
EndChar

StartChar: slash
Encoding: 47 47 15
Width: 474
VWidth: 1080
Flags: W
HStem: 11 135<54.0662 110.672 112.258 173.677> 627 124<844.145 898.287> 627 98<846.356 914.841>
LayerCount: 2
Fore
SplineSet
157 146 m 5xc0
 339 319 387 364 529 485 c 4
 680 613 636 601 694 656 c 5
 683 664 671 679 670 686 c 4
 669 688 669 691 669 693 c 4
 669 718 689 735 706 743 c 5
 710 745 737 751 741 751 c 4
 765 753 780 754 789 754 c 4
 809 754 808 751 821 751 c 4xc0
 844 751 857 744 910 725 c 5xa0
 916 723 920 720 923 715 c 4
 928 707 930 698 930 689 c 4
 930 668 918 648 900 636 c 4
 891 630 881 627 872 627 c 4
 856 627 847 631 844 632 c 5
 703 512 825 613 594 385 c 4
 476 269 454 255 344 133 c 5
 344 132 343 130 342 128 c 5
 354 127 369 120 373 102 c 4
 374 99 374 96 374 93 c 4
 374 52 326 37 315 25 c 5
 309 20 304 17 296 17 c 4
 229 17 201 11 158 11 c 4
 136 11 112 13 78 17 c 5
 70 19 65 22 61 28 c 4
 58 32 23 47 23 83 c 4
 23 87 24 92 25 96 c 4
 33 131 67 144 89 152 c 4
 97 155 104 156 111 156 c 4
 138 156 155 146 157 146 c 5xc0
EndSplineSet
Validated: 1
EndChar

StartChar: zero
Encoding: 48 48 16
Width: 580
Flags: W
HStem: -5 141<199.198 333.832> 414 136<293.927 439.384>
VStem: 38 134<163.012 285.551> 457 177<262.142 395.72>
LayerCount: 2
Fore
SplineSet
312 148 m 0
 366 172 398 196 430 245 c 0
 450 276 457 297 457 322 c 0
 457 332 456 342 454 354 c 0
 450 382 446 392 424 401 c 0
 406 409 389 414 371 414 c 0
 352 414 331 409 304 397 c 0
 259 377 236 352 207 307 c 0
 183 270 172 246 172 220 c 0
 172 213 173 207 174 200 c 0
 181 166 196 154 239 141 c 0
 249 138 258 136 267 136 c 0
 280 136 293 140 312 148 c 0
133 36 m 0
 86 69 41 112 38 191 c 0
 38 194 38 196 38 199 c 0
 38 276 65 343 129 415 c 0
 178 472 225 507 294 531 c 0
 333 544 366 550 397 550 c 0
 432 550 465 543 499 531 c 0
 559 510 612 486 628 414 c 0
 632 396 634 379 634 361 c 0
 634 300 609 242 564 178 c 0
 511 101 454 48 365 16 c 0
 325 2 290 -5 257 -5 c 0
 213 -5 173 8 133 36 c 0
EndSplineSet
Validated: 1
EndChar

StartChar: one
Encoding: 49 49 17
Width: 580
Flags: W
HStem: 0 133<139.372 195.996>
VStem: 265 307<432.774 515.936>
LayerCount: 2
Fore
SplineSet
196 125 m 1
 241 243 272 293 299 402 c 1
 298 412 275 402 268 424 c 0
 266 432 265 440 265 449 c 0
 265 489 289 531 325 552 c 1
 329 554 333 555 337 555 c 0
 368 556 386 556 412 556 c 0
 437 556 471 556 535 555 c 1
 544 555 549 552 554 546 c 0
 567 531 572 515 572 498 c 0
 572 469 557 439 536 415 c 0
 507 380 507 403 506 405 c 1
 464 282 449 245 443 220 c 0
 439 200 430 185 410 128 c 1
 412 124 415 117 419 108 c 0
 422 101 426 83 426 64 c 0
 426 34 416 1 380 0 c 1
 136 0 l 1
 110 0 101 12 101 29 c 0
 101 59 129 102 145 117 c 0
 159 130 171 133 179 133 c 0
 190 133 196 127 196 125 c 1
EndSplineSet
Validated: 1
EndChar

StartChar: two
Encoding: 50 50 18
Width: 580
Flags: W
HStem: 411 135<395.024 515.5>
VStem: 420 183<372.703 458>
LayerCount: 2
Fore
SplineSet
402 145 m 1
 400 150 399 155 399 159 c 0
 399 172 408 182 420 190 c 1
 422 191 424 192 426 193 c 0
 451 202 471 207 490 207 c 0
 510 207 527 201 545 185 c 1
 551 178 554 173 554 167 c 0
 554 163 553 158 550 153 c 0
 486 44 508 82 422 6 c 1
 417 2 412 0 406 0 c 0
 288 -6 255 -8 236 -8 c 0
 212 -8 210 -5 89 -3 c 0
 67 -3 59 8 59 21 c 0
 59 43 78 73 87 82 c 0
 219 216 282 216 384 332 c 0
 410 361 420 384 420 398 c 0
 420 401 419 404 418 406 c 0
 416 409 412 411 403 411 c 0
 394 411 380 409 361 403 c 0
 314 389 312 364 235 313 c 1
 225 310 218 308 213 308 c 0
 205 308 201 314 196 329 c 0
 192 340 191 350 191 359 c 0
 191 391 211 409 227 424 c 0
 295 488 320 504 382 522 c 0
 418 533 460 546 498 546 c 0
 533 546 564 536 586 503 c 0
 598 486 603 467 603 449 c 0
 603 403 572 355 544 311 c 0
 490 227 426 213 372 160 c 1
 363 146 l 1
 363 146 377 145 391 145 c 0
 395 145 399 145 402 145 c 1
EndSplineSet
Validated: 1
EndChar

StartChar: three
Encoding: 51 51 19
Width: 580
Flags: W
HStem: -279 210<54.9886 193.765>
VStem: 6 203<-189 -111>
LayerCount: 2
Fore
SplineSet
474 237 m 1
 484 233 495 226 502 217 c 0
 519 197 525 175 525 153 c 0
 525 134 521 115 517 97 c 0
 502 22 480 -32 425 -102 c 0
 382 -158 344 -200 276 -230 c 0
 226 -252 163 -279 109 -279 c 0
 74 -279 43 -267 21 -236 c 0
 11 -222 6 -206 6 -189 c 0
 6 -148 34 -104 72 -76 c 1
 76 -73 80 -72 85 -71 c 0
 104 -69 115 -69 123 -69 c 0
 140 -69 138 -72 157 -72 c 0
 162 -72 168 -71 176 -71 c 1
 183 -71 189 -73 194 -78 c 0
 205 -88 209 -101 209 -111 c 0
 209 -115 208 -119 207 -122 c 1
 214 -120 222 -117 232 -111 c 0
 285 -78 307 -44 334 11 c 0
 346 36 350 51 350 60 c 0
 350 64 350 68 348 70 c 0
 343 76 336 79 321 79 c 0
 312 79 301 78 287 77 c 1
 261 75 250 48 175 41 c 1
 167 41 162 42 156 48 c 0
 144 59 139 71 139 84 c 0
 139 116 169 150 186 171 c 1
 187 173 189 174 190 176 c 0
 306 267 312 258 411 338 c 0
 421 345 420 355 412 366 c 0
 410 368 408 370 401 370 c 0
 396 370 389 369 379 366 c 0
 338 355 324 302 248 276 c 0
 241 274 235 273 230 273 c 0
 215 273 209 284 209 299 c 0
 209 324 224 359 229 367 c 0
 272 438 325 486 392 518 c 0
 464 552 447 543 488 549 c 0
 496 550 505 551 515 551 c 0
 542 551 572 544 599 516 c 0
 616 499 622 481 622 463 c 0
 622 423 591 381 571 345 c 0
 531 275 498 253 474 237 c 1
EndSplineSet
Validated: 1
EndChar

StartChar: four
Encoding: 52 52 20
Width: 580
Flags: W
HStem: -9 167<407.51 513.838> 506 20G<490.5 503.5>
LayerCount: 2
Fore
SplineSet
271 166 m 0
 271 166 277 183 301 247 c 1
 300 249 300 250 300 251 c 1
 197 147 l 1
 188 136 187 136 200 135 c 1
 206 135 223 137 261 139 c 1
 266 151 270 163 271 166 c 0
407 138 m 1
 418 138 421 158 521 158 c 0
 537 158 556 157 578 156 c 1
 590 154 596 151 599 139 c 0
 601 133 602 126 602 120 c 0
 602 74 549 32 508 10 c 1
 482 -4 463 -9 447 -9 c 0
 417 -9 397 8 361 8 c 0
 359 8 357 8 355 8 c 1
 310 -115 331 -78 285 -186 c 1
 284 -190 282 -193 278 -196 c 0
 255 -214 228 -227 203 -227 c 0
 183 -227 165 -219 150 -201 c 1
 144 -193 143 -187 146 -178 c 0
 198 -23 206 -17 215 15 c 1
 213 15 212 15 210 15 c 0
 184 15 172 0 127 0 c 0
 105 0 75 2 32 14 c 1
 13 19 6 30 6 44 c 0
 6 66 22 92 28 101 c 1
 29 102 30 103 31 104 c 0
 307 385 207 303 462 516 c 1
 464 518 466 520 469 521 c 0
 476 524 486 526 495 526 c 0
 512 526 530 519 538 499 c 1
 541 494 541 489 540 484 c 0
 491 300 479 303 407 138 c 1
EndSplineSet
Validated: 1
EndChar

StartChar: five
Encoding: 53 53 21
Width: 580
Flags: W
HStem: -263 144<88 191.472> 103 102<281.44 402.5> 103 94<281.562 325.95> 314 226<397.72 474.047>
VStem: 333 184<16.4828 110.5>
LayerCount: 2
Fore
SplineSet
119 -119 m 1xd8
 164 -117 204 -121 251 -79 c 0
 305 -31 333 22 333 64 c 0
 333 76 331 88 326 98 c 0
 325 101 320 103 311 103 c 0xd8
 301 103 286 101 265 97 c 0
 222 87 189 29 121 22 c 0
 119 22 116 22 113 22 c 0
 98 22 73 26 71 55 c 1
 71 60 72 65 74 69 c 0
 264 392 226 343 406 531 c 1
 409 535 413 537 417 538 c 0
 423 540 429 540 435 540 c 0
 484 540 487 476 489 474 c 0
 499 463 504 467 514 473 c 0
 532 483 520 532 575 564 c 0
 584 569 594 571 603 571 c 0
 613 571 623 568 629 565 c 1
 664 547 691 522 691 477 c 0
 691 472 691 467 690 461 c 1
 682 396 600 319 598 318 c 1
 594 313 586 310 580 311 c 0
 535 314 511 315 495 315 c 0
 477 315 472 314 461 314 c 0
 451 314 437 315 405 319 c 1
 397 320 392 323 387 330 c 0
 386 332 386 336 386 342 c 0
 386 349 386 358 388 366 c 1
 304 227 365 322 281 193 c 1
 293 195 305 197 308 197 c 0xb8
 338 199 365 205 394 205 c 0
 411 205 429 202 449 196 c 0
 474 187 511 174 516 130 c 0
 517 122 517 114 517 107 c 0
 517 36 477 -25 421 -88 c 0
 346 -173 273 -214 172 -248 c 0
 144 -258 120 -263 97 -263 c 0
 79 -263 61 -260 42 -255 c 0
 2 -243 -44 -229 -54 -174 c 0
 -55 -169 -56 -163 -56 -158 c 0
 -56 -135 -46 -114 -27 -95 c 0
 -4 -72 26 -55 58 -55 c 0
 62 -55 67 -55 72 -56 c 0
 125 -66 114 -119 119 -119 c 1xd8
EndSplineSet
Validated: 1
EndChar

StartChar: six
Encoding: 54 54 22
Width: 580
Flags: W
HStem: -12 122<197.064 331.614> 383 110<353.484 432.265> 607 161<500.813 560.172>
VStem: 27 157<119.966 258.824> 444 164<249.576 370.149>
LayerCount: 2
Fore
SplineSet
429 368 m 0
 416 378 401 383 381 383 c 0
 360 383 335 377 305 363 c 0
 261 344 239 319 216 278 c 0
 195 239 184 209 184 182 c 0
 184 165 188 149 197 132 c 0
 203 119 210 114 242 111 c 0
 251 110 260 110 268 110 c 0
 289 110 306 114 329 130 c 0
 393 173 414 218 433 284 c 0
 440 307 444 324 444 336 c 0
 444 351 439 360 429 368 c 0
353 477 m 1
 366 486 378 493 411 493 c 0
 424 493 440 492 461 489 c 0
 524 482 574 462 594 401 c 0
 603 375 608 348 608 322 c 0
 608 264 584 204 531 140 c 0
 494 95 460 72 411 42 c 0
 375 20 347 8 306 0 c 0
 272 -6 242 -12 212 -12 c 0
 183 -12 155 -6 126 8 c 0
 71 36 27 72 27 142 c 0
 27 148 27 155 28 163 c 0
 40 267 57 345 128 454 c 0
 185 542 239 596 333 657 c 0
 435 723 517 768 629 768 c 0
 661 768 692 768 707 723 c 1
 710 709 709 701 697 694 c 0
 600 634 581 646 521 607 c 0
 446 558 407 538 353 477 c 1
EndSplineSet
Validated: 1
EndChar

StartChar: seven
Encoding: 55 55 23
Width: 580
Flags: W
HStem: 489 21G<185.5 202.5> 573 206<311.487 406.759>
LayerCount: 2
Fore
SplineSet
431 737 m 1
 704 737 l 1
 724 727 735 724 735 717 c 0
 735 713 731 706 723 696 c 0
 431 323 452 389 170 21 c 1
 169 19 167 17 165 16 c 0
 149 4 124 -30 86 -34 c 0
 21 -41 64 -43 -3 -43 c 1
 -23 -34 -33 -32 -33 -24 c 0
 -33 -19 -30 -13 -24 -4 c 0
 154 272 144 206 242 337 c 1
 327 449 374 471 407 560 c 1
 407 560 405 573 375 573 c 1
 320 573 324 556 213 492 c 1
 209 490 205 489 200 489 c 0
 171 489 132 500 132 543 c 0
 132 544 132 544 132 545 c 1
 132 549 133 553 135 556 c 0
 213 693 221 700 312 765 c 1
 313 766 314 767 315 767 c 0
 331 775 348 779 364 779 c 0
 383 779 400 773 414 759 c 0
 423 750 428 743 431 737 c 1
EndSplineSet
Validated: 1
EndChar

StartChar: eight
Encoding: 56 56 24
Width: 580
Flags: W
HStem: 4 130<184.377 296.314> 623 135<355.036 497.5>
VStem: 53 128<140.958 220.87> 172 134<478.276 570.838> 356 180<202.762 284.264> 475 185<539.26 614.43>
LayerCount: 2
Fore
SplineSet
280 147 m 0xe8
 303 157 313 170 330 196 c 0
 348 223 356 239 356 255 c 0
 356 258 355 260 355 263 c 0
 354 274 352 277 332 285 c 0
 317 291 306 294 294 294 c 0
 283 294 271 292 255 285 c 0
 232 276 221 265 205 242 c 0
 188 217 181 202 181 183 c 0
 181 179 181 174 182 170 c 0
 183 154 185 149 198 143 c 0
 211 138 221 134 234 134 c 0
 246 134 261 138 280 147 c 0xe8
414 488 m 0
 429 495 434 503 448 521 c 0
 465 545 471 555 474 574 c 0
 474 579 475 583 475 586 c 0
 475 597 472 600 466 605 c 0
 452 616 441 623 423 623 c 0
 414 623 404 621 391 618 c 0
 365 611 349 599 329 574 c 0
 311 552 306 539 306 520 c 0
 306 518 306 516 306 514 c 0xd4
 306 491 308 488 320 482 c 0
 332 476 344 473 357 473 c 0
 373 473 390 478 414 488 c 0
453 386 m 1
 462 373 524 369 534 307 c 0
 535 299 536 292 536 284 c 0
 536 230 505 184 471 133 c 0
 446 95 423 61 373 37 c 0
 323 14 279 4 238 4 c 0
 199 4 163 13 127 27 c 0
 84 44 57 72 53 122 c 0
 53 126 53 130 53 134 c 0xe8
 53 193 82 240 123 295 c 0
 166 351 208 372 222 375 c 1
 209 381 174 406 172 472 c 0
 172 475 172 478 172 481 c 0
 172 552 196 616 259 681 c 0
 300 723 342 736 390 746 c 0
 423 754 452 758 479 758 c 0
 516 758 550 750 586 733 c 0
 626 714 653 687 659 638 c 0
 660 632 660 625 660 619 c 0
 660 579 644 544 618 506 c 0
 596 474 573 460 546 441 c 0
 508 415 494 400 453 386 c 1
EndSplineSet
Validated: 1
EndChar

StartChar: nine
Encoding: 57 57 25
Width: 580
Flags: W
HStem: -20 113<227 326.45> 362 138<339.476 464.897>
VStem: 89 146<102.259 235.194> 472 152<211.845 374.5>
LayerCount: 2
Fore
SplineSet
417 147 m 0
 458 201 472 241 472 290 c 0
 472 300 471 310 470 321 c 0
 468 338 466 343 450 350 c 0
 434 357 421 362 405 362 c 0
 391 362 376 358 356 350 c 0
 331 340 319 328 300 303 c 0
 255 241 235 199 235 145 c 0
 235 142 235 138 235 134 c 0
 237 116 240 109 259 101 c 0
 271 96 282 93 294 93 c 0
 311 93 330 98 357 108 c 0
 385 118 400 125 417 147 c 0
327 -6 m 1
 311 -9 295 -11 295 -11 c 0
 275 -15 255 -20 233 -20 c 0
 221 -20 209 -18 195 -14 c 0
 150 0 116 22 101 71 c 0
 93 97 89 122 89 147 c 0
 89 199 106 250 141 309 c 0
 187 386 242 439 327 473 c 0
 372 491 414 500 452 500 c 0
 498 500 539 487 577 459 c 0
 615 431 624 394 624 355 c 0
 624 340 622 325 621 310 c 0
 611 201 572 128 511 23 c 0
 462 -62 423 -116 344 -187 c 0
 269 -253 214 -289 124 -323 c 1
 75 -342 53 -343 -5 -343 c 1
 -11 -343 -15 -342 -19 -339 c 0
 -34 -329 -40 -314 -40 -299 c 0
 -40 -287 -35 -274 -29 -263 c 1
 -28 -260 -26 -258 -24 -257 c 0
 83 -169 113 -179 185 -130 c 1
 266 -64 307 -27 327 -6 c 1
EndSplineSet
Validated: 1
EndChar

StartChar: less
Encoding: 60 60 28
Width: 413
VWidth: 1080
Flags: W
HStem: 344 116<393.005 454.62>
LayerCount: 2
Fore
SplineSet
393 349 m 1
 384 345 261 284 209 252 c 1
 212 240 260 216 331 139 c 1
 335 136 337 132 338 128 c 0
 338 125 342 116 342 104 c 0
 342 90 337 74 319 62 c 1
 316 60 314 59 311 59 c 0
 257 44 238 47 195 44 c 0
 194 44 193 44 192 44 c 0
 134 44 134 119 99 146 c 0
 89 153 46 201 46 243 c 0
 46 261 54 277 75 289 c 0
 96 301 155 347 211 381 c 0
 255 407 281 443 352 455 c 0
 368 458 386 460 402 460 c 0
 430 460 456 454 470 431 c 1
 476 424 479 416 479 409 c 0
 479 386 455 366 444 357 c 1
 433 347 420 344 410 344 c 0
 400 344 393 347 393 349 c 1
EndSplineSet
Validated: 1
EndChar

StartChar: question
Encoding: 63 63 31
Width: 457
Flags: W
HStem: 4 191<92.1089 201.712> 497 20G<325.5 343>
VStem: 42 208<54.6724 147.811> 152 106<206.697 280.998> 270 248<606.399 705.712>
LayerCount: 2
Fore
SplineSet
246 203 m 0xd8
 234 196 222 193 212 193 c 0
 185 193 164 211 154 232 c 1
 152 236 152 235 152 240 c 0
 165 346 178 383 225 485 c 1
 228 492 233 496 240 499 c 0
 290 513 317 517 334 517 c 0
 352 517 360 513 374 513 c 0
 380 513 387 514 397 516 c 1
 404 521 412 532 411 543 c 0
 408 565 383 550 335 588 c 0
 335 588 270 597 270 652 c 1
 270 653 270 654 270 655 c 0
 278 703 299 735 341 753 c 1
 344 754 346 755 349 755 c 0
 359 756 369 756 377 756 c 0
 426 756 453 742 489 715 c 1
 493 711 496 707 498 702 c 0
 508 665 518 636 518 600 c 0
 518 584 516 567 512 548 c 0
 501 499 499 448 431 399 c 0
 369 355 336 374 308 347 c 1
 295 306 271 273 258 214 c 1
 256 207 253 207 246 203 c 0xd8
134 4 m 0
 131 4 128 4 125 4 c 0
 102 4 80 11 65 31 c 0
 53 47 42 68 42 91 c 0
 42 106 47 122 57 138 c 0
 81 175 119 189 155 194 c 0
 160 195 165 195 170 195 c 0
 201 195 230 184 243 152 c 0
 248 141 250 129 250 117 c 0xe8
 250 90 237 63 215 38 c 0
 190 12 160 5 134 4 c 0
EndSplineSet
Validated: 1
EndChar

StartChar: at
Encoding: 64 64 32
Width: 452
VWidth: 1000
Flags: W
HStem: 12 76<164.671 258.333> 251 61<244.024 274.233> 414 55<290.882 325.375> 576 93<329.283 435.623>
VStem: 54 91<102.54 295.301> 451 74<394.11 557.552>
LayerCount: 2
Fore
SplineSet
91 70 m 0
 59 102 54 137 54 177 c 0
 54 192 54 207 55 223 c 8
 57 306 77 353 115 427 c 24
 165 524 189 603 289 646 c 16
 323 661 356 669 389 669 c 0
 427 669 463 657 496 628 c 0
 520 606 525 581 525 551 c 0
 525 535 524 517 523 499 c 8
 516 363 487 284 418 166 c 24
 379 100 357 44 283 22 c 16
 261 16 240 12 220 12 c 0
 172 12 129 31 91 70 c 0
251 312 m 0
 252 311 254 311 255 311 c 0
 261 311 268 319 282 331 c 0
 302 347 310 360 322 385 c 0
 328 398 332 402 330 410 c 0
 329 414 329 414 328 414 c 0
 319 416 314 411 300 400 c 0
 285 388 280 378 268 358 c 0
 259 344 253 339 251 326 c 0
 250 314 250 312 251 312 c 0
371 357 m 1
 363 339 355 333 355 323 c 0
 355 322 355 321 355 320 c 0
 355 318 360 319 361 312 c 0
 361 312 362 312 363 312 c 0
 365 312 371 312 377 312 c 0
 383 312 390 311 394 308 c 1
 420 359 436 403 445 469 c 0
 448 486 451 502 451 516 c 0
 451 530 448 543 436 555 c 0
 421 569 404 576 386 576 c 0
 373 576 360 573 347 565 c 8
 284 528 254 492 219 427 c 24
 175 345 163 291 149 199 c 16
 147 184 145 169 145 156 c 0
 145 134 150 115 169 100 c 0
 179 92 191 88 203 88 c 0
 221 88 241 97 258 110 c 8
 311 151 322 194 362 248 c 16
 366 255 l 1
 357 253 345 251 334 251 c 0
 323 251 313 253 306 257 c 0
 296 264 294 275 293 283 c 1
 286 276 280 266 265 259 c 0
 257 256 249 255 242 255 c 0
 237 255 232 255 227 256 c 0
 216 258 201 260 191 275 c 0
 186 283 185 291 185 298 c 0
 185 308 187 318 189 326 c 0
 197 359 210 377 229 402 c 0
 246 425 262 439 286 455 c 0
 297 463 309 469 326 469 c 0
 327 469 329 469 330 469 c 0
 354 468 359 458 363 453 c 0
 365 451 369 470 385 468 c 0
 400 466 408 453 409 442 c 1
 409 441 409 440 409 439 c 0
 404 401 382 384 371 357 c 1
EndSplineSet
Validated: 1
EndChar

StartChar: uni007F
Encoding: 127 127 33
Width: 1597
VWidth: 1000
Flags: W
HStem: 10 53<242.559 516.222 1060.01 1317.41> 85 109<1112 1155.5> 149 31<1241.56 1288.51> 323 81<432.372 544.181> 341 64<412.85 512.628> 341 54<407.114 476.966> 354 77<245.527 285.009> 493 21G<1415 1424> 517 85<388 574.667> 570 55<1222.87 1363.51> 725 68<397.643 567.85> 755 39<1162.14 1384.29>
VStem: 24 51<199.306 451.885> 315 65<430.423 501.905> 324 81<245.781 340.367> 722 89<293.375 454.167> 953 68<231.327 489.44> 1142 49<194.87 468.79> 1507 69<356.755 627.972>
LayerCount: 2
Fore
SplineSet
1451 530 m 0xc149e0
 1451 511 1431 493 1417 493 c 0
 1413 493 1409 494 1406 498 c 0
 1392 514 1380 515 1372 532 c 16
 1358 560 1355 570 1292 570 c 0
 1255 570 1221 562 1216 532 c 0
 1201 455 1191 372 1191 252 c 0
 1191 170 1193 170 1203 170 c 0
 1213 170 1227 176 1238 176 c 0
 1239 176 1240 176 1241 176 c 0
 1253 176 1261 180 1272 180 c 0
 1278 180 1296 177 1296 172 c 0
 1296 165 1268 155 1256 149 c 8xa149e0
 1237 139 1221 146 1202 135 c 24
 1178 121 1160 85 1151 85 c 0
 1144 85 1146 94 1118 114 c 2
 1083 138 l 10
 1055 158 1035 164 1008 185 c 16
 986 202 953 204 953 231 c 0
 953 231 953 295 956 336 c 24
 960 390 955 405 970 474 c 8
 980 521 1011 537 1045 571 c 24
 1078 604 1111 606 1141 642 c 24
 1161 666 1148 717 1168 717 c 0
 1184 717 1179 697 1184 684 c 24
 1190 667 1182 652 1195 640 c 16
 1210 626 1225 624 1242 624 c 0
 1251 624 1260 625 1269 625 c 0
 1287 625 1308 621 1323 621 c 0
 1362 621 1358 634 1381 642 c 16
 1395 647 1406 658 1417 658 c 0
 1429 658 1436 651 1436 640 c 0
 1436 636 1435 632 1434 628 c 8
 1430 613 1407 620 1407 598 c 0
 1407 569 1451 556 1451 530 c 0xc149e0
447 10 m 0
 431 10 390 9 365 9 c 0
 324 9 287 12 238 24 c 8
 176 39 132 44 88 90 c 24
 45 135 42 178 31 240 c 16
 26 269 24 292 24 315 c 0
 24 413 50 504 120 583 c 24
 174 644 213 671 282 714 c 24
 385 779 461 793 506 793 c 0
 513 793 520 793 527 793 c 0x8129e0
 577 793 614 791 652 765 c 8
 703 730 710 686 736 630 c 24
 759 580 781 474 783 474 c 0
 785 474 864 620 938 676 c 8
 1022 740 1145 784 1216 790 c 16
 1244 792 1268 794 1290 794 c 0x8119e0
 1443 794 1502 713 1506 708 c 24
 1541 667 1554 638 1566 582 c 0
 1573 548 1576 520 1576 494 c 0
 1576 430 1558 379 1540 294 c 8
 1522 213 1483 175 1430 112 c 24
 1373 46 1338 23 1196 16 c 16
 1164 14 1135 13 1109 13 c 0
 924 13 844 98 818 123 c 16
 791 149 774 292 759 292 c 0
 754 292 736 241 728 231 c 2
 634 108 l 18
 601 66 557 10 473 10 c 0
 465 10 457 10 447 10 c 0
924 582 m 24
 888 538 811 462 811 359 c 0
 811 319 826 292 848 254 c 8
 885 190 917 156 980 118 c 24
 1036 84 1077 82 1142 70 c 16
 1169 65 1188 61 1211 61 c 0
 1333 61 1389 107 1424 168 c 24
 1463 235 1507 315 1507 511 c 0
 1507 567 1499 615 1466 672 c 8
 1446 707 1423 722 1386 736 c 16
 1350 749 1319 755 1288 755 c 0x8119e0
 1258 755 1228 750 1192 743 c 8
 1128 731 1094 712 1038 678 c 24
 988 648 961 627 924 582 c 24
222 93 m 24
 276 71 307 63 391 63 c 0
 552 63 622 151 660 201 c 24
 684 233 722 282 722 353 c 0
 722 392 709 421 698 464 c 8
 682 529 679 570 642 626 c 24
 615 668 594 694 548 712 c 16
 524 721 503 725 482 725 c 0x8129e0
 461 725 439 721 414 714 c 8
 328 691 286 654 218 596 c 24
 156 543 75 473 75 353 c 0
 75 218 103 181 126 150 c 24
 152 115 182 109 222 93 c 24
317 568 m 0
 317 604 324 607 376 607 c 0
 393 607 402 606 424 606 c 0
 450 605 465 602 489 602 c 0
 556 602 560 615 592 633 c 8
 598 637 599 624 604 618 c 25
 608 611 616 607 614 598 c 24
 612 590 600 594 596 587 c 16
 594 583 593 580 593 577 c 0
 593 561 627 558 630 542 c 8
 632 532 623 527 616 520 c 24
 613 517 600 501 576 501 c 0
 547 501 554 517 493 517 c 0
 450 517 408 510 387 502 c 0
 382 500 380 496 380 492 c 0
 380 483 388 471 389 459 c 8
 392 404 393 395 412 395 c 0x858de0
 430 395 456 405 478 405 c 0x890de0
 485 405 485 404 496 404 c 0
 514 404 532 408 548 408 c 0
 581 408 583 386 583 383 c 0
 583 372 564 370 554 360 c 8
 542 348 540 323 513 323 c 0x910de0
 506 323 439 341 432 341 c 0
 425 341 405 337 405 303 c 0
 405 297 405 291 405 285 c 0
 405 267 400 248 400 224 c 0
 400 195 409 181 409 176 c 0
 409 166 393 162 384 154 c 0
 372 144 366 132 353 132 c 0
 352 132 352 132 351 132 c 8
 333 132 328 149 314 160 c 24
 294 175 285 196 260 196 c 0
 242 196 208 174 194 159 c 24
 188 151 192 138 182 136 c 24
 173 135 173 147 167 152 c 24
 161 156 149 154 151 161 c 16
 159 193 173 208 199 225 c 24
 255 260 325 225 325 271 c 0
 325 279 324 287 324 296 c 0
 324 297 324 298 324 299 c 0
 324 306 324 313 324 319 c 0x890be0
 324 347 312 361 296 366 c 16
 293 367 290 367 286 367 c 0
 265 367 235 354 230 354 c 0
 226 354 222 356 219 360 c 8
 213 369 225 377 231 387 c 24
 253 422 257 428 286 431 c 24
 293 432 299 426 305 430 c 16
 316 439 319 450 319 461 c 0
 319 475 315 489 315 505 c 0x830de0
 315 520 318 520 318 543 c 0
 318 551 317 560 317 568 c 0
1142 521 m 0
 1142 562 1133 573 1113 573 c 0
 1101 573 1094 564 1083 558 c 8
 1067 550 1047 551 1044 533 c 16
 1027 429 1030 329 1021 261 c 0
 1021 260 1021 259 1021 258 c 0
 1021 235 1050 230 1072 218 c 0
 1086 211 1106 194 1118 194 c 0xc109e0
 1136 194 1131 266 1135 355 c 24
 1138 411 1140 442 1141 498 c 16
 1141 510 1142 513 1142 521 c 0
EndSplineSet
Validated: 1
EndChar

StartChar: cent
Encoding: 162 162 35
Width: 362
VWidth: 1000
Flags: W
VStem: 86 103<285.58 376.163> 213 60<83.2805 137.522> 300 89<597.608 666.862>
LayerCount: 2
Fore
SplineSet
219 165 m 1
 218 165 217 165 216 165 c 0
 141 165 126 204 104 219 c 0
 100 222 98 224 96 228 c 0
 89 250 86 272 86 291 c 0
 86 355 116 400 116 400 c 0
 163 448 189 527 284 554 c 1
 289 578 294 604 300 633 c 0
 303 646 327 683 353 683 c 0
 366 683 378 674 389 649 c 0
 392 641 393 634 391 624 c 2
 378 552 l 1
 397 547 422 539 430 513 c 0
 432 506 433 499 433 492 c 0
 433 463 416 433 377 425 c 0
 368 422 360 423 353 426 c 1
 322 291 l 1
 331 288 340 283 346 272 c 0
 350 265 352 258 352 251 c 0
 352 225 324 203 293 185 c 1
 273 111 l 2
 271 104 253 72 234 72 c 0
 229 72 223 75 218 83 c 0
 215 89 213 94 213 104 c 0
 213 115 215 132 219 165 c 1
192 305 m 0
 192 288 223 280 239 278 c 1
 262 425 l 1
 248 409 216 393 203 361 c 0
 192 335 189 326 189 321 c 0
 189 316 192 314 192 305 c 0
EndSplineSet
Validated: 1
EndChar

StartChar: sterling
Encoding: 163 163 36
Width: 738
VWidth: 1080
Flags: W
HStem: 5 98<191.574 542.36> 22 119<55.843 178.289> 302 182<530.001 591.611> 455 20G<300 319.5> 525 21G<730 747> 603 154<551 624.307>
LayerCount: 2
Fore
SplineSet
279 300 m 1x4c
 262 302 202 311 175 348 c 0
 168 357 165 366 165 376 c 0
 165 404 191 431 214 445 c 0
 257 470 289 475 311 475 c 0x5c
 328 475 339 472 346 472 c 1
 348 479 380 519 384 577 c 0
 384 583 357 598 357 630 c 0
 357 640 360 651 366 664 c 0
 389 711 434 738 481 748 c 0
 511 754 538 757 564 757 c 0
 653 757 721 720 761 645 c 0
 765 638 770 614 770 589 c 0
 770 558 762 525 732 525 c 0
 728 525 724 526 719 527 c 0
 603 555 634 603 603 603 c 0
 600 603 596 603 592 602 c 0
 582 600 569 586 561 573 c 1
 530 487 l 2
 530 484 531 485 539 484 c 0
 543 484 548 484 553 484 c 0
 559 484 l 0
 589 484 629 482 649 444 c 0
 654 433 658 421 658 407 c 0
 658 384 648 360 624 343 c 0
 574 307 526 302 493 302 c 0
 480 302 469 303 462 303 c 1
 439 244 377 213 336 119 c 1
 371 109 398 103 429 103 c 0xac
 466 103 509 112 579 138 c 1
 592 172 581 204 618 268 c 0
 634 296 659 303 684 303 c 0
 707 303 729 297 741 297 c 0
 742 297 743 297 744 297 c 1
 766 294 773 293 773 276 c 0
 773 274 773 272 773 269 c 0
 759 155 750 147 690 23 c 1
 689 16 675 8 666 8 c 0
 664 8 661 9 660 10 c 0
 659 10 626 20 612 22 c 1x4c
 463 14 402 5 314 5 c 0x8c
 253 5 178 10 51 22 c 0
 42 24 36 27 32 35 c 0
 26 46 23 55 23 64 c 0
 23 86 42 104 69 133 c 0
 74 138 80 141 87 141 c 0
 96 141 103 141 109 141 c 0
 135 141 141 139 144 139 c 0
 148 139 148 141 160 149 c 0
 259 210 279 282 279 300 c 1x4c
EndSplineSet
Validated: 1
EndChar

StartChar: currency
Encoding: 164 164 37
Width: 574
VWidth: 1080
Flags: W
HStem: 15 75<263.426 318.091> 420 83<374.825 443.679>
VStem: 26 237<90.3752 166.415> 170 95<190 257.044> 444 193<350.587 419.998>
LayerCount: 2
Fore
SplineSet
265 144 m 0xd8
 264 130 263 118 263 109 c 0xe8
 263 97 265 90 273 90 c 0
 279 90 289 94 303 102 c 0
 340 123 346 149 376 203 c 0
 412 269 430 302 439 372 c 0
 442 394 444 404 444 409 c 0
 444 412 443 413 442 414 c 0
 439 417 435 420 428 420 c 0
 423 420 415 418 405 414 c 0
 361 398 349 371 317 315 c 0
 280 252 268 216 265 144 c 0xd8
355 23 m 1
 344 19 326 15 306 15 c 0
 276 15 240 24 206 55 c 1
 182 37 160 23 130 9 c 0
 127 8 123 9 120 7 c 0
 119 7 107 0 92 0 c 0
 81 0 69 3 57 15 c 0
 36 37 26 65 26 93 c 0xe8
 26 154 69 214 120 214 c 0
 132 214 144 211 157 203 c 0
 162 200 167 196 170 190 c 1xd8
 172 244 188 281 212 328 c 2
 220 343 l 1
 206 334 189 322 168 322 c 0
 158 322 149 324 138 330 c 0
 119 340 112 355 112 371 c 0
 112 397 130 424 138 437 c 0
 167 484 215 485 266 498 c 0
 271 499 275 500 280 500 c 0
 301 500 320 489 334 483 c 1
 349 489 380 503 416 503 c 0
 442 503 470 496 496 476 c 1
 511 485 532 501 561 501 c 0
 568 501 576 500 584 498 c 0
 614 489 633 465 637 435 c 0
 637 433 637 430 637 427 c 0
 637 377 588 283 554 283 c 0
 544 283 536 290 530 308 c 0
 529 312 528 315 527 318 c 1
 522 279 513 245 499 211 c 1
 500 211 502 211 503 211 c 0
 523 211 545 204 556 181 c 0
 561 172 562 163 562 156 c 0
 562 124 531 101 525 91 c 0
 511 67 501 34 461 15 c 0
 443 7 427 4 412 4 c 0
 386 4 366 14 355 23 c 1
EndSplineSet
Validated: 1
EndChar

StartChar: yen
Encoding: 165 165 38
Width: 595
VWidth: 1080
Flags: W
HStem: 11 98<92.8892 178.952> 16 102<375.326 423.195> 509 21G<170 187.5> 621 153<690.029 854.469> 740 20G<320 364.5>
LayerCount: 2
Fore
SplineSet
914 640 m 16x30
 914 625 883 578 823 578 c 0
 806 578 788 581 767 590 c 0
 741 601 729 621 720 621 c 0
 663 616 650 570 598 511 c 1
 586 496 l 1
 631 484 665 451 665 418 c 0
 665 403 659 389 645 376 c 0
 603 337 541 332 485 332 c 1
 473 312 l 1
 470 305 l 1
 501 302 535 295 561 272 c 0
 579 257 591 238 591 218 c 0
 591 204 585 190 571 177 c 0
 520 129 441 133 378 132 c 1
 376 128 375 123 374 118 c 1
 389 114 416 106 424 95 c 0
 430 86 432 77 432 69 c 0
 432 51 422 36 422 36 c 1
 418 24 414 18 400 16 c 0x70
 340 7 291 5 248 5 c 0
 196 5 152 9 108 11 c 1
 86 13 76 38 76 61 c 0
 76 77 81 92 92 97 c 0
 111 107 128 109 141 109 c 0
 157 109 168 106 174 106 c 0
 176 106 178 106 179 107 c 1
 184 116 189 125 193 133 c 1
 130 144 75 178 75 216 c 0
 75 232 85 249 107 265 c 0
 151 297 204 298 251 298 c 1
 261 334 l 1
 200 345 149 379 149 416 c 0
 149 432 159 449 181 465 c 0
 216 490 257 496 296 497 c 1
 300 522 301 533 301 543 c 0
 301 547 301 550 301 553 c 0
 301 557 301 561 301 565 c 1
 264 576 l 0
 257 574 260 558 228 537 c 0
 220 531 203 509 172 509 c 0
 168 509 164 509 160 510 c 0
 122 518 112 556 110 559 c 0
 102 570 101 576 108 587 c 0
 185 695 185 672 206 695 c 2
 248 740 l 2
 256 748 296 760 344 760 c 0xa8
 385 760 430 751 464 723 c 0
 469 719 471 715 472 708 c 0
 478 655 481 615 483 583 c 1
 501 600 527 621 561 646 c 1
 680 747 l 2
 682 749 740 774 808 774 c 0
 834 774 861 770 888 761 c 0
 898 757 903 752 904 742 c 0
 914 640 l 16x30
EndSplineSet
Validated: 1
EndChar

StartChar: brokenbar
Encoding: 166 166 39
Width: 273
VWidth: 1080
Flags: W
VStem: 16 167<23.1278 115.554>
LayerCount: 2
Fore
SplineSet
316 445 m 1
 310 431 309 430 246 420 c 0
 227 417 215 414 201 414 c 0
 194 414 187 415 179 417 c 8
 165 421 154 423 154 445 c 0
 154 446 154 448 154 450 c 1
 247 710 l 1
 247 712 247 713 247 715 c 0
 247 740 283 756 317 756 c 0
 331 756 344 753 354 747 c 0
 374 735 382 712 382 682 c 0
 382 617 344 521 316 445 c 1
265 310 m 4
 233 208 193 127 183 48 c 4
 179 15 148 3 114 3 c 4
 68 3 16 25 16 54 c 4
 16 60 18 67 23 73 c 5
 112 326 l 5
 119 339 124 344 139 342 c 4
 145 342 151 341 158 341 c 4
 179 341 206 343 241 344 c 5
 260 338 268 337 268 326 c 4
 268 322 267 317 265 310 c 4
EndSplineSet
Validated: 1
EndChar

StartChar: section
Encoding: 167 167 40
Width: 451
Flags: W
HStem: -260 172<29.375 162.605> 560 174<412.336 513.371>
VStem: 57 154<246.185 351.52> 192 146<-132.414 1.40491> 366 105<123.06 250>
LayerCount: 2
Fore
SplineSet
407 599 m 1xe8
 391 592 361 551 355 509 c 0
 355 505 354 502 354 498 c 0
 354 454 396 449 419 377 c 0
 435 325 471 283 471 217 c 0
 471 198 468 178 461 154 c 0
 430 56 368 21 333 -9 c 1
 335 -19 338 -33 338 -49 c 0
 338 -82 328 -127 284 -178 c 0
 239 -231 184 -255 124 -259 c 0
 117 -259 110 -260 103 -260 c 0
 48 -260 -1 -244 -9 -183 c 0
 -9 -180 -10 -177 -10 -174 c 0
 -10 -147 10 -123 32 -108 c 0
 54 -93 76 -88 97 -88 c 0
 110 -88 123 -90 135 -93 c 0
 163 -100 168 -115 168 -126 c 0
 168 -133 166 -138 166 -139 c 1
 176 -138 175 -124 183 -93 c 0
 189 -68 192 -49 192 -32 c 0xd8
 192 -10 188 11 181 39 c 0
 163 117 170 145 109 190 c 0
 75 216 57 251 57 290 c 0
 57 316 65 343 79 371 c 0
 115 444 191 443 223 484 c 0
 266 538 228 601 302 672 c 0
 344 713 391 734 441 734 c 0
 447 734 452 733 458 733 c 0
 528 727 558 692 558 655 c 0
 558 612 517 566 449 560 c 0
 447 560 446 560 444 560 c 0
 409 560 410 599 407 599 c 1xe8
243 365 m 1
 231 348 211 328 211 297 c 0xe8
 211 284 215 268 226 250 c 1
 228 230 276 249 304 180 c 0
 308 170 309 162 309 154 c 0
 309 140 305 130 305 125 c 0
 305 123 306 122 308 122 c 0
 308 122 309 122 310 122 c 1
 328 105 341 96 348 87 c 1
 360 129 366 150 366 165 c 0
 366 185 354 191 334 220 c 1
 279 263 255 307 243 365 c 1
EndSplineSet
Validated: 1
EndChar

StartChar: copyright
Encoding: 169 169 42
Width: 354
VWidth: 1000
Flags: W
HStem: 7 55<119.815 188.296> 163 65<215.007 226 226.008 261.591> 428 66<241.186 340.935>
VStem: 42 74<64.0331 240.035> 159 56<221.154 293.699> 343 64<287.803 426.148>
LayerCount: 2
Fore
SplineSet
226 221 m 1
 226 224 237 228 248 228 c 0
 257 228 266 225 270 217 c 0
 272 213 272 210 272 207 c 0
 272 193 259 182 251 176 c 0
 238 167 226 163 215 163 c 0
 185 163 164 191 163 195 c 0
 160 206 159 216 159 226 c 0
 159 257 171 280 172 281 c 0
 191 303 212 361 260 361 c 0
 266 361 273 360 280 358 c 0
 288 356 302 352 306 338 c 0
 307 335 307 331 307 328 c 0
 307 313 300 298 283 293 c 0
 269 289 261 305 261 305 c 0
 252 308 249 307 245 305 c 0
 229 291 229 284 221 262 c 0
 217 250 215 242 215 236 c 0
 215 220 225 221 226 221 c 1
135 65 m 0
 137 64 139 62 142 62 c 0
 148 62 157 66 175 76 c 0
 216 99 239 128 271 187 c 0
 312 261 332 298 342 375 c 0
 343 381 343 386 343 390 c 0
 343 417 332 419 329 422 c 0
 325 426 316 428 305 428 c 0
 295 428 284 427 272 422 c 0
 223 404 210 374 174 313 c 0
 134 242 120 203 116 122 c 0
 116 119 116 116 116 114 c 0
 116 75 129 69 135 65 c 0
74 52 m 0
 47 80 42 112 42 142 c 0
 42 153 43 163 43 173 c 0
 45 232 60 270 86 320 c 0
 117 380 137 444 214 477 c 0
 239 488 265 494 291 494 c 0
 322 494 352 485 379 461 c 0
 402 440 407 415 407 392 c 0
 407 379 405 366 405 355 c 0
 400 261 378 201 332 121 c 0
 308 80 288 32 227 14 c 0
 211 9 195 7 179 7 c 0
 140 7 104 22 74 52 c 0
EndSplineSet
Validated: 1
EndChar

StartChar: logicalnot
Encoding: 172 172 45
Width: 373
Flags: W
HStem: 196 173<134.096 260.044> 196 163<116.204 260.044>
LayerCount: 2
Fore
SplineSet
261 216 m 1x80
 241 207 195 196 153 196 c 0x80
 112 196 74 206 64 236 c 0
 61 243 60 250 60 257 c 0
 60 285 79 309 100 326 c 0
 153 369 199 352 239 359 c 0x40
 263 363 283 369 310 369 c 0
 316 369 323 369 331 368 c 0
 349 365 393 365 407 324 c 0
 412 310 414 297 414 284 c 0
 414 227 374 178 350 121 c 0
 339 95 299 78 263 78 c 0
 237 78 213 87 206 109 c 0
 206 109 206 110 206 111 c 0
 206 128 253 199 261 216 c 1x80
EndSplineSet
Validated: 1
EndChar

StartChar: registered
Encoding: 174 174 47
Width: 462
VWidth: 1000
Flags: W
HStem: 25 55<148.086 233.572> 273 87<345.755 392.169> 296 68<328 358.871> 446 66<299.6 423.653>
VStem: 51 92<88.7638 244.628> 426 81<318.8 443.039>
LayerCount: 2
Fore
SplineSet
91 70 m 0x9c
 57 98 51 129 51 159 c 0
 51 170 51 181 52 191 c 0
 54 250 73 288 105 338 c 0
 145 398 169 462 266 495 c 0
 297 506 329 512 362 512 c 0
 400 512 437 503 471 479 c 0
 501 458 507 433 507 410 c 0
 507 397 505 384 504 373 c 0
 498 279 471 219 412 139 c 0
 383 98 358 50 282 32 c 0
 262 27 242 25 222 25 c 0
 174 25 128 40 91 70 c 0x9c
251 304 m 0
 248 304 225 274 221 272 c 1
 209 268 207 267 203 279 c 0
 201 284 200 289 200 294 c 0
 200 324 234 338 238 346 c 1
 261 361 l 1
 267 362 274 364 281 364 c 0xbc
 296 364 312 358 318 336 c 1
 323 341 331 346 340 348 c 0
 344 350 351 359 368 360 c 0
 370 360 372 360 374 360 c 0
 383 360 396 359 403 346 c 0
 404 344 405 341 405 337 c 0
 405 315 387 273 364 273 c 0
 363 273 363 273 362 273 c 0xdc
 347 275 354 279 349 291 c 0
 348 294 346 296 344 296 c 0xbc
 336 296 323 260 303 233 c 0
 283 207 278 185 255 155 c 0
 249 147 243 127 220 123 c 0
 217 123 214 122 212 122 c 0
 198 122 187 129 182 143 c 0
 180 148 179 153 179 157 c 0
 179 177 196 191 201 201 c 0
 217 235 237 246 245 274 c 0
 251 295 254 303 251 304 c 0
398 303 m 1
 420 359 426 391 426 409 c 0
 426 434 415 435 409 440 c 0
 405 444 394 446 379 446 c 0
 367 446 353 445 338 440 c 0
 277 422 260 392 216 331 c 0
 165 260 148 221 143 140 c 0
 143 137 143 134 143 131 c 0
 143 93 160 87 167 83 c 0
 169 82 172 80 176 80 c 0
 183 80 195 84 217 94 c 0
 268 117 296 146 337 205 c 0
 364 244 384 273 398 303 c 1
EndSplineSet
Validated: 1
EndChar

StartChar: acute
Encoding: 180 180 53
Width: 303
VWidth: 1080
Flags: W
HStem: 448 301
VStem: 105 305
LayerCount: 2
Fore
SplineSet
157 454 m 1
 135 448 l 1
 113 449 106 450 105 472 c 0
 105 475 105 479 105 482 c 0
 105 551 155 586 176 628 c 0
 177 631 178 633 180 635 c 0
 207 662 220 702 273 726 c 0
 290 734 318 749 346 749 c 0
 363 749 381 743 397 726 c 0
 407 716 410 704 410 694 c 0
 410 675 399 658 395 650 c 0
 365 597 322 588 290 562 c 0
 242 522 226 498 157 454 c 1
EndSplineSet
Validated: 1
EndChar

StartChar: uni00B5
Encoding: 181 181 54
Width: 516
VWidth: 1080
Flags: W
HStem: -290 21G<-25.7732 -23.5> 5 116<214.41 267.898> 482 16G<259 280 478.5 495.5>
VStem: 117 206<383.75 449.136>
LayerCount: 2
Fore
SplineSet
395 373 m 1
 394 373 393 373 392 373 c 0
 374 373 338 392 338 423 c 0
 338 438 346 455 369 474 c 0
 397 498 426 497 446 499 c 0
 460 500 472 502 485 502 c 0
 506 502 526 498 547 489 c 0
 551 487 582 477 582 449 c 0
 582 446 582 442 581 439 c 0
 574 404 544 399 544 398 c 2
 445 127 l 1
 456 100 442 125 471 93 c 1
 475 85 478 80 478 74 c 0
 478 69 475 64 468 57 c 0
 413 6 392 -10 314 -33 c 0
 312 -34 309 -34 307 -34 c 0
 289 -34 264 -23 257 5 c 1
 198 -8 182 2 155 -20 c 0
 83 -77 127 -190 25 -264 c 0
 1 -282 -17 -290 -30 -290 c 0
 52 98 l 2
 52 100 53 102 53 104 c 2
 146 362 l 1
 136 364 117 384 117 408 c 0
 117 420 121 432 133 444 c 0
 169 482 207 488 244 496 c 0
 250 497 256 498 262 498 c 0
 298 498 323 471 323 449 c 0
 323 446 323 443 322 440 c 2
 213 140 l 2
 213 140 221 121 247 121 c 0
 250 121 253 122 256 122 c 0
 282 126 304 147 323 171 c 1
 395 373 l 1
EndSplineSet
Validated: 1
EndChar

StartChar: paragraph
Encoding: 182 182 55
Width: 769
VWidth: 1080
Flags: W
HStem: 0 132<106.25 197.765> 6 114<167.927 218.417> 635 124<455.447 505.811>
VStem: 92 211<399 480.648>
LayerCount: 2
Fore
SplineSet
418 440 m 1x30
 427 448 431 478 461 521 c 1
 479 564 508 594 508 615 c 0
 508 618 507 621 506 624 c 0
 502 632 496 635 486 635 c 0
 480 635 473 634 464 632 c 0
 435 624 416 614 388 591 c 0
 336 548 322 522 305 477 c 0
 304 474 303 471 303 469 c 0
 303 461 309 456 311 441 c 1
 325 443 337 444 348 444 c 0
 377 444 398 439 410 439 c 0
 413 439 416 439 418 440 c 1x30
198 120 m 1x70
 233 148 222 166 246 205 c 0
 284 270 303 287 326 320 c 1
 323 321 319 321 313 321 c 0
 291 321 252 314 213 314 c 0
 182 314 152 319 132 337 c 0
 121 347 101 351 96 374 c 0
 93 384 92 394 92 404 c 0
 92 428 100 454 119 490 c 0
 142 534 160 578 236 634 c 0
 327 701 404 723 486 745 c 0
 527 756 557 759 582 759 c 0
 609 759 630 756 658 756 c 0
 662 756 668 756 673 756 c 0
 674 756 675 756 676 756 c 0
 682 756 689 756 695 756 c 0
 728 756 759 759 787 759 c 0
 804 759 820 758 834 754 c 1
 836 754 838 754 840 754 c 0
 858 754 870 741 872 710 c 0
 872 699 870 689 863 676 c 0
 764 492 727 430 635 275 c 0
 574 173 615 222 533 90 c 1
 536 87 537 83 537 79 c 0
 537 51 478 11 468 0 c 0xb0
 465 -3 456 -5 444 -5 c 1
 437 -7 432 -7 427 -5 c 1
 323 -0 260 6 210 6 c 0x70
 195 6 182 5 169 4 c 0
 155 3 144 0 135 0 c 0
 100 0 85 8 39 9 c 0
 22 9 23 14 34 30 c 1
 40 38 49 80 112 114 c 0
 137 128 155 132 167 132 c 0xb0
 187 132 193 120 198 120 c 1x70
717 637 m 1
 704 643 704 643 701 645 c 1
 684 608 732 677 581 438 c 1
 483 251 441 229 412 142 c 1
 412 142 435 136 464 126 c 1
 502 202 516 221 553 291 c 0
 636 447 639 493 717 637 c 1
EndSplineSet
Validated: 1
EndChar

StartChar: AE
Encoding: 198 198 71
Width: 1108
VWidth: 1080
Flags: W
HStem: 0 150<50.799 147.894> 7 130<105.075 164.956 410.656 491.849> 12 169<956.453 1049.31> 15 103<766.601 936.966> 353 87<822.005 863.751> 516 21G<1100.5 1118> 518 20G<973 988> 636 108<880.188 1024.46>
VStem: 18 353<26.0042 115.531> 855 162<266.616 351.762>
LayerCount: 2
Fore
SplineSet
577 488 m 1x09c0
 537 474 527 447 527 424 c 0
 527 404 535 387 535 387 c 2
 536 385 553 376 582 376 c 0
 585 376 589 376 593 376 c 0
 617 378 633 384 644 398 c 1
 655 427 l 2
 655 429 655 430 655 432 c 0
 655 446 649 459 633 473 c 0
 626 478 580 485 577 488 c 1x09c0
713 12 m 1x29c0
 710 8 706 6 699 6 c 0
 696 6 693 6 689 7 c 0x49c0
 681 8 673 9 663 9 c 0
 620 9 558 0 498 0 c 0x89c0
 471 0 444 1 419 7 c 1
 405 12 401 17 400 30 c 0
 400 37 388 57 388 78 c 0
 388 93 393 108 410 122 c 0
 424 133 438 137 452 137 c 0
 472 137 489 128 492 124 c 1
 541 188 522 226 541 244 c 1
 541 244 513 253 481 261 c 0
 469 263 457 263 447 263 c 0
 426 263 409 261 406 261 c 1
 349 137 339 180 328 138 c 1
 340 134 357 126 363 116 c 0
 369 106 371 96 371 88 c 0
 371 64 355 45 354 36 c 1
 352 28 348 23 340 20 c 0
 312 8 285 5 258 5 c 0
 234 5 211 7 187 7 c 0
 183 7 178 7 174 7 c 0
 173 7 172 7 170 7 c 0
 169 7 168 7 167 7 c 0x49c0
 151 7 126 0 99 0 c 0
 77 0 54 4 35 26 c 0
 23 40 18 55 18 69 c 0
 18 93 31 116 50 132 c 0
 67 146 87 150 104 150 c 0
 127 150 146 143 148 143 c 1
 274 257 280 293 437 464 c 0
 499 530 534 574 603 640 c 1
 591 647 586 657 586 668 c 0
 586 695 614 724 614 725 c 0
 618 736 623 741 636 742 c 0
 671 745 700 745 741 747 c 24
 754 748 763 748 773 748 c 0
 783 748 792 753 802 750 c 1
 812 751 824 752 835 753 c 0
 837 753 839 753 841 753 c 0
 878 749 896 745 929 744 c 0
 933 744 937 744 940 744 c 0
 970 744 990 747 1027 748 c 0
 1039 748 1057 755 1077 755 c 0
 1090 755 1104 753 1119 744 c 0
 1168 716 1164 668 1176 645 c 0
 1178 643 1178 641 1179 638 c 0
 1181 625 1183 611 1183 595 c 0
 1183 579 1181 561 1171 541 c 1
 1165 532 1157 535 1148 528 c 0
 1147 527 1128 516 1108 516 c 0x8dc0
 1093 516 1077 522 1066 540 c 0
 1038 586 1038 609 1009 627 c 0
 995 635 983 637 967 637 c 0
 956 637 944 636 927 636 c 0
 926 636 924 636 923 636 c 0
 908 636 900 639 892 639 c 0
 888 639 884 639 880 636 c 1
 865 619 862 579 857 558 c 0
 844 502 822 472 822 448 c 0
 822 445 822 443 823 440 c 0
 824 440 839 435 859 435 c 0
 870 435 883 437 895 443 c 0
 910 451 889 495 936 526 c 0
 951 536 966 538 980 538 c 0
 996 538 1009 535 1018 535 c 0
 1019 535 1019 535 1020 535 c 0
 1037 534 1044 531 1047 515 c 0
 1049 505 1050 496 1050 488 c 0
 1050 435 1020 396 1017 354 c 0
 1017 351 1016 349 1015 347 c 0
 1002 318 1009 286 984 244 c 0
 982 241 980 238 977 236 c 0
 963 227 946 221 928 221 c 0
 910 221 892 227 878 241 c 0
 876 243 874 246 873 248 c 0
 860 280 855 304 855 320 c 0
 855 337 860 347 864 352 c 1
 856 352 843 353 830 353 c 0
 817 353 803 352 794 351 c 1
 763 292 768 241 749 158 c 1
 754 154 773 130 791 124 c 0
 803 120 813 118 824 118 c 0x1bc0
 836 118 849 121 868 125 c 0
 872 126 875 126 879 125 c 0
 891 123 899 121 905 121 c 0
 922 121 927 132 966 169 c 0
 970 173 974 175 980 176 c 0
 987 177 1001 181 1016 181 c 0x29c0
 1031 181 1049 177 1062 161 c 0
 1074 147 1078 132 1078 118 c 0x19c0
 1078 83 1052 52 1049 32 c 1
 1045 19 1040 14 1026 12 c 0x29c0
 1016 11 1004 11 991 11 c 0
 948 11 892 15 832 15 c 0x19c0
 807 15 781 14 756 12 c 1
 713 12 l 1x29c0
EndSplineSet
Validated: 1
EndChar

StartChar: Eth
Encoding: 208 208 80
Width: 797
VWidth: 1080
Flags: W
HStem: 8 119<315.637 457.881> 600 143<198.348 266>
VStem: 110 344<327.031 432.433> 662 203<352.261 546.466>
LayerCount: 2
Fore
SplineSet
266 600 m 1
 265 600 265 600 264 600 c 0
 248 600 201 609 183 639 c 0
 177 649 175 658 175 667 c 0
 175 694 196 715 199 725 c 0
 203 737 208 742 222 743 c 0
 283 746 324 746 384 748 c 0
 386 748 388 748 390 748 c 2
 474 731 l 1
 556 716 620 731 708 690 c 0
 769 662 806 631 839 578 c 0
 863 539 864 507 865 469 c 0
 865 460 865 452 865 444 c 0
 865 389 858 348 834 291 c 0
 820 259 802 243 783 220 c 1
 737 169 710 132 645 91 c 0
 569 44 513 39 437 10 c 0
 433 8 429 8 425 8 c 0
 401 10 378 10 355 10 c 0
 286 10 223 5 159 5 c 0
 128 5 97 6 65 10 c 0
 54 12 49 16 45 26 c 0
 42 34 19 53 19 82 c 0
 19 88 20 95 23 103 c 0
 45 160 111 155 125 172 c 0
 144 196 139 218 155 260 c 2
 170 298 l 1
 153 306 138 318 124 337 c 0
 114 350 110 364 110 378 c 0
 110 398 118 416 131 431 c 0
 159 462 191 465 220 465 c 2
 227 465 l 1
 243 523 262 586 266 600 c 1
317 148 m 0
 331 132 348 127 366 127 c 0
 389 127 413 135 439 142 c 0
 475 153 492 169 519 196 c 0
 570 246 598 271 628 329 c 0
 651 372 662 394 662 436 c 0
 662 437 662 439 662 441 c 0
 660 503 655 538 615 579 c 1
 584 609 558 620 514 620 c 0
 512 620 510 620 508 620 c 0
 490 619 480 616 466 601 c 0
 434 566 430 535 409 473 c 2
 406 463 l 1
 416 457 426 450 434 438 c 0
 446 422 454 402 454 381 c 0
 454 366 450 351 441 337 c 0
 417 302 383 293 351 291 c 1
 334 249 325 222 318 185 c 0
 316 174 312 167 312 160 c 0
 312 156 313 152 317 148 c 0
EndSplineSet
Validated: 1
EndChar

StartChar: multiply
Encoding: 215 215 86
Width: 430
VWidth: 1080
Flags: W
VStem: 309 68<106.188 126.233>
LayerCount: 2
Fore
SplineSet
328 454 m 1
 331 454 334 454 338 454 c 0
 344 454 349 454 355 454 c 0
 368 454 379 452 387 440 c 1
 358 409 299 340 258 286 c 1
 282 225 323 205 369 146 c 1
 372 135 377 126 377 118 c 0
 377 114 376 110 373 106 c 1
 344 92 335 95 309 92 c 1
 309 104 260 155 258 165 c 0
 253 184 245 187 228 194 c 1
 217 195 217 195 196 194 c 1
 181 178 177 187 163 161 c 1
 160 153 134 110 134 91 c 0
 134 89 134 88 134 87 c 1
 123 86 117 86 111 86 c 0
 99 86 95 88 74 92 c 1
 72 93 71 94 71 96 c 0
 71 110 104 147 104 162 c 0
 104 163 104 164 104 165 c 1
 155 216 160 220 185 264 c 1
 163 312 128 391 88 445 c 1
 120 453 117 455 120 455 c 0
 122 455 126 454 141 454 c 1
 154 427 193 355 212 343 c 0
 218 339 224 338 229 338 c 0
 235 338 240 339 246 341 c 0
 268 350 259 350 286 382 c 1
 288 391 328 443 328 454 c 1
EndSplineSet
Validated: 1
EndChar

StartChar: Oslash
Encoding: 216 216 87
Width: 754
VWidth: 1080
Flags: W
HStem: -4 75<369.215 467.485> 627 124<844.145 898.287> 627 98<846.356 914.841> 682 83<483.625 613.405>
VStem: 79 139<215.171 428.458> 689 129<346.204 479.305>
LayerCount: 2
Fore
SplineSet
371 736 m 0xcc
 374 736 384 645 384 629 c 1
 344 587 315 569 282 521 c 0
 256 483 253 456 234 414 c 1
 225 366 218 326 218 287 c 0
 218 263 221 239 228 214 c 1
 355 334 408 381 529 485 c 0
 625 567 642 592 657 613 c 1
 647 632 632 649 610 664 c 0
 592 677 576 682 556 682 c 0
 550 682 544 682 538 681 c 0
 488 676 471 644 454 636 c 1
 449 635 445 635 442 635 c 0
 434 635 427 636 418 636 c 1
 415 639 396 703 396 734 c 0
 396 743 398 749 402 750 c 0
 430 755 459 763 491 763 c 0
 494 763 498 763 501 763 c 0
 512 765 521 765 530 765 c 0x9c
 577 765 608 746 646 726 c 0
 647 726 648 725 649 725 c 0xac
 657 720 664 715 672 710 c 1
 679 726 693 737 706 743 c 0
 710 745 737 751 741 751 c 0
 765 753 780 754 789 754 c 0
 809 754 808 751 821 751 c 0xcc
 844 751 857 744 910 725 c 0xac
 916 723 920 720 923 715 c 0
 928 707 930 698 930 689 c 0
 930 668 918 648 900 636 c 0
 891 630 881 627 872 627 c 0
 856 627 847 631 844 632 c 1
 792 588 l 1
 811 544 818 503 818 462 c 0
 818 422 812 382 804 338 c 0
 787 254 757 202 702 136 c 0
 662 89 627 68 574 40 c 0
 539 21 512 12 472 5 c 0
 439 -0 410 -4 381 -4 c 0
 356 -4 330 -1 300 6 c 0
 288 9 277 13 267 17 c 1
 220 15 194 11 158 11 c 0
 136 11 112 13 78 17 c 1
 70 19 65 22 61 28 c 0
 58 32 23 47 23 83 c 0
 23 87 24 92 25 96 c 0
 33 131 67 144 89 152 c 0
 95 154 101 155 106 156 c 1
 91 192 86 232 79 285 c 0
 79 286 79 286 79 287 c 0
 78 311 76 333 76 354 c 0
 76 391 80 425 92 469 c 0
 108 529 122 573 169 623 c 0
 226 683 279 701 350 730 c 0
 361 734 367 735 371 736 c 0xcc
369 72 m 1
 374 71 378 71 383 71 c 0
 394 71 406 73 420 77 c 0
 495 97 535 128 588 185 c 0
 635 235 648 277 666 343 c 0
 679 394 689 434 689 476 c 0
 689 477 689 479 689 480 c 1
 594 385 l 1
 476 269 454 255 344 133 c 0
 344 132 343 130 342 128 c 1
 354 127 369 120 373 102 c 0
 374 99 374 96 374 93 c 0
 374 85 372 78 369 72 c 1
EndSplineSet
Validated: 1
EndChar

StartChar: Thorn
Encoding: 222 222 93
Width: 613
VWidth: 1080
Flags: W
HStem: 0 79<265.749 327.123> 0 71<231.037 308.344> 192 60<307.754 443.781> 516 81<391.371 497.829> 651 98<385.875 489.155> 653 72<193.877 275.968>
VStem: 529 148<355.486 483.773>
LayerCount: 2
Fore
SplineSet
307 270 m 1x32
 323 256 345 252 370 252 c 0
 393 252 419 256 445 258 c 1
 472 268 485 286 499 312 c 16
 517 347 529 376 529 409 c 0
 529 422 527 436 523 451 c 0
 510 494 478 516 446 516 c 0
 429 516 412 510 397 499 c 8
 355 468 356 427 337 378 c 16
 324 344 305 316 305 287 c 0
 305 282 305 276 307 270 c 1x32
242 119 m 1
 241 119 238 116 228 84 c 8
 224 73 245 76 256 72 c 16
 259 71 262 71 265 71 c 0x7a
 281 71 295 79 309 79 c 0
 316 79 322 76 328 70 c 0
 333 64 335 58 335 52 c 0
 335 36 323 19 322 0 c 1
 314 0 306 0 299 0 c 0xb2
 255 0 233 -4 190 -5 c 1
 173 -1 156 -0 140 -0 c 0
 122 -0 105 0 88 0 c 0x72
 68 0 49 0 31 9 c 1
 31 27 24 42 24 57 c 0
 24 64 26 72 31 79 c 8
 45 98 67 89 90 96 c 17
 150 204 157 304 203 424 c 1
 230 520 251 580 278 651 c 1xba
 262 652 246 653 225 653 c 0
 217 653 208 653 199 653 c 1
 198 672 186 689 186 705 c 0
 186 711 188 717 193 723 c 0
 199 730 207 732 214 732 c 0
 228 732 244 725 261 725 c 0
 262 725 264 725 265 725 c 0x36
 325 731 360 749 415 749 c 0
 420 749 426 749 431 749 c 0
 435 749 439 749 443 749 c 0
 462 749 478 748 490 732 c 0
 495 725 497 717 497 710 c 0
 497 695 490 680 490 662 c 1
 472 653 452 651 432 651 c 0x3a
 417 651 401 652 384 652 c 1
 384 623 384 594 387 594 c 0
 416 594 441 597 466 597 c 0
 488 597 510 595 536 585 c 8
 597 561 644 542 668 481 c 16
 674 466 677 452 677 438 c 0
 677 408 664 381 651 346 c 8
 623 270 580 232 507 196 c 16
 489 187 470 184 451 184 c 0
 420 184 388 192 355 192 c 0
 333 192 310 188 287 176 c 8
 264 164 263 183 244 124 c 0
 243 120 243 120 242 119 c 1
EndSplineSet
Validated: 1
EndChar

StartChar: hbar
Encoding: 295 295 94
Width: 459
VWidth: 1000
Flags: W
HStem: -14 172<225.436 306> 317 124<316.879 375.769>
VStem: 196 229<641.564 721.28> 377 130<219.88 355>
LayerCount: 2
Fore
SplineSet
116 496 m 0xd0
 106 506 102 516 102 527 c 0
 102 542 110 555 123 566 c 0
 151 590 183 592 212 592 c 0
 219 592 225 592 231 592 c 0
 235 592 239 592 243 592 c 1
 246 608 248 621 248 627 c 0
 248 630 248 631 247 631 c 0
 246 631 246 631 245 630 c 0
 242 626 237 623 232 623 c 0
 222 623 209 631 201 650 c 0
 198 658 196 666 196 673 c 0
 196 699 215 720 230 733 c 0
 256 755 285 754 307 755 c 0
 317 755 328 757 340 757 c 0
 362 757 385 753 405 731 c 0
 418 717 425 699 425 681 c 0xe0
 425 667 421 653 413 641 c 0
 402 626 383 622 375 622 c 0
 374 622 374 622 373 622 c 0
 367 612 364 605 362 598 c 1
 383 596 408 591 426 572 c 0
 438 560 446 545 446 529 c 0
 446 518 442 506 433 496 c 0
 400 459 347 462 305 461 c 1
 276 407 l 1
 328 432 367 441 397 441 c 0
 436 441 458 426 472 416 c 0
 500 395 507 368 507 342 c 0
 507 324 504 307 502 292 c 0
 495 222 468 181 431 126 c 0
 397 76 369 53 328 21 c 0
 326 19 321 -8 288 -13 c 0
 284 -14 280 -14 277 -14 c 0
 235 -14 200 24 200 67 c 0
 200 76 201 84 204 93 c 0
 210 110 225 158 269 158 c 0
 272 158 274 158 276 158 c 0
 296 155 306 149 306 139 c 0
 306 138 306 137 306 136 c 2
 339 185 l 2
 355 207 361 217 368 240 c 1
 373 261 377 272 377 284 c 0
 377 289 376 295 374 301 c 0
 368 316 365 317 362 317 c 0
 360 317 359 317 357 317 c 0
 327 317 315 291 275 254 c 0
 245 226 237 203 207 165 c 1
 174 118 172 43 117 8 c 0
 109 4 103 3 95 6 c 2
 33 27 l 1
 22 34 16 38 16 48 c 0
 16 50 16 52 17 55 c 0
 32 124 50 128 79 202 c 2
 184 461 l 1
 159 466 135 476 116 496 c 0xd0
EndSplineSet
Validated: 1
EndChar

StartChar: Iogonek
Encoding: 302 302 101
Width: 467
Flags: W
HStem: -191 105<394.538 448.151> -191 74<373.097 403.327> 3 136<58.7925 184.983 412.046 436.451> 619 126<552.034 640.248> 626 134<282.975 357.758 555.439 630.458>
VStem: 279 84<-113.844 -42.799>
LayerCount: 2
Fore
SplineSet
391 -117 m 1x74
 394 -112 398 -86 426 -86 c 1xa4
 431 -88 462 -91 462 -120 c 0
 462 -140 462 -177 413 -188 c 0
 410 -189 401 -191 394 -191 c 0
 389 -191 385 -190 382 -190 c 0
 377 -190 377 -191 369 -191 c 0
 325 -191 279 -148 279 -84 c 0
 279 -46 295 -12 317 11 c 1
 290 12 262 14 233 14 c 0
 219 14 205 14 192 13 c 0
 160 11 129 -3 97 -3 c 0
 78 -3 59 2 39 15 c 0
 25 25 14 42 14 59 c 0
 14 66 16 72 19 79 c 0
 46 133 108 126 143 136 c 0
 162 142 185 144 185 144 c 1
 197 167 178 171 221 260 c 1
 253 331 l 1
 287 410 351 524 355 607 c 0
 355 609 359 632 358 634 c 1
 353 634 337 626 318 626 c 0
 305 626 291 630 277 644 c 0
 265 656 259 672 259 688 c 0
 259 704 265 720 278 733 c 0
 299 754 323 760 347 760 c 0x6c
 381 760 415 747 442 747 c 0
 443 747 444 747 445 747 c 0
 447 747 449 747 451 747 c 0
 455 746 458 746 462 746 c 0
 483 746 509 755 551 755 c 0
 573 755 599 752 632 745 c 1
 646 740 651 735 651 721 c 0
 651 714 658 700 658 682 c 0
 658 669 654 654 641 640 c 0
 625 623 606 619 592 619 c 0
 579 619 570 622 569 622 c 0
 533 577 527 562 496 448 c 0
 496 447 496 446 495 445 c 2
 428 275 l 1
 398 161 388 165 379 134 c 1
 385 137 391 139 397 139 c 0
 412 139 429 128 446 105 c 0
 455 93 458 80 458 69 c 0
 458 50 450 34 450 26 c 1
 446 9 443 3 424 3 c 0
 422 3 421 3 419 3 c 0
 418 3 416 3 414 3 c 1
 413 1 413 -1 412 -3 c 1
 414 -9 417 -16 417 -17 c 0
 417 -18 391 -43 388 -43 c 0
 385 -43 377 -42 374 -42 c 1
 370 -48 363 -68 363 -79 c 0
 363 -83 365 -106 373 -113 c 0
 375 -115 382 -117 391 -117 c 1x74
EndSplineSet
Validated: 1
EndChar

StartChar: iogonek
Encoding: 303 303 102
Width: 296
Flags: W
HStem: -150 105<190.538 244.151> -150 74<169.097 199.327> 491 20G<248 271> 572 182<240.877 343.113>
VStem: 75 84<-72.8438 -0.376539> 211 165<599.409 719.342>
LayerCount: 2
Fore
SplineSet
94 388 m 1x7c
 121 432 156 468 204 492 c 0
 208 494 220 491 217 495 c 0
 216 496 216 497 216 499 c 0
 216 506 231 511 265 511 c 0
 277 511 292 511 308 509 c 1
 323 506 329 501 331 487 c 0
 333 471 339 451 339 429 c 0
 339 409 334 386 316 364 c 1
 282 307 261 277 227 216 c 0
 214 192 204 184 201 173 c 1
 209 182 225 193 252 193 c 0
 255 193 257 193 260 193 c 0
 272 192 307 189 314 155 c 0
 316 150 316 145 316 140 c 0
 316 95 269 72 250 55 c 0
 237 44 225 36 211 29 c 1
 212 27 213 25 213 24 c 0
 213 23 187 0 184 0 c 0
 181 0 173 0 170 0 c 1
 166 -6 159 -27 159 -38 c 0
 159 -42 161 -65 169 -72 c 0
 171 -74 178 -76 187 -76 c 1x7c
 190 -71 194 -45 222 -45 c 1xbc
 227 -47 258 -50 258 -79 c 0
 258 -99 258 -136 209 -147 c 0
 206 -148 197 -150 190 -150 c 0
 185 -150 181 -149 178 -149 c 0
 173 -149 173 -150 165 -150 c 0
 121 -150 75 -107 75 -43 c 0
 75 -21 80 -1 89 17 c 1
 71 23 51 34 41 58 c 0
 37 68 35 77 35 85 c 0
 35 109 47 127 51 139 c 0
 65 189 78 219 103 264 c 0
 110 277 122 296 133 313 c 1
 95 311 l 1
 75 318 70 319 70 328 c 0
 70 333 71 339 72 348 c 1
 94 388 l 1x7c
259 576 m 0
 238 582 227 599 222 611 c 0
 215 627 211 643 211 660 c 0
 211 675 215 691 223 706 c 0
 235 731 257 754 292 754 c 0
 328 754 349 730 362 706 c 0
 370 691 376 673 376 654 c 0
 376 638 371 621 359 606 c 0
 341 581 315 572 289 572 c 0
 279 572 269 574 259 576 c 0
EndSplineSet
Validated: 1
EndChar

StartChar: IJ
Encoding: 306 306 103
Width: 1181
VWidth: 1080
Flags: W
HStem: -259 113<553 669.297> 3 136<58.7925 184.983 380.22 436.451> 378 117<797.888 868.906> 386 109<821.108 879.742 1096.99 1157.3> 588 165<1136.03 1235.7> 668 91<684.561 768.719>
LayerCount: 2
Fore
SplineSet
358 634 m 1xe4
 353 634 337 626 318 626 c 0
 305 626 291 630 277 644 c 0
 265 656 259 672 259 688 c 0
 259 704 265 720 278 733 c 0
 299 754 323 760 347 760 c 0
 381 760 415 747 442 747 c 0
 443 747 444 747 445 747 c 0
 447 747 449 747 451 747 c 0
 455 746 458 746 462 746 c 0
 483 746 509 755 551 755 c 0
 570 755 593 753 621 747 c 1
 649 752 673 759 707 759 c 0
 711 759 714 759 718 759 c 0xe4
 793 756 839 741 906 715 c 0
 962 693 969 659 999 659 c 0
 1048 659 1059 716 1136 739 c 0
 1151 744 1171 753 1194 753 c 0
 1207 753 1220 750 1234 742 c 0
 1276 717 1267 673 1274 655 c 0
 1278 643 1277 636 1266 628 c 0
 1220 592 1171 598 1149 588 c 1
 1120 541 1099 512 1096 499 c 1
 1108 499 1141 493 1145 492 c 0
 1159 487 1163 482 1165 468 c 0
 1165 467 1173 455 1173 438 c 0
 1173 428 1170 415 1158 404 c 0
 1143 390 1126 385 1111 385 c 0
 1085 385 1064 398 1062 398 c 1
 997 283 1018 253 920 10 c 0
 919 8 918 5 916 3 c 0
 861 -61 833 -109 766 -165 c 1
 720 -219 682 -236 628 -252 c 0
 611 -257 596 -259 581 -259 c 0
 525 -259 487 -226 448 -191 c 0
 444 -188 442 -184 441 -180 c 0
 437 -167 436 -153 436 -139 c 0
 436 -114 442 -89 456 -68 c 0
 461 -62 466 -58 474 -57 c 0
 489 -55 506 -46 531 -46 c 0
 538 -46 546 -47 555 -49 c 0
 601 -61 618 -90 643 -109 c 0
 657 -120 660 -126 660 -130 c 0
 660 -132 659 -133 659 -135 c 0
 659 -137 659 -139 661 -141 c 0
 663 -144 665 -146 666 -146 c 0
 671 -146 672 -130 679 -100 c 0
 679 -96 681 -93 683 -90 c 0
 703 -62 727 5 736 74 c 0
 737 76 737 78 738 81 c 0
 773 152 790 194 829 266 c 0
 853 312 879 320 880 348 c 0
 880 350 880 353 880 356 c 0
 880 369 878 386 869 386 c 0xd8
 867 386 865 385 862 383 c 0
 858 380 851 378 844 378 c 0
 820 378 786 394 784 438 c 0
 784 439 784 440 784 441 c 0
 784 482 832 491 851 494 c 0
 857 495 862 495 866 495 c 0
 906 495 918 469 923 469 c 1
 943 477 946 494 953 532 c 0
 956 546 956 548 951 555 c 0
 943 566 937 568 915 574 c 0
 914 574 914 574 913 574 c 0
 906 574 895 567 876 567 c 0
 868 567 858 569 846 573 c 0
 781 597 780 651 748 665 c 0
 741 669 733 670 725 670 c 0
 715 670 705 668 697 668 c 0
 696 668 695 668 694 668 c 0
 693 667 688 660 684 653 c 1
 696 650 716 640 739 618 c 0
 749 608 772 588 772 561 c 0
 772 554 771 547 768 540 c 0
 749 494 703 467 655 467 c 0
 641 467 626 469 612 474 c 0
 564 491 567 547 562 556 c 2
 546 591 l 1
 528 562 519 532 496 448 c 0
 496 447 496 446 495 445 c 2
 428 275 l 1
 398 161 388 165 379 134 c 1
 385 137 391 139 397 139 c 0
 412 139 429 128 446 105 c 0
 455 93 458 80 458 69 c 0
 458 50 450 34 450 26 c 1
 446 9 443 3 424 3 c 0
 422 3 421 3 419 3 c 0
 388 3 310 14 233 14 c 0
 219 14 205 14 192 13 c 0
 160 11 129 -3 97 -3 c 0
 78 -3 59 2 39 15 c 0
 25 25 14 42 14 59 c 0
 14 66 16 72 19 79 c 0
 46 133 108 126 143 136 c 0
 162 142 185 144 185 144 c 1
 197 167 178 171 221 260 c 1
 253 331 l 1
 287 410 351 524 355 607 c 0
 355 609 359 632 358 634 c 1xe4
EndSplineSet
Validated: 1
LCarets2: 1 0 
Ligature2: "'liga' Standard Ligatures in Latin lookup 0 subtable" I J
EndChar

StartChar: ij
Encoding: 307 307 104
Width: 296
VWidth: 1000
Flags: W
HStem: -263 204<132.814 215.296> 491 20G<248 271> 572 182<240.877 343.113> 587 182<520.633 623.123>
VStem: 211 165<599.409 719.342> 491 164<613.773 734.878>
LayerCount: 2
Fore
SplineSet
538 591 m 0xdc
 518 597 507 614 501 626 c 0
 495 642 491 658 491 675 c 0
 491 690 494 706 502 722 c 0
 515 746 537 769 572 769 c 0
 607 769 629 745 641 722 c 0
 649 706 655 687 655 669 c 0
 655 653 651 636 639 621 c 0
 620 597 594 587 568 587 c 0
 558 587 548 588 538 591 c 0xdc
335 465 m 1
 377 514 431 511 485 549 c 0
 489 551 493 553 498 553 c 0
 508 554 531 568 557 568 c 0
 570 568 585 564 600 552 c 0
 622 535 629 512 629 489 c 0
 629 472 625 455 619 440 c 0
 606 406 575 399 574 398 c 0
 533 301 536 258 490 134 c 1
 453 43 443 -13 397 -107 c 0
 379 -144 370 -192 319 -228 c 0
 286 -252 253 -263 217 -263 c 0
 201 -263 184 -261 167 -256 c 0
 134 -248 114 -228 98 -204 c 0
 89 -190 72 -167 72 -141 c 0
 72 -131 75 -121 81 -109 c 1
 101 -76 134 -59 170 -59 c 0
 185 -59 201 -62 216 -69 c 0
 233 -78 241 -94 241 -103 c 0
 241 -104 241 -105 241 -105 c 1
 247 -103 251 -101 251 -101 c 1
 292 -21 264 -49 353 197 c 1
 371 279 392 319 408 337 c 1
 403 336 399 336 394 336 c 0
 377 336 358 341 342 356 c 0
 334 363 329 371 326 379 c 1
 323 374 320 369 316 364 c 0
 282 307 261 277 227 216 c 0
 214 192 204 184 201 173 c 1
 209 182 225 193 252 193 c 0
 255 193 257 193 260 193 c 0
 272 192 307 189 314 155 c 0
 316 150 316 145 316 140 c 0
 316 95 269 72 250 55 c 0
 229 36 208 26 181 18 c 0
 165 13 149 9 131 9 c 0
 121 9 110 11 99 14 c 0
 79 20 53 29 41 58 c 0
 37 68 35 77 35 85 c 0
 35 109 47 127 51 139 c 0
 65 189 78 219 103 264 c 0
 110 277 122 296 133 313 c 1
 95 311 l 1
 75 318 70 319 70 328 c 0
 70 333 71 339 72 348 c 1
 72 348 86 374 95 390 c 0
 121 436 155 467 204 492 c 0
 208 494 220 491 217 495 c 0
 216 496 216 497 216 499 c 0
 216 506 231 511 265 511 c 0
 277 511 292 511 308 509 c 1
 323 506 329 501 331 487 c 0
 332 480 333 473 335 465 c 1
259 576 m 0
 238 582 227 599 222 611 c 0
 215 626 211 643 211 659 c 0
 211 675 215 691 223 706 c 0
 235 731 257 754 292 754 c 0
 328 754 349 730 362 706 c 0
 370 691 376 673 376 654 c 0
 376 638 371 622 359 606 c 0
 341 581 315 572 289 572 c 0xec
 279 572 269 573 259 576 c 0
EndSplineSet
Validated: 1
LCarets2: 1 0 
Ligature2: "'liga' Standard Ligatures in Latin lookup 0 subtable" i j
EndChar

StartChar: Kcommaaccent
Encoding: 310 310 105
Width: 778
Flags: W
HStem: 0 131<34.9832 166.118 687.193 757.435> 625 130<254.356 327> 639 101<535.562 572.812 803.956 907.193>
VStem: 628 291<651.529 739.924>
LayerCount: 2
Fore
SplineSet
192 -214 m 0xb0
 238 -148 270 -146 303 -120 c 0
 320 -107 325 -107 327 -101 c 1
 326 -101 314 -106 300 -106 c 0
 285 -106 265 -101 250 -82 c 0
 232 -61 223 -37 223 -12 c 0
 223 -9 223 -6 224 -3 c 1
 184 -2 143 -0 105 0 c 0
 94 0 82 0 71 0 c 0
 66 0 60 1 55 0 c 1
 34 2 30 5 27 24 c 0
 26 30 17 46 17 67 c 0
 17 79 21 93 33 107 c 0
 54 130 80 136 103 136 c 0
 124 136 143 131 150 131 c 0
 151 131 152 131 152 131 c 1
 206 201 151 243 225 386 c 1
 286 585 316 620 327 625 c 1
 254 625 l 1xd0
 234 630 229 632 229 652 c 0
 230 681 242 716 259 740 c 0xb0
 264 747 269 750 277 751 c 0
 300 754 325 755 350 755 c 0xd0
 421 755 496 747 547 747 c 0
 551 747 555 747 559 747 c 0
 575 746 581 742 585 727 c 0
 587 720 588 710 588 700 c 0
 588 684 585 666 573 649 c 0
 569 644 565 641 559 639 c 2
 483 619 l 1
 457 586 468 556 433 443 c 1
 433 415 l 1
 446 444 500 509 667 633 c 1
 636 662 628 679 628 693 c 0
 628 706 635 716 637 730 c 0
 639 740 643 745 653 749 c 0
 672 756 692 758 711 758 c 0
 765 758 821 740 865 740 c 0
 873 740 879 741 886 742 c 1
 907 741 910 739 915 719 c 1
 915 719 919 710 919 697 c 0
 919 689 917 679 912 669 c 0
 899 643 870 639 850 639 c 0
 840 639 832 640 829 640 c 0
 828 640 827 640 827 640 c 1
 780 599 749 549 685 499 c 1
 624 437 562 392 537 365 c 1
 539 250 620 233 687 127 c 1
 691 129 702 133 717 133 c 0
 730 133 746 129 758 118 c 0
 772 105 776 90 776 76 c 0
 776 53 765 31 765 24 c 1
 760 7 758 0 743 0 c 0
 741 0 738 0 735 0 c 0
 706 4 667 6 626 6 c 0
 578 6 527 2 483 0 c 1
 485 -9 485 -17 485 -26 c 0
 485 -65 473 -104 461 -140 c 1
 442 -192 407 -214 372 -241 c 0
 356 -253 339 -265 313 -270 c 1
 313 -270 289 -273 262 -273 c 0
 225 -273 182 -267 182 -241 c 0
 182 -233 185 -225 192 -214 c 0xb0
507 97 m 1
 508 98 509 98 509 100 c 0
 509 106 501 119 501 135 c 1
 383 277 446 257 391 291 c 1
 367 283 l 1
 345 198 308 171 308 142 c 0
 308 138 309 133 311 128 c 1
 312 129 316 130 322 130 c 0
 335 130 357 125 374 103 c 1
 376 103 378 103 380 103 c 0
 393 103 405 101 416 96 c 1
 417 97 419 98 420 99 c 0
 434 109 447 113 458 113 c 0
 483 113 501 97 507 97 c 1
EndSplineSet
Validated: 1
EndChar

StartChar: kcommaaccent
Encoding: 311 311 106
Width: 438
Flags: W
HStem: -165 196<161.457 227.649> 455 20G<405.5 427.5>
VStem: 124 262<-134.134 -6.32104> 227 127<111.54 187.767>
LayerCount: 2
Fore
SplineSet
93 -273 m 0xe0
 139 -207 171 -205 204 -179 c 0
 221 -166 226 -166 228 -160 c 1
 227 -160 215 -165 201 -165 c 0
 186 -165 166 -160 151 -141 c 0
 133 -120 124 -96 124 -71 c 0xe0
 124 -56 128 -40 135 -25 c 0
 152 13 186 24 214 31 c 0
 224 34 236 37 249 40 c 1
 247 41 246 41 245 42 c 0
 237 47 233 52 232 61 c 0
 228 104 227 131 227 148 c 0
 227 184 233 174 233 179 c 0
 233 180 232 183 231 188 c 1
 214 190 l 2
 214 189 213 187 213 186 c 0
 213 180 219 177 219 165 c 0
 219 151 211 125 174 68 c 1
 147 15 l 2
 141 5 124 0 104 0 c 0
 75 0 38 13 20 56 c 0
 19 59 18 62 18 65 c 0
 18 66 18 68 19 70 c 0
 43 173 100 206 100 232 c 0
 100 233 100 234 100 235 c 0
 100 239 100 242 102 246 c 2
 203 489 l 1
 233 629 255 642 267 653 c 1
 215 656 195 675 195 697 c 0
 195 715 210 735 233 747 c 0
 249 755 264 758 278 758 c 0
 300 758 320 751 336 750 c 0
 363 748 379 746 403 744 c 1
 413 742 419 739 424 731 c 0
 433 713 438 693 438 676 c 0
 438 657 432 640 421 630 c 1
 368 528 359 532 329 479 c 1
 329 470 327 463 325 457 c 1
 335 460 345 463 355 464 c 0
 371 466 393 475 418 475 c 0
 437 475 457 469 474 451 c 0
 490 434 496 416 496 398 c 0
 496 371 483 344 471 323 c 0
 446 279 407 275 385 259 c 0
 374 251 354 234 354 234 c 1xd0
 354 153 357 169 365 128 c 0
 366 120 377 111 377 111 c 1
 377 114 384 118 393 118 c 0
 403 118 416 114 427 99 c 1
 435 90 438 79 438 69 c 0
 438 53 430 38 418 28 c 0
 399 11 378 6 358 6 c 0
 357 6 357 6 356 6 c 1
 379 -22 386 -53 386 -85 c 0
 386 -124 374 -163 362 -199 c 1
 343 -251 308 -273 273 -300 c 0
 257 -312 240 -324 214 -329 c 1
 214 -329 190 -332 163 -332 c 0
 126 -332 83 -326 83 -300 c 0
 83 -292 86 -284 93 -273 c 0xe0
245 296 m 1
 253 294 256 292 261 292 c 0
 262 292 263 292 264 292 c 0
 302 299 318 305 343 330 c 0
 358 346 365 356 369 362 c 1
 365 360 360 359 351 359 c 0
 344 359 335 360 323 362 c 1
 250 342 252 301 245 296 c 1
EndSplineSet
Validated: 1
EndChar

StartChar: kgreenlandic
Encoding: 312 312 107
Width: 420
Flags: W
HStem: 504 20G<277 304.5 433.5 438.5>
VStem: 101 266<209.266 287.647> 230 208<48.3722 124.094> 233 131<143 208>
LayerCount: 2
Fore
SplineSet
350 282 m 0x90
 362 263 367 249 367 228 c 0xc0
 367 217 364 195 364 174 c 0x90
 364 164 364 154 365 143 c 1
 373 131 l 2
 374 130 375 129 376 128 c 1
 380 128 388 130 395 130 c 1
 413 125 412 127 420 121 c 0
 421 120 424 117 427 114 c 0
 434 104 438 93 438 82 c 0
 438 77 437 57 419 39 c 0
 401 22 379 15 358 15 c 0
 335 15 307 23 294 26 c 0
 272 31 256 47 245 53 c 0
 238 57 233 63 232 72 c 0
 230 91 230 108 230 120 c 0xa0
 230 145 233 170 233 183 c 0x90
 233 190 233 197 231 208 c 1
 215 209 l 1
 203 165 201 127 174 81 c 1
 147 24 l 2
 144 18 139 14 133 11 c 0
 124 8 113 6 100 6 c 0
 63 6 35 29 20 67 c 0
 19 70 18 73 18 76 c 0
 18 78 18 80 19 82 c 0
 41 178 101 219 101 253 c 0xc0
 101 256 100 258 100 261 c 0
 100 265 101 268 103 272 c 0
 124 313 175 419 199 484 c 0
 201 489 204 493 208 496 c 0
 222 505 262 524 292 524 c 0
 317 524 334 509 334 487 c 0
 334 479 332 470 328 460 c 0
 327 459 327 458 327 456 c 1
 338 462 350 466 364 472 c 0
 385 481 399 495 418 501 c 0
 424 503 430 505 437 505 c 0
 440 504 449 505 461 498 c 0
 465 495 469 493 473 488 c 0
 474 487 481 468 481 466 c 0
 479 433 454 393 447 385 c 0
 447 384 444 382 442 381 c 0
 414 358 362 357 322 348 c 1
 294 333 295 337 277 328 c 2
 275 327 l 1
 280 326 285 324 292 321 c 0
 313 312 317 312 327 306 c 0
 338 299 345 290 350 282 c 0x90
EndSplineSet
Validated: 1
EndChar

StartChar: Lcommaaccent
Encoding: 315 315 110
Width: 622
Flags: W
HStem: 0 129<43.0112 113.851> 635 125<464.192 531.242> 653 106<199.617 288.999> 665 93<198.75 255.339>
VStem: 241 262<-147.134 -20.1163>
LayerCount: 2
Fore
SplineSet
461 6 m 1xc8
 493 -26 503 -61 503 -98 c 0
 503 -137 491 -176 479 -212 c 1
 460 -264 425 -286 390 -313 c 0
 374 -325 357 -337 331 -342 c 1
 331 -342 307 -345 280 -345 c 0
 243 -345 200 -339 200 -313 c 0
 200 -305 203 -297 210 -286 c 0
 256 -220 288 -218 321 -192 c 0
 338 -179 343 -179 345 -173 c 1
 344 -173 332 -178 318 -178 c 0
 303 -178 283 -173 268 -154 c 0
 250 -133 241 -109 241 -84 c 0
 241 -69 245 -53 252 -38 c 0
 262 -16 278 -3 296 6 c 1
 246 3 203 0 157 0 c 0
 121 0 84 1 41 8 c 1
 25 13 20 17 20 33 c 0
 20 38 14 52 14 68 c 0
 14 82 18 97 33 111 c 0
 48 125 66 129 80 129 c 0
 97 129 111 124 114 122 c 1
 133 215 97 215 184 411 c 1
 222 493 250 535 279 616 c 0
 285 631 288 647 289 652 c 0
 289 653 288 653 286 653 c 0xa8
 281 653 272 650 256 650 c 0
 242 650 222 653 196 665 c 1
 186 671 182 676 182 684 c 0
 182 687 182 690 183 693 c 1
 201 742 l 2
 206 753 212 758 224 758 c 0x98
 241 759 255 759 267 759 c 0xa8
 302 759 321 757 336 757 c 0
 345 757 353 758 362 760 c 0
 364 760 367 761 369 761 c 0
 371 761 373 760 375 760 c 0
 383 758 391 757 400 757 c 0
 416 757 434 760 454 760 c 0
 482 760 514 754 544 728 c 0
 550 722 553 716 552 707 c 1
 552 707 555 700 555 690 c 0
 555 680 552 667 538 655 c 0
 521 640 504 635 490 635 c 0
 478 635 468 639 464 644 c 1
 427 588 451 568 382 408 c 0
 378 398 281 166 271 141 c 1
 272 134 268 140 269 131 c 0
 270 116 282 112 300 112 c 0
 319 112 344 116 371 116 c 0
 401 116 420 125 453 132 c 1
 497 151 478 184 572 264 c 0
 579 269 585 271 593 270 c 2
 629 264 l 1
 643 260 649 256 650 242 c 0
 650 237 650 231 650 226 c 0
 650 159 628 86 592 33 c 0
 589 29 585 26 579 24 c 0
 538 10 499 7 461 6 c 1xc8
EndSplineSet
Validated: 1
EndChar

StartChar: lcommaaccent
Encoding: 316 316 111
Width: 302
Flags: W
HStem: 740 20G<296 331.5>
VStem: 216 216<655.468 728.216>
LayerCount: 2
Fore
SplineSet
28 23 m 1
 25 26 23 30 23 36 c 0
 23 38 23 41 23 43 c 0
 23 91 48 160 48 160 c 1
 183 449 l 1
 222 530 254 553 271 628 c 1
 269 627 266 627 262 627 c 0
 252 627 236 632 223 655 c 0
 218 665 216 674 216 683 c 0
 216 727 270 760 322 760 c 0
 341 760 359 756 375 746 c 1
 421 736 432 709 432 680 c 0
 432 661 427 640 424 623 c 0
 420 600 343 462 304 352 c 0
 298 336 260 265 225 184 c 1
 243 188 258 189 269 189 c 0
 294 189 306 182 316 168 c 0
 321 160 323 152 323 145 c 0
 323 123 306 107 306 106 c 0
 304 100 300 96 294 92 c 0
 272 80 255 72 238 64 c 1
 269 33 278 -2 278 -38 c 0
 278 -77 266 -116 254 -152 c 1
 235 -204 200 -226 165 -253 c 0
 149 -265 132 -277 106 -282 c 1
 106 -282 82 -285 55 -285 c 0
 18 -285 -25 -279 -25 -253 c 0
 -25 -245 -22 -237 -15 -226 c 0
 31 -160 63 -158 96 -132 c 0
 113 -119 118 -119 120 -113 c 1
 119 -113 107 -118 93 -118 c 0
 78 -118 58 -113 43 -94 c 0
 25 -73 16 -49 16 -24 c 0
 16 -9 21 8 28 23 c 1
EndSplineSet
Validated: 1
EndChar

StartChar: Lslash
Encoding: 321 321 116
Width: 622
VWidth: 1080
Flags: W
HStem: 0 129<43.0112 113.851> 7 105<268.877 456.946> 184 87<-44.73 37> 553 76<573.606 676.854> 635 125<464.192 531.242> 653 106<199.617 288.999> 665 93<198.75 255.339>
LayerCount: 2
Fore
SplineSet
184 411 m 0xb0
 222 493 250 535 279 616 c 0
 285 631 288 647 289 652 c 0
 289 653 288 653 286 653 c 0xb4
 281 653 272 650 256 650 c 0
 242 650 222 653 196 665 c 1
 186 671 182 676 182 684 c 0
 182 687 182 690 183 693 c 1
 201 742 l 2
 206 753 212 758 224 758 c 0x32
 241 759 255 759 267 759 c 0x34
 302 759 321 757 336 757 c 0
 345 757 353 758 362 760 c 0
 364 760 367 761 369 761 c 0
 371 761 373 760 375 760 c 0
 383 758 391 757 400 757 c 0
 416 757 434 760 454 760 c 0
 482 760 514 754 544 728 c 0
 550 722 553 716 552 707 c 1
 552 707 555 700 555 690 c 0
 555 680 552 667 538 655 c 0
 521 640 504 635 490 635 c 0
 478 635 468 639 464 644 c 1
 434 599 444 577 414 489 c 1
 507 544 487 541 536 571 c 1
 532 575 530 584 532 589 c 0
 532 590 533 592 534 593 c 0
 542 608 560 618 573 623 c 0
 576 624 595 628 597 628 c 0
 612 629 621 629 627 629 c 0
 639 629 637 628 645 628 c 0
 659 628 664 623 689 612 c 0
 693 611 694 609 694 605 c 0
 694 601 692 596 689 590 c 0
 682 578 668 566 653 559 c 0
 645 555 638 553 633 553 c 0
 623 553 619 556 618 556 c 1
 491 484 600 545 382 408 c 1
 378 398 281 166 271 141 c 1
 272 134 268 140 269 131 c 0
 270 116 282 112 300 112 c 0
 319 112 344 116 371 116 c 0
 401 116 420 125 453 132 c 1
 497 151 478 184 572 264 c 0
 579 269 585 271 593 270 c 2
 629 264 l 1
 643 260 649 256 650 242 c 0
 650 237 650 231 650 226 c 0
 650 159 628 86 592 33 c 0
 589 29 585 26 579 24 c 0
 533 9 491 6 448 6 c 0
 420 6 391 7 360 7 c 0
 350 7 341 7 331 7 c 0x78
 265 5 213 0 157 0 c 0
 121 0 84 1 41 8 c 1
 25 13 20 17 20 33 c 0
 20 38 14 52 14 68 c 0
 14 82 18 97 33 111 c 0
 48 125 66 129 80 129 c 0
 97 129 111 124 114 122 c 1
 122 159 120 182 122 208 c 1
 109 201 96 196 90 192 c 0
 85 189 81 187 76 187 c 0
 36 187 17 184 -9 184 c 0
 -22 184 -36 185 -55 187 c 0
 -59 188 -61 190 -61 194 c 0
 -62 196 -70 201 -70 211 c 0
 -70 216 -69 221 -65 227 c 0
 -64 229 -61 232 -60 235 c 0
 -43 256 -16 263 0 268 c 0
 6 270 9 271 13 271 c 0
 29 271 36 265 37 265 c 2
 152 333 l 1
 160 355 171 381 184 411 c 0xb0
EndSplineSet
Validated: 1
EndChar

StartChar: lslash
Encoding: 322 322 117
Width: 394
VWidth: 1000
Flags: W
HStem: 288 58<-30.003 41> 535 49<510.048 564.21> 574 12<561.035 564.875> 740 20G<316 351.5>
VStem: 236 216<638.053 728.216>
LayerCount: 2
Fore
SplineSet
-45 294 m 1xd8
 -47 296 -48 297 -48 301 c 0
 -48 305 -45 312 -32 322 c 0
 -11 340 20 346 26 346 c 0
 37 346 40 342 41 342 c 2
 185 411 l 1
 203 449 l 1
 242 530 274 553 291 628 c 1
 289 627 286 627 282 627 c 0
 257 627 236 656 236 683 c 0
 236 727 290 760 342 760 c 0
 361 760 379 756 395 746 c 1
 441 736 452 709 452 680 c 0
 452 622 431 591 392 510 c 1
 429 529 427 531 459 546 c 1
 459 548 459 549 459 550 c 0
 459 566 498 584 516 584 c 0xd8
 527 585 533 586 537 586 c 0xb8
 545 586 543 584 548 584 c 0xd8
 557 584 560 582 573 574 c 0xb8
 574 574 575 573 575 572 c 0
 575 563 542 535 519 535 c 0
 513 535 511 536 510 537 c 0
 420 495 474 520 373 469 c 1
 355 430 337 390 324 352 c 0
 318 336 280 265 245 184 c 1
 263 188 278 189 289 189 c 0
 338 189 343 155 343 145 c 0
 343 123 326 107 326 106 c 0
 319 86 263 72 214 40 c 0
 212 38 210 38 208 37 c 0
 179 27 157 5 109 3 c 0
 108 3 107 3 106 3 c 0
 83 3 68 13 61 15 c 0
 49 19 44 24 43 36 c 1
 43 43 l 2
 43 91 68 160 68 160 c 1
 163 364 l 1
 110 337 l 2
 110 337 109 336 107 335 c 1
 115 334 112 327 106 321 c 0
 88 303 46 291 45 291 c 0
 18 291 4 288 -13 288 c 0
 -40 288 -45 291 -45 294 c 1xd8
EndSplineSet
Validated: 1
EndChar

StartChar: Ncommaaccent
Encoding: 325 325 120
Width: 763
Flags: W
HStem: 0 157<59.0218 165.852> 8 159<327.095 397.586> 623 143<242.55 311.859> 635 131<666.798 753.758 905.056 975.603> 644 123<877.695 937.159>
VStem: 470 262<-34.1341 73.1086> 650 342<656.657 756.999>
LayerCount: 2
Fore
SplineSet
439 -173 m 0x0c
 485 -107 517 -105 550 -79 c 0
 567 -66 572 -66 574 -60 c 1
 573 -60 561 -65 547 -65 c 0
 532 -65 512 -60 497 -41 c 0
 479 -20 470 4 470 29 c 0
 470 44 474 60 481 75 c 0
 496 107 522 120 547 128 c 1
 545 139 542 149 538 159 c 0
 501 247 489 298 460 381 c 1
 436 433 422 470 415 496 c 1
 415 447 383 341 374 314 c 0
 355 258 338 232 330 181 c 0
 328 172 327 167 327 165 c 1
 329 166 333 167 339 167 c 0
 362 167 408 156 424 116 c 0
 428 107 429 99 429 92 c 0
 429 58 399 35 394 24 c 0
 387 11 377 8 353 8 c 0x4c
 332 8 301 10 253 10 c 0
 236 10 216 10 194 9 c 0
 192 9 191 9 189 9 c 0
 185 10 181 10 177 10 c 0
 151 10 121 0 87 0 c 0
 70 0 51 2 32 11 c 1
 19 20 16 25 19 39 c 0
 24 59 14 97 50 128 c 0
 77 152 109 157 133 157 c 0
 150 157 163 154 166 154 c 1
 184 236 191 294 241 448 c 1
 270 543 266 556 310 615 c 1
 312 625 l 1
 309 624 305 623 299 623 c 0xa4
 286 623 265 627 228 641 c 1
 215 648 212 654 212 668 c 1
 224 733 l 1
 227 743 231 748 241 752 c 0
 274 762 311 766 347 766 c 0
 391 766 435 761 474 756 c 0
 480 756 484 754 489 750 c 0
 568 674 554 617 596 517 c 0
 623 455 639 406 649 371 c 1
 654 403 666 445 688 487 c 1
 708 537 722 564 739 615 c 0
 747 640 759 643 754 642 c 0
 749 641 734 633 715 633 c 0
 701 633 683 638 666 656 c 0
 653 670 650 685 650 698 c 0
 650 713 654 726 654 732 c 0
 655 746 658 753 672 757 c 0
 699 766 723 768 746 768 c 0
 770 768 793 766 818 766 c 0
 823 766 829 766 835 766 c 0
 837 766 839 766 841 766 c 0x12
 850 765 858 764 866 764 c 0
 888 764 909 767 931 767 c 0x0a
 939 767 946 767 954 766 c 1
 968 762 974 758 976 744 c 0
 977 738 992 717 992 692 c 0
 992 679 988 665 975 652 c 0
 963 639 949 635 938 635 c 0x12
 920 635 906 644 905 644 c 0
 835 600 877 589 807 414 c 1
 771 311 784 196 721 74 c 1
 729 55 732 35 732 15 c 0
 732 -24 720 -63 708 -99 c 1
 689 -151 654 -173 619 -200 c 0
 603 -212 586 -224 560 -229 c 1
 560 -229 536 -232 509 -232 c 0
 472 -232 429 -226 429 -200 c 0
 429 -192 432 -184 439 -173 c 0x0c
EndSplineSet
Validated: 1
EndChar

StartChar: ncommaaccent
Encoding: 326 326 121
Width: 527
Flags: W
HStem: 514 20G<259.5 282.5 441.5 462>
VStem: 251 262<-67.1341 59.4512> 394 150<292.11 423.5>
LayerCount: 2
Fore
SplineSet
220 -206 m 0xc0
 266 -140 298 -138 331 -112 c 0
 348 -99 353 -99 355 -93 c 1
 354 -93 342 -98 328 -98 c 0
 313 -98 293 -93 278 -74 c 0
 260 -53 251 -29 251 -4 c 0xc0
 251 11 255 27 262 42 c 0
 270 59 281 70 293 79 c 1
 292 84 292 91 292 98 c 0
 292 113 332 185 352 238 c 1
 359 273 376 286 385 328 c 0
 389 349 394 363 394 372 c 0
 394 377 392 380 388 381 c 1
 381 381 360 327 343 293 c 0
 303 214 242 89 242 89 c 1
 238 85 236 8 182 0 c 0
 174 -1 165 0 157 0 c 0
 110 0 66 19 52 88 c 0
 51 92 51 95 52 99 c 0
 75 189 109 200 126 240 c 1
 147 286 166 297 167 328 c 1
 161 316 145 298 121 298 c 0
 113 298 106 299 97 303 c 0
 74 313 70 334 70 348 c 0
 70 356 71 361 71 361 c 2
 71 363 70 365 70 367 c 0
 70 408 166 475 185 494 c 0
 187 495 189 497 191 498 c 0
 215 512 243 534 276 534 c 0
 289 534 303 530 318 521 c 0
 330 514 345 471 346 449 c 1
 365 466 l 1
 384 488 l 2
 387 490 390 492 394 493 c 0
 402 495 426 521 457 521 c 0
 467 521 478 518 489 512 c 0
 534 486 544 444 544 403 c 0xa0
 544 384 542 365 540 348 c 0
 533 282 489 258 479 222 c 1
 517 222 545 190 545 151 c 0
 545 146 544 141 543 135 c 0
 535 97 506 82 485 70 c 1
 506 42 513 13 513 -18 c 0
 513 -57 501 -96 489 -132 c 1
 470 -184 435 -206 400 -233 c 0
 384 -245 367 -257 341 -262 c 1
 341 -262 317 -265 290 -265 c 0
 253 -265 210 -259 210 -233 c 0
 210 -225 213 -217 220 -206 c 0xc0
EndSplineSet
Validated: 1
EndChar

StartChar: Eng
Encoding: 330 330 125
Width: 763
VWidth: 1080
Flags: W
HStem: 0 157<59.0218 165.852> 8 159<327.095 397.586> 623 143<242.55 311.859> 635 131<666.798 753.758 905.056 975.603> 644 123<877.695 937.159>
VStem: 650 342<656.657 756.999>
LayerCount: 2
Fore
SplineSet
654 732 m 0x14
 655 746 658 753 672 757 c 0
 699 766 723 768 746 768 c 0
 770 768 793 766 818 766 c 0
 823 766 829 766 835 766 c 0
 837 766 839 766 841 766 c 0x14
 850 765 858 764 866 764 c 0
 888 764 909 767 931 767 c 0x0c
 939 767 946 767 954 766 c 1
 968 762 974 758 976 744 c 0
 977 738 992 717 992 692 c 0
 992 679 988 665 975 652 c 0
 963 639 949 635 938 635 c 0x14
 920 635 906 644 905 644 c 1
 835 600 877 589 807 414 c 1
 767 299 768 180 696 30 c 0
 680 -4 624 -127 556 -207 c 1
 552 -207 522 -242 506 -242 c 1
 519 -174 608 -6 608 19 c 0
 608 21 608 22 607 22 c 0
 547 59 555 117 538 159 c 0
 501 247 489 298 460 381 c 1
 436 433 422 470 415 496 c 1
 415 447 383 341 374 314 c 0
 355 258 338 232 330 181 c 0
 328 172 327 167 327 165 c 1
 329 166 333 167 339 167 c 0
 362 167 408 156 424 116 c 0
 428 107 429 99 429 92 c 0
 429 58 399 35 394 24 c 1
 387 11 377 8 353 8 c 0x4c
 332 8 301 10 253 10 c 0
 236 10 216 10 194 9 c 0
 192 9 191 9 189 9 c 0
 185 10 181 10 177 10 c 0
 151 10 121 0 87 0 c 0
 70 0 51 2 32 11 c 1
 19 20 16 25 19 39 c 0
 24 59 14 97 50 128 c 0
 77 152 109 157 133 157 c 0
 150 157 163 154 166 154 c 1
 184 236 191 294 241 448 c 1
 270 543 266 556 310 615 c 1
 312 625 l 1
 309 624 305 623 299 623 c 0xa4
 286 623 265 627 228 641 c 1
 215 648 212 654 212 668 c 1
 224 733 l 2
 227 743 231 748 241 752 c 0
 274 762 311 766 347 766 c 0
 391 766 435 761 474 756 c 0
 480 756 484 754 489 750 c 0
 568 674 554 617 596 517 c 0
 623 455 639 406 649 371 c 1
 654 403 666 445 688 487 c 1
 708 537 722 564 739 615 c 0
 747 640 759 643 754 642 c 0
 749 641 734 633 715 633 c 0
 701 633 683 638 666 656 c 0
 653 670 650 685 650 698 c 0
 650 713 654 726 654 732 c 0x14
EndSplineSet
Validated: 1
EndChar

StartChar: eng
Encoding: 331 331 126
Width: 495
VWidth: 1000
Flags: W
HStem: 514 20G<259.5 282.5 441.5 462>
VStem: 394 150<288.747 423.5>
LayerCount: 2
Fore
SplineSet
498 215 m 24
 468 136 432 35 414 16 c 0
 411 13 319 -112 296 -132 c 0
 245 -177 191 -227 149 -227 c 0
 142 -227 135 -225 129 -222 c 1
 127 -221 125 -216 125 -207 c 0
 125 -193 131 -169 150 -140 c 1
 167 -115 271 63 292 98 c 0
 301 113 332 185 352 238 c 1
 359 273 376 286 385 328 c 0
 389 349 394 363 394 372 c 0
 394 377 392 380 388 381 c 0
 381 381 360 327 343 293 c 24
 303 214 242 89 242 89 c 0
 238 85 236 8 182 0 c 0
 174 -1 165 0 157 0 c 0
 110 0 66 19 52 88 c 0
 51 92 51 95 52 99 c 0
 75 189 109 200 126 240 c 0
 147 286 166 297 167 328 c 1
 161 316 145 298 121 298 c 0
 113 298 106 299 97 303 c 0
 74 313 70 334 70 348 c 0
 70 356 71 361 71 361 c 0
 71 363 70 365 70 367 c 0
 70 408 166 475 185 494 c 0
 187 495 189 497 191 498 c 0
 215 512 243 534 276 534 c 0
 289 534 303 530 318 521 c 0
 330 514 345 471 346 449 c 1
 365 466 l 1
 384 488 l 2
 387 490 390 492 394 493 c 0
 402 495 426 521 457 521 c 0
 467 521 478 518 489 512 c 0
 534 486 544 444 544 403 c 0
 544 384 542 365 540 348 c 0
 533 282 517 266 498 215 c 24
EndSplineSet
Validated: 1
EndChar

StartChar: OE
Encoding: 338 338 131
Width: 1152
VWidth: 1080
Flags: W
HStem: -4 75<319.418 467.485> 12 169<1005.89 1099.31> 15 103<816.601 986.966> 353 87<872.005 913.751> 516 21G<1150.5 1168> 518 20G<1023 1038> 636 108<410.191 453.766 930.188 1074.46> 682 83<483.625 613.405>
VStem: 79 139<181.862 428.458> 689 183<440.14 514.476> 905 162<266.616 351.762>
LayerCount: 2
Fore
SplineSet
505 12 m 1x50e0
 495 9 484 7 472 5 c 0
 439 -0 410 -4 381 -4 c 0
 356 -4 330 -1 300 6 c 0
 241 20 216 48 174 70 c 0
 172 71 171 72 169 73 c 0
 99 134 91 189 79 285 c 0
 79 286 79 286 79 287 c 0
 78 311 76 333 76 354 c 0
 76 391 80 425 92 469 c 0
 108 529 122 573 169 623 c 0
 226 683 279 701 350 730 c 0
 361 734 367 735 371 736 c 0
 374 736 384 645 384 629 c 1
 344 587 315 569 282 521 c 0
 256 483 253 456 234 414 c 1
 225 366 218 326 218 287 c 0
 218 249 225 211 246 168 c 1
 287 133 299 95 350 77 c 0
 362 73 372 71 383 71 c 0
 394 71 406 73 420 77 c 0
 495 97 535 128 588 185 c 0
 611 210 626 233 638 258 c 1
 642 271 647 285 654 300 c 1
 658 313 662 327 666 343 c 0
 679 394 689 434 689 476 c 0
 689 503 685 531 676 563 c 0
 663 608 649 637 610 664 c 0
 592 677 576 682 556 682 c 0x91e0
 550 682 544 682 538 681 c 0
 488 676 471 644 454 636 c 1
 449 635 445 635 442 635 c 0
 434 635 427 636 418 636 c 1x12e0
 415 639 396 703 396 734 c 0
 396 743 398 749 402 750 c 0
 430 755 459 763 491 763 c 0
 494 763 498 763 501 763 c 0
 512 765 521 765 530 765 c 0x11e0
 577 765 608 746 646 726 c 0
 647 726 648 725 649 725 c 0
 652 723 655 720 659 718 c 1
 662 722 664 725 664 725 c 0
 668 736 673 741 686 742 c 0
 749 748 810 745 885 753 c 0
 887 753 889 753 891 753 c 0
 928 749 946 745 979 744 c 0
 983 744 987 744 990 744 c 0
 1020 744 1040 747 1077 748 c 0
 1089 748 1107 755 1127 755 c 0
 1140 755 1154 753 1169 744 c 0
 1218 716 1214 668 1226 645 c 0
 1228 643 1228 641 1229 638 c 0
 1231 625 1233 611 1233 595 c 0
 1233 579 1231 561 1221 541 c 1
 1215 532 1207 535 1198 528 c 0
 1197 527 1178 516 1158 516 c 0x1ae0
 1143 516 1127 522 1116 540 c 0
 1088 586 1088 609 1059 627 c 0
 1045 635 1033 637 1017 637 c 0
 1006 637 994 636 977 636 c 0
 976 636 974 636 973 636 c 0
 958 636 950 639 942 639 c 0
 938 639 934 639 930 636 c 1
 915 619 912 579 907 558 c 0
 894 502 872 472 872 448 c 0
 872 445 872 443 873 440 c 0
 874 440 889 435 909 435 c 0
 920 435 933 437 945 443 c 0
 960 451 939 495 986 526 c 0
 1001 536 1016 538 1030 538 c 0
 1046 538 1059 535 1068 535 c 0
 1069 535 1069 535 1070 535 c 0
 1087 534 1094 531 1097 515 c 0
 1099 505 1100 496 1100 488 c 0
 1100 435 1070 396 1067 354 c 0
 1067 351 1066 349 1065 347 c 0
 1052 318 1059 286 1034 244 c 0
 1032 241 1030 238 1027 236 c 0
 1013 227 996 221 978 221 c 0
 960 221 942 227 928 241 c 0
 926 243 924 246 923 248 c 0
 910 280 905 304 905 320 c 0
 905 337 910 347 914 352 c 1
 906 352 893 353 880 353 c 0
 867 353 853 352 844 351 c 1
 813 292 818 241 799 158 c 1
 804 154 823 130 841 124 c 0
 853 120 863 118 874 118 c 0x36e0
 886 118 899 121 918 125 c 0
 922 126 925 126 929 125 c 0
 941 123 949 121 955 121 c 0
 972 121 977 132 1016 169 c 0
 1020 173 1024 175 1030 176 c 0
 1037 177 1051 181 1066 181 c 0x50e0
 1081 181 1099 177 1112 161 c 0
 1124 147 1128 132 1128 118 c 0x30e0
 1128 83 1102 52 1099 32 c 1
 1095 19 1090 14 1076 12 c 0x50e0
 1066 11 1054 11 1041 11 c 0
 998 11 942 15 882 15 c 0x30e0
 857 15 831 14 806 12 c 1
 505 12 l 1x50e0
EndSplineSet
Validated: 1
EndChar

StartChar: oe
Encoding: 339 339 132
Width: 354
VWidth: 1000
Flags: W
HStem: 0 126<164.261 214.038 354.5 429.942> 407 114<467.039 556> 474 20G<278 306.5>
VStem: 42 122<123.521 255.918> 523 109<353.388 446.5>
LayerCount: 2
Fore
SplineSet
74 52 m 0xd8
 47 80 42 112 42 142 c 0
 42 153 43 163 43 173 c 0
 45 232 60 270 86 320 c 0
 117 380 137 444 214 477 c 0
 239 488 265 494 291 494 c 0xb8
 322 494 352 485 379 461 c 0
 384 457 388 452 391 447 c 1
 410 468 433 487 466 500 c 0
 488 509 516 521 546 521 c 0
 566 521 587 515 606 497 c 0
 625 478 632 457 632 436 c 0
 632 407 620 378 611 356 c 1
 594 308 563 288 531 262 c 0
 468 210 420 226 399 190 c 0
 394 181 392 172 392 164 c 0
 392 143 406 126 409 126 c 0
 422 126 424 147 463 169 c 0
 467 171 481 191 508 191 c 0
 511 191 514 190 517 190 c 0
 544 186 552 164 552 164 c 1
 556 159 559 155 560 148 c 0
 560 146 560 144 560 142 c 0
 560 78 431 23 429 22 c 0
 412 19 390 0 359 0 c 0
 350 0 340 3 329 7 c 0
 307 14 291 27 279 43 c 1
 266 31 249 20 227 14 c 0
 211 9 195 7 179 7 c 0
 140 7 104 22 74 52 c 0xd8
165 163 m 0
 164 153 164 144 164 138 c 0
 164 128 165 123 171 123 c 0
 176 123 183 126 194 132 c 0
 221 147 225 166 247 206 c 0
 274 255 287 280 294 331 c 0
 298 358 298 360 296 362 c 0
 292 367 286 369 269 363 c 0
 236 351 227 330 204 290 c 0
 177 243 168 216 165 163 c 0
447 316 m 1
 476 319 492 327 508 353 c 0
 518 370 523 381 523 390 c 0
 523 396 521 401 518 405 c 0
 517 406 516 407 511 407 c 0xd8
 508 407 502 406 493 403 c 0
 474 396 467 388 454 363 c 1
 451 349 451 334 447 316 c 1
EndSplineSet
Validated: 1
EndChar

StartChar: Rcommaaccent
Encoding: 342 342 133
Width: 667
Flags: W
HStem: 0 144<295.086 356.548> 4 128<33.4435 143.148> 655 110<243.981 298.499> 669 94<475.804 552.251>
VStem: 17 356<10.6895 115.25> 401 262<-70.7195 23.2969> 573 172<492.052 649.909>
LayerCount: 2
Fore
SplineSet
701 98 m 0x1a
 701 68 683 41 657 24 c 1
 661 9 663 -6 663 -21 c 0
 663 -60 651 -99 639 -135 c 1
 620 -187 585 -209 550 -236 c 0
 534 -248 517 -260 491 -265 c 1
 491 -265 467 -268 440 -268 c 0
 403 -268 360 -262 360 -236 c 0
 360 -228 363 -220 370 -209 c 0
 416 -143 448 -141 481 -115 c 0
 498 -102 503 -102 505 -96 c 1
 504 -96 492 -101 478 -101 c 0
 429 -101 401 -47 401 -7 c 0
 401 8 405 24 412 39 c 0
 427 72 455 85 480 92 c 1
 473 109 466 126 459 142 c 0
 433 197 386 231 386 308 c 2
 386 322 l 2
 386 330 388 320 368 315 c 0
 352 312 340 288 326 276 c 1
 318 178 294 172 294 147 c 2
 294 143 l 1
 296 144 299 144 303 144 c 0
 333 144 373 123 373 80 c 0
 373 57 360 37 359 27 c 0
 357 16 353 10 342 6 c 0
 330 2 317 0 305 0 c 0x9c
 275 0 243 9 210 9 c 0
 185 9 181 5 168 5 c 1
 159 6 150 7 141 7 c 0
 118 7 96 4 73 4 c 0
 45 4 30 5 27 29 c 0
 26 34 17 50 17 70 c 0
 17 108 53 132 88 132 c 0
 109 132 125 125 127 125 c 1
 179 205 152 243 226 407 c 1
 241 465 245 506 268 572 c 0
 282 610 298 618 299 637 c 0
 300 645 302 655 292 655 c 0
 281 655 264 646 243 646 c 0
 215 646 177 665 177 707 c 0
 177 714 178 720 178 723 c 0
 178 725 177 727 177 729 c 0
 177 748 200 765 257 765 c 0x6c
 292 765 333 760 375 760 c 0
 391 760 407 761 422 763 c 1
 429 763 l 1
 493 756 539 766 610 743 c 0
 648 730 690 722 718 677 c 0
 737 646 745 615 745 585 c 0
 745 556 738 527 725 497 c 0
 702 442 660 423 621 395 c 0
 593 376 574 375 558 364 c 0
 529 345 522 346 520 339 c 0
 520 337 519 335 519 333 c 0
 519 315 539 307 558 269 c 1
 589 211 586 179 623 153 c 1
 625 153 635 158 649 158 c 0
 691 158 701 113 701 98 c 0x1a
378 404 m 1
 381 404 412 418 447 424 c 0
 491 432 513 439 536 468 c 0
 562 501 573 530 573 565 c 0x1a
 573 580 571 597 567 615 c 0
 559 664 517 669 516 669 c 0
 479 669 454 614 444 597 c 0
 421 558 421 532 404 481 c 1
 381 452 393 426 378 404 c 1
EndSplineSet
Validated: 1
EndChar

StartChar: rcommaaccent
Encoding: 343 343 134
Width: 401
Flags: W
HStem: 456 20G<220.5 243 414 425.5>
VStem: 8 262<-121.134 5.88373>
LayerCount: 2
Fore
SplineSet
-23 -260 m 0
 23 -194 55 -192 88 -166 c 0
 105 -153 110 -153 112 -147 c 1
 111 -147 99 -152 85 -152 c 0
 70 -152 50 -147 35 -128 c 0
 17 -107 8 -83 8 -58 c 0
 8 -43 12 -27 19 -12 c 0
 25 0 32 10 40 17 c 1
 36 22 33 28 30 35 c 0
 26 45 24 55 24 64 c 0
 24 104 57 131 68 152 c 0
 101 220 139 240 155 297 c 0
 164 329 170 346 170 353 c 0
 170 356 170 357 168 358 c 1
 161 358 110 300 108 293 c 1
 99 290 92 288 87 288 c 0
 80 288 76 293 71 308 c 0
 67 319 66 328 66 337 c 0
 66 397 133 425 141 441 c 1
 187 470 l 1
 198 473 213 476 228 476 c 0
 258 476 289 465 301 421 c 1
 311 431 327 441 345 446 c 0
 353 449 367 467 402 469 c 0
 406 469 411 470 417 470 c 0
 434 470 458 466 471 441 c 0
 477 430 479 419 479 409 c 0
 479 378 457 353 446 336 c 0
 442 329 428 295 395 295 c 0
 393 295 391 295 389 295 c 0
 359 298 373 308 364 331 c 0
 361 338 358 341 354 341 c 0
 337 341 311 269 271 215 c 0
 231 162 222 119 175 58 c 2
 174 56 l 1
 193 55 211 48 228 32 c 0
 260 -0 270 -35 270 -72 c 0
 270 -111 258 -150 246 -186 c 1
 227 -238 192 -260 157 -287 c 0
 141 -299 124 -311 98 -316 c 1
 98 -316 74 -319 47 -319 c 0
 10 -319 -33 -313 -33 -287 c 0
 -33 -279 -30 -271 -23 -260 c 0
EndSplineSet
Validated: 1
EndChar

StartChar: Scedilla
Encoding: 350 350 141
Width: 449
Flags: W
HStem: 642 121<313.34 405.23>
VStem: 36 155<118 276.691> 44 147<147.265 273.55> 145 144<504.204 617.765> 172 262<-80.1341 23.3445> 346 134<133.917 276.353> 431 128<510.266 596.812>
LayerCount: 2
Fore
SplineSet
141 -219 m 0x88
 187 -153 219 -151 252 -125 c 0
 269 -112 274 -112 276 -106 c 1
 275 -106 263 -111 249 -111 c 0
 234 -111 214 -106 199 -87 c 0
 181 -66 172 -42 172 -17 c 0x88
 172 -3 175 10 180 24 c 1
 142 45 139 77 123 84 c 1
 120 84 105 76 86 76 c 0
 73 76 58 80 44 95 c 0xa0
 38 102 36 112 36 124 c 0xc0
 36 150 44 183 44 208 c 0
 44 211 44 214 44 217 c 0xa0
 44 219 57 300 85 344 c 0
 91 353 106 360 124 360 c 0
 146 360 173 350 192 323 c 0
 204 306 208 290 208 275 c 0
 208 244 191 217 191 196 c 0
 191 193 192 189 193 186 c 0
 207 150 220 132 253 118 c 0
 257 117 261 116 267 116 c 0
 290 116 326 128 330 135 c 0
 341 154 346 172 346 190 c 0xc4
 346 216 336 243 323 278 c 0
 300 336 221 347 186 435 c 0
 180 450 145 506 145 568 c 0
 145 590 149 614 162 637 c 0
 193 692 229 729 293 751 c 0
 318 759 341 763 364 763 c 0
 396 763 427 755 460 740 c 0
 515 714 525 672 553 643 c 0
 557 638 559 633 559 626 c 0
 557 571 544 516 522 480 c 1
 515 471 508 468 496 468 c 1
 457 474 l 2
 443 477 437 481 435 494 c 0
 432 513 431 527 431 538 c 0x92
 431 565 437 575 437 585 c 0
 437 589 436 593 434 597 c 1x88
 417 613 411 627 398 633 c 0
 384 639 374 642 365 642 c 0
 358 642 352 641 344 638 c 0
 313 626 299 610 291 578 c 0
 289 572 289 567 289 562 c 0
 289 544 297 530 312 502 c 0
 347 435 427 420 463 325 c 0
 475 294 480 266 480 238 c 0x94
 480 209 474 180 463 147 c 0
 451 111 437 77 411 50 c 1
 428 25 434 -2 434 -31 c 0
 434 -70 422 -109 410 -145 c 1
 391 -197 356 -219 321 -246 c 0
 305 -258 288 -270 262 -275 c 1
 262 -275 238 -278 211 -278 c 0
 174 -278 131 -272 131 -246 c 0
 131 -238 134 -230 141 -219 c 0x88
EndSplineSet
Validated: 1
EndChar

StartChar: scedilla
Encoding: 351 351 142
Width: 324
Flags: W
HStem: 336 172<260.387 358.109>
VStem: 0 261<-129.936 0.453125> 184 129<148.078 248.348>
LayerCount: 2
Fore
SplineSet
217 26 m 1xa0
 219 25 l 0
 251 -7 261 -42 261 -79 c 0
 261 -118 249 -157 237 -193 c 1
 218 -245 183 -267 148 -294 c 0
 132 -306 115 -318 89 -323 c 1
 89 -323 65 -326 38 -326 c 0
 1 -326 -42 -320 -42 -294 c 0
 -42 -286 -39 -278 -32 -267 c 0
 14 -201 46 -199 79 -173 c 0
 96 -160 101 -160 103 -154 c 1
 102 -154 90 -159 76 -159 c 0
 61 -159 41 -154 26 -135 c 0
 8 -114 0 -90 0 -65 c 0xc0
 0 -50 3 -34 10 -19 c 0
 20 3 35 16 53 24 c 1
 33 43 24 68 24 93 c 0
 24 139 54 183 103 183 c 0
 109 183 116 183 123 181 c 0
 150 175 150 167 151 156 c 0
 152 136 169 149 171 150 c 0
 181 159 184 169 184 180 c 0
 184 216 144 263 144 330 c 0
 144 337 144 345 145 352 c 0
 148 374 145 397 161 427 c 0
 173 451 189 471 218 484 c 0
 240 494 270 508 300 508 c 0
 320 508 340 502 359 486 c 1
 379 467 390 442 390 416 c 0
 390 395 382 374 368 357 c 0
 355 341 337 336 319 336 c 0
 293 336 268 348 260 357 c 1
 256 353 254 348 256 340 c 1
 259 340 281 338 295 304 c 0
 308 273 313 245 313 217 c 0
 313 187 307 157 296 125 c 0
 281 83 261 48 217 26 c 1xa0
EndSplineSet
Validated: 1
EndChar

StartChar: Tcedilla
Encoding: 354 354 145
Width: 660
Flags: W
HStem: 472 20G<259 275.5> 601 133<577.571 649.111> 610 124<570.174 645.368> 632 109<313.425 438.763>
VStem: 102 218<387.748 480.609> 102 120<481.233 542.133> 239 262<-69.1341 11.2649>
LayerCount: 2
Fore
SplineSet
208 -208 m 0xa6
 254 -142 286 -140 319 -114 c 0
 336 -101 341 -101 343 -95 c 1
 342 -95 330 -100 316 -100 c 0
 301 -100 281 -95 266 -76 c 0
 248 -55 239 -31 239 -6 c 0
 239 -2 240 3 240 8 c 1
 227 9 213 12 197 16 c 0
 185 20 181 25 179 36 c 0
 178 41 162 61 162 86 c 0
 162 98 166 112 179 124 c 0
 193 138 211 142 227 142 c 0
 250 142 270 134 275 130 c 1
 280 148 298 242 379 444 c 1
 403 499 423 524 435 575 c 0
 439 591 439 621 439 621 c 1
 434 622 425 632 398 632 c 0
 382 632 361 628 330 618 c 1
 297 606 286 590 256 556 c 0
 234 531 224 523 222 503 c 0x96
 221 489 223 486 229 481 c 1
 231 481 249 492 269 492 c 0
 282 492 297 487 309 470 c 0
 317 459 320 448 320 436 c 0x98
 320 391 265 346 207 346 c 0
 189 346 172 350 156 359 c 0
 109 384 108 430 103 465 c 0
 102 470 102 476 102 483 c 0
 102 526 119 598 199 671 c 0
 265 731 325 741 381 741 c 0x94
 413 741 444 738 473 738 c 0
 476 738 479 738 482 738 c 0
 485 738 489 738 492 738 c 0
 535 738 565 734 598 734 c 0
 614 734 631 735 650 738 c 0
 658 739 677 763 710 763 c 0
 718 763 727 761 736 758 c 0
 768 747 793 720 793 686 c 0
 793 681 793 677 792 672 c 0
 783 628 737 619 712 611 c 0
 687 603 665 601 647 601 c 0xc4
 612 601 589 610 577 610 c 1
 562 582 574 531 531 420 c 1
 509 357 498 319 474 254 c 0
 450 189 421 167 418 110 c 1
 423 114 434 119 447 119 c 0
 459 119 473 115 485 101 c 0
 493 91 496 81 496 72 c 0
 496 61 492 51 488 43 c 1
 498 23 501 2 501 -20 c 0
 501 -59 489 -98 477 -134 c 1
 458 -186 423 -208 388 -235 c 0
 372 -247 355 -259 329 -264 c 1
 329 -264 305 -267 278 -267 c 0
 241 -267 198 -261 198 -235 c 0
 198 -227 201 -219 208 -208 c 0xa6
EndSplineSet
Validated: 1
EndChar

StartChar: tcedilla
Encoding: 355 355 146
Width: 338
Flags: W
HStem: 497 20G<154.5 170.5>
VStem: 37 279<95.6577 194.215> 42 262<-12.1341 67.7188> 77 331<387.848 485.033>
LayerCount: 2
Fore
SplineSet
11 -151 m 0xa0
 57 -85 89 -83 122 -57 c 0
 139 -44 144 -44 146 -38 c 1
 145 -38 133 -43 119 -43 c 0
 104 -43 84 -38 69 -19 c 0
 51 2 42 26 42 51 c 0
 42 56 43 62 44 68 c 1
 43 70 43 72 42 74 c 0xa0
 38 88 37 101 37 113 c 0xc0
 37 173 75 215 92 263 c 1
 112 315 127 324 142 378 c 1
 137 376 132 375 127 375 c 0
 101 375 77 400 77 432 c 0
 77 451 86 474 109 495 c 0
 128 512 147 517 162 517 c 0
 179 517 191 510 193 510 c 1
 200 518 199 524 211 593 c 0
 212 600 216 605 223 609 c 0
 232 615 248 645 287 645 c 0
 288 645 288 645 289 645 c 0
 327 644 342 613 350 606 c 1
 360 599 373 571 373 542 c 0
 373 527 369 512 359 500 c 1
 392 496 408 471 408 444 c 0x90
 408 422 398 398 379 381 c 0
 364 368 347 364 333 364 c 0
 318 364 306 369 303 371 c 1
 263 307 238 306 209 195 c 1
 226 211 243 217 259 217 c 0
 291 217 316 191 316 156 c 0xc0
 316 153 315 149 315 146 c 0
 312 125 304 109 293 95 c 1
 301 77 304 57 304 37 c 0
 304 -2 292 -41 280 -77 c 1
 261 -129 226 -151 191 -178 c 0
 175 -190 158 -202 132 -207 c 1
 132 -207 108 -210 81 -210 c 0
 44 -210 0 -204 0 -178 c 0
 0 -170 4 -162 11 -151 c 0xa0
EndSplineSet
Validated: 1
EndChar

StartChar: Tbar
Encoding: 358 358 149
Width: 660
VWidth: 1080
Flags: W
HStem: 6 113<418.239 479.244> 7 135<180.995 274.755> 472 20G<259 274.5> 601 133<577.571 649.111> 610 124<569.874 645.368> 632 109<313.425 438.763>
VStem: 102 120<481.233 542.133>
LayerCount: 2
Fore
SplineSet
229 481 m 1x26
 231 481 249 492 269 492 c 0
 280 492 293 488 304 476 c 1
 329 498 357 500 382 500 c 0
 389 500 395 500 401 500 c 2
 406 500 l 1
 418 524 428 545 435 575 c 0
 439 591 439 621 439 621 c 1
 434 622 425 632 398 632 c 0
 382 632 361 628 330 618 c 1
 297 606 286 590 256 556 c 0
 234 531 224 523 222 503 c 0
 221 489 223 486 229 481 c 1x26
336 331 m 1
 318 339 301 352 286 372 c 2
 285 374 l 1
 264 357 236 346 207 346 c 0
 189 346 172 350 156 359 c 0
 109 384 108 430 103 465 c 0
 102 470 102 476 102 483 c 0
 102 526 119 598 199 671 c 0
 265 731 325 741 381 741 c 0x66
 413 741 444 738 473 738 c 0
 476 738 479 738 482 738 c 0
 485 738 489 738 492 738 c 0
 535 738 565 734 598 734 c 0
 614 734 631 735 650 738 c 0
 658 739 677 763 710 763 c 0
 718 763 727 761 736 758 c 0
 768 747 793 720 793 686 c 0
 793 681 793 677 792 672 c 0
 783 628 737 619 712 611 c 0
 687 603 665 601 647 601 c 0x32
 612 601 589 610 577 610 c 1
 566 590 569 559 556 502 c 1
 571 497 584 489 596 473 c 0
 608 457 616 437 616 416 c 0
 616 401 612 386 603 372 c 0
 576 332 536 327 499 326 c 1
 474 254 l 1
 450 189 421 167 418 110 c 1
 423 114 434 119 447 119 c 0
 459 119 473 115 485 101 c 0
 493 91 496 81 496 72 c 0
 496 48 479 28 478 27 c 0
 473 10 461 6 440 6 c 0xaa
 422 6 398 9 365 9 c 0
 355 9 343 9 330 8 c 0
 328 7 326 7 324 8 c 0
 319 9 315 9 310 9 c 0
 296 9 280 7 261 7 c 0
 243 7 222 9 197 16 c 0
 185 20 181 25 179 36 c 0
 178 41 162 61 162 86 c 0
 162 98 166 112 179 124 c 0
 193 138 211 142 227 142 c 0x62
 250 142 270 134 275 130 c 1
 279 144 291 206 336 331 c 1
EndSplineSet
Validated: 1
EndChar

StartChar: tbar
Encoding: 359 359 150
Width: 338
VWidth: 1080
Flags: W
HStem: 497 20G<154.5 170.5>
VStem: 77 331<387.848 485.033>
LayerCount: 2
Fore
SplineSet
193 510 m 1
 200 518 199 524 211 593 c 0
 212 600 216 605 223 609 c 0
 232 615 248 645 287 645 c 0
 288 645 288 645 289 645 c 0
 327 644 342 613 350 606 c 1
 360 599 373 571 373 542 c 0
 373 527 369 512 359 500 c 1
 392 496 408 471 408 444 c 0
 408 422 398 398 379 381 c 0
 364 368 347 364 333 364 c 0
 318 364 306 369 303 371 c 1
 293 356 285 344 276 333 c 1
 340 325 352 302 352 288 c 0
 352 249 266 244 224 243 c 1
 219 230 214 214 209 195 c 1
 226 211 243 217 259 217 c 0
 291 217 316 191 316 156 c 0
 316 153 315 149 315 146 c 0
 304 76 242 57 201 33 c 0
 183 22 161 4 130 4 c 0
 123 4 117 4 110 6 c 0
 74 14 51 40 42 74 c 0
 38 88 37 101 37 113 c 0
 37 165 66 204 84 245 c 1
 40 251 8 268 8 287 c 0
 8 304 35 330 118 330 c 2
 124 330 l 1
 130 343 136 357 142 378 c 1
 137 376 132 375 127 375 c 0
 101 375 77 400 77 432 c 0
 77 451 86 474 109 495 c 0
 128 512 147 517 162 517 c 0
 179 517 191 510 193 510 c 1
EndSplineSet
Validated: 1
EndChar

StartChar: Uogonek
Encoding: 370 370 161
Width: 756
Flags: W
HStem: -120 105<498.538 552.151> -120 74<477.097 507.327> 603 147<827.004 882.295> 628 130<150.936 212.586 403.005 451.484> 628 122<599.752 695.466>
VStem: 85 170<150.863 324.291> 126 363<651.282 741.399> 383 84<-41.6603 -3.53906>
LayerCount: 2
Fore
SplineSet
478 29 m 1x25
 474 22 467 3 467 -8 c 0
 467 -12 469 -35 477 -42 c 0
 479 -44 486 -46 495 -46 c 1x65
 498 -41 502 -15 530 -15 c 1x85
 535 -17 566 -20 566 -49 c 0
 566 -69 566 -106 517 -117 c 0
 514 -118 505 -120 498 -120 c 0
 493 -120 489 -119 486 -119 c 0
 481 -119 481 -120 473 -120 c 0
 429 -120 383 -77 383 -13 c 0
 383 -9 383 -6 383 -3 c 1
 373 -4 362 -5 350 -5 c 0
 312 -5 268 4 219 28 c 1
 167 55 124 81 100 140 c 0
 89 165 85 188 85 210 c 0x45
 85 254 101 293 110 337 c 1
 127 431 154 480 183 565 c 1
 199 616 212 619 213 630 c 1
 210 630 200 628 188 628 c 0
 174 628 156 632 143 649 c 0
 131 665 126 680 126 695 c 0
 126 718 138 736 150 743 c 0
 170 754 188 758 204 758 c 0
 235 758 261 744 281 744 c 0
 321 744 303 756 400 756 c 0
 415 756 433 756 454 755 c 0
 473 754 489 732 489 705 c 0x52
 489 683 478 658 452 637 c 0
 441 629 429 626 420 626 c 0
 410 626 403 629 403 633 c 0
 403 634 403 634 404 635 c 1
 345 588 348 536 308 438 c 1
 283 373 271 338 264 271 c 0
 261 241 255 220 255 203 c 0
 255 190 258 179 266 166 c 0
 290 128 318 113 367 107 c 0
 373 106 378 106 383 106 c 0
 412 106 432 118 467 138 c 0
 512 165 531 187 559 233 c 0
 598 296 595 343 623 421 c 1
 657 536 675 551 696 611 c 1
 695 611 691 619 679 627 c 0
 678 628 676 628 674 628 c 0
 669 628 660 626 650 626 c 0
 634 626 615 630 599 650 c 0
 589 662 582 679 582 696 c 0
 582 712 588 728 602 740 c 0
 605 743 609 745 614 746 c 0
 630 749 644 750 655 750 c 0
 693 750 708 737 732 737 c 0
 756 738 777 750 810 750 c 0x0d
 817 750 825 749 834 748 c 0
 850 745 882 743 897 713 c 0
 903 702 906 690 906 678 c 0
 906 657 897 637 883 622 c 0
 868 607 851 603 839 603 c 0
 832 603 827 604 827 606 c 1
 787 533 799 485 744 363 c 1
 711 284 699 227 638 152 c 0
 601 106 567 80 519 52 c 1
 513 46 495 28 492 28 c 0
 489 28 481 29 478 29 c 1x25
EndSplineSet
Validated: 1
EndChar

StartChar: uogonek
Encoding: 371 371 162
Width: 510
Flags: W
HStem: -164 105<387.538 441.151> -164 74<366.097 396.327> 497 20G<214.5 236.5 478 499>
VStem: 272 84<-86.8438 -15.4354>
LayerCount: 2
Fore
SplineSet
384 -90 m 1x70
 387 -85 391 -59 419 -59 c 1xb0
 424 -61 455 -64 455 -93 c 0
 455 -113 455 -150 406 -161 c 0
 403 -162 394 -164 387 -164 c 0
 382 -164 378 -163 375 -163 c 0
 370 -163 370 -164 362 -164 c 0
 318 -164 272 -121 272 -57 c 0
 272 -33 278 -11 288 8 c 1
 255 28 252 67 251 77 c 1
 224 49 186 26 167 22 c 0
 162 20 147 5 123 5 c 0
 115 5 107 7 98 11 c 0
 54 31 44 72 41 108 c 0
 41 112 41 116 41 120 c 0
 41 192 81 232 106 285 c 0
 115 304 131 322 139 332 c 1
 132 333 113 337 101 343 c 0
 81 353 75 369 75 386 c 0
 75 400 79 413 82 421 c 0
 99 467 131 491 171 507 c 0
 190 515 207 517 222 517 c 0
 251 517 275 509 300 509 c 1
 314 507 320 504 324 491 c 0
 327 482 328 473 328 465 c 0
 328 417 286 383 276 350 c 0
 251 274 228 264 205 179 c 1
 205 179 208 179 221 188 c 0
 329 258 358 358 368 377 c 1
 387 408 387 476 448 517 c 0
 460 525 472 528 484 528 c 0
 514 528 538 507 541 488 c 0
 542 480 543 472 543 465 c 0
 543 383 478 332 452 265 c 0
 433 214 414 200 413 167 c 0
 412 150 406 145 412 149 c 0
 443 173 429 221 483 221 c 0
 484 221 486 221 488 221 c 0
 522 218 524 187 524 187 c 1
 529 179 531 172 527 163 c 0
 495 76 416 28 416 28 c 1
 413 27 409 25 405 23 c 1
 407 18 410 11 410 10 c 0
 410 9 384 -16 381 -16 c 0
 378 -16 370 -15 367 -15 c 1
 363 -21 356 -41 356 -52 c 0
 356 -56 358 -79 366 -86 c 0
 368 -88 375 -90 384 -90 c 1x70
EndSplineSet
Validated: 1
EndChar

StartChar: A
Encoding: 65 65 332
Width: 728
VWidth: 1080
Flags: W
HStem: 0 150<50.799 147.894> 7 130<410.656 491.849 677.001 720.204>
VStem: 18 353<26.0042 115.531>
LayerCount: 2
Fore
SplineSet
577 488 m 5x20
 537 474 527 447 527 424 c 4
 527 404 535 387 535 387 c 5
 536 385 553 376 582 376 c 4
 585 376 589 376 593 376 c 4
 624 379 641 388 651 411 c 4
 654 418 655 425 655 432 c 4
 655 446 649 459 633 473 c 4
 626 478 580 485 577 488 c 5x20
680 133 m 4
 682 133 687 134 692 134 c 4
 700 134 711 131 723 110 c 4
 730 99 732 88 732 78 c 4
 732 56 721 37 720 27 c 5
 714 12 711 6 699 6 c 4
 696 6 693 6 689 7 c 4x60
 681 8 673 9 663 9 c 4
 620 9 558 0 498 0 c 4xa0
 471 0 444 1 419 7 c 5
 405 12 401 17 400 30 c 4
 400 37 388 57 388 78 c 4
 388 93 393 108 410 122 c 4
 424 133 438 137 452 137 c 4
 472 137 489 128 492 124 c 5
 541 188 522 226 541 244 c 5
 541 244 513 253 481 261 c 5
 469 263 457 263 447 263 c 4
 426 263 409 261 406 261 c 5
 349 137 339 180 328 138 c 5
 340 134 357 126 363 116 c 4
 369 106 371 96 371 88 c 4
 371 64 355 45 354 36 c 5
 352 28 348 23 340 20 c 4
 312 8 285 5 258 5 c 4
 234 5 211 7 187 7 c 4
 183 7 178 7 174 7 c 5
 173 7 172 7 170 7 c 4
 169 7 168 7 167 7 c 4x60
 151 7 126 0 99 0 c 4
 77 0 54 4 35 26 c 4
 23 40 18 55 18 69 c 4
 18 93 31 116 50 132 c 4
 67 146 87 150 104 150 c 4xa0
 127 150 146 143 148 143 c 5
 274 257 280 293 437 464 c 5
 499 531 535 575 605 641 c 5
 654 685 615 649 729 739 c 4
 743 750 758 755 773 755 c 4
 822 755 872 709 872 666 c 4
 872 659 871 652 868 645 c 4
 820 538 794 487 755 385 c 4
 722 299 697 255 684 170 c 4
 681 153 677 142 677 136 c 4
 677 134 678 133 680 133 c 4
EndSplineSet
Validated: 1
EndChar

StartChar: B
Encoding: 66 66 333
Width: 623
VWidth: 1080
Flags: W
HStem: 3 129<25.344 109.096> 32 85<281.29 398.594> 629 126<172.932 264.621> 663 86<426.467 512.952>
VStem: 470 177<179.248 303.691> 544 162<495.399 632.396>
LayerCount: 2
Fore
SplineSet
339 341 m 4x48
 306 314 316 283 302 224 c 4
 294 188 280 148 280 130 c 4
 280 128 280 126 281 124 c 5
 287 121 305 117 326 117 c 4
 344 117 363 120 380 128 c 5
 412 150 426 148 439 166 c 4
 459 194 470 214 470 238 c 4
 470 246 469 255 466 265 c 4
 453 309 428 333 380 347 c 4
 373 349 368 350 363 350 c 4
 354 350 347 347 339 341 c 4x48
364 436 m 5
 404 440 428 440 459 450 c 5
 490 461 503 468 519 491 c 4
 537 515 544 530 544 555 c 4
 544 560 543 565 543 570 c 4
 540 608 534 627 507 645 c 4
 490 657 475 663 462 663 c 4x14
 454 663 446 661 439 657 c 4
 422 647 427 631 409 586 c 4
 392 544 386 522 379 490 c 4
 373 464 369 440 364 436 c 5
535 377 m 5
 536 377 539 377 544 377 c 4x14
 556 377 578 374 593 358 c 4
 633 314 645 271 647 217 c 4
 647 211 647 205 647 199 c 4
 647 152 642 106 598 67 c 4
 556 29 511 42 479 33 c 5
 476 33 474 32 472 32 c 4
 469 32 467 32 464 32 c 4x58
 374 32 302 3 126 3 c 4
 99 3 71 3 39 5 c 5
 25 7 19 11 15 24 c 4
 13 31 12 39 12 47 c 4
 12 70 19 94 26 112 c 5
 30 121 35 126 45 128 c 4
 62 132 73 132 80 132 c 4
 81 132 82 132 83 132 c 4
 88 132 91 132 94 134 c 4
 118 153 111 176 128 223 c 4
 150 284 157 320 176 381 c 5
 209 559 250 616 265 637 c 5
 257 633 243 629 227 629 c 4
 208 629 185 635 166 654 c 4
 155 664 151 677 151 689 c 4
 151 702 156 714 164 724 c 4
 187 751 217 755 243 755 c 4
 253 755 262 755 270 755 c 4
 274 755 278 755 282 755 c 4xa8
 293 756 302 756 311 756 c 4
 340 756 363 752 394 750 c 4
 402 749 411 749 419 749 c 4
 452 749 485 754 518 754 c 4
 558 754 598 747 639 719 c 4
 690 684 702 637 705 586 c 4
 705 580 706 575 706 569 c 4
 706 516 688 475 652 432 c 4
 603 375 549 381 535 377 c 5
EndSplineSet
Validated: 1
EndChar

StartChar: C
Encoding: 67 67 334
Width: 671
VWidth: 1080
Flags: W
HStem: 4 131<327.647 444.992> 471 239<645.879 761.385> 643 108<419.474 565.961>
VStem: 58 203<203.705 405.515> 72 189<228.923 461.437>
LayerCount: 2
Fore
SplineSet
681 271 m 4xb0
 685 258 686 243 686 226 c 4
 686 202 683 174 680 147 c 4
 676 111 687 72 651 30 c 4
 644 22 626 0 601 0 c 4
 594 0 587 3 580 6 c 4
 563 13 555 23 555 31 c 4
 555 36 559 40 566 41 c 4
 567 41 568 42 568 42 c 4
 568 42 566 42 563 42 c 4
 556 42 542 42 524 41 c 4
 452 38 407 4 320 4 c 4
 315 4 311 4 306 4 c 4
 252 5 212 13 164 39 c 4
 121 62 110 89 85 112 c 5
 83 115 81 117 80 120 c 4
 63 157 58 192 58 227 c 4xb0
 58 268 66 311 72 361 c 5
 72 363 73 364 73 366 c 4
 73 366 88 463 114 519 c 28
 129 552 147 576 166 595 c 4
 239 671 295 703 401 729 c 5
 460 748 492 751 561 751 c 4
 573 751 586 751 601 751 c 5xa8
 606 751 610 750 614 748 c 4
 647 731 656 718 680 712 c 4
 686 711 690 710 696 710 c 4xc8
 708 710 720 713 745 713 c 5
 757 712 763 709 768 700 c 4
 777 682 780 663 780 643 c 4xa8
 780 597 764 549 764 513 c 4
 764 510 764 508 764 505 c 5
 762 489 759 484 741 481 c 4
 736 480 721 471 700 471 c 4xc8
 690 471 679 473 668 478 c 4
 629 495 629 530 622 539 c 4
 590 583 586 609 552 632 c 4
 538 641 532 643 513 643 c 4
 510 643 508 643 505 643 c 4
 464 643 442 636 405 613 c 4
 349 579 330 549 297 491 c 4
 276 453 273 429 266 382 c 4
 262 363 261 349 261 334 c 4
 261 324 262 313 263 299 c 4
 267 254 263 232 284 202 c 4
 310 165 332 149 378 137 c 4
 384 135 390 135 395 135 c 4
 405 135 416 137 434 142 c 4
 477 152 497 158 527 180 c 4
 551 199 539 254 602 279 c 4
 604 280 629 294 651 294 c 4
 664 294 676 289 681 271 c 4xb0
EndSplineSet
Validated: 1
EndChar

StartChar: D
Encoding: 68 68 335
Width: 797
VWidth: 1080
Flags: W
HStem: 10 117<315.637 457.881> 600 143<198.348 266>
VStem: 662 203<352.261 546.466>
LayerCount: 2
Fore
SplineSet
317 148 m 4
 331 132 348 127 366 127 c 4
 389 127 413 135 439 142 c 12
 475 153 492 169 519 196 c 4
 570 246 598 271 628 329 c 4
 651 372 662 394 662 436 c 4
 662 437 662 439 662 441 c 4
 660 503 655 538 615 579 c 4
 584 609 558 620 514 620 c 4
 512 620 510 620 508 620 c 4
 490 619 480 616 466 601 c 4
 434 566 430 535 409 473 c 4
 386 403 381 368 354 300 c 4
 335 253 326 225 318 185 c 4
 316 174 312 167 312 160 c 4
 312 156 313 152 317 148 c 4
266 600 m 5
 265 600 265 600 264 600 c 4
 248 600 201 609 183 639 c 4
 177 649 175 658 175 667 c 4
 175 694 196 715 199 725 c 5
 203 737 208 742 222 743 c 4
 283 746 324 746 384 748 c 5
 386 748 388 748 390 748 c 4
 474 731 l 4
 556 716 620 731 708 690 c 4
 769 662 806 631 839 578 c 4
 863 539 864 507 865 469 c 4
 865 460 865 452 865 444 c 4
 865 389 858 348 834 291 c 4
 820 259 802 243 783 220 c 4
 737 169 710 132 645 91 c 4
 569 44 513 39 437 10 c 5
 433 8 429 8 425 8 c 4
 401 10 378 10 355 10 c 4
 286 10 223 5 159 5 c 4
 128 5 97 6 65 10 c 5
 54 12 49 16 45 26 c 4
 42 34 19 53 19 82 c 4
 19 88 20 95 23 103 c 4
 45 160 111 155 125 172 c 4
 144 196 139 218 155 260 c 4
 171 301 182 325 197 362 c 5
 199 370 258 574 266 600 c 5
EndSplineSet
Validated: 1
EndChar

StartChar: E
Encoding: 69 69 336
Width: 639
VWidth: 1080
Flags: W
HStem: 12 169<530.89 624.309> 15 103<45.3371 139.733 341.573 511.966> 353 87<397.005 438.751> 516 21G<675.5 693> 518 20G<548 563> 618 135<191.818 301.619> 636 108<189.188 256.012 455.188 599.465>
VStem: 430 162<266.616 351.762>
LayerCount: 2
Fore
SplineSet
256 494 m 17xa1
 284 564 297 609 302 627 c 1
 294 623 278 618 257 618 c 0
 236 618 210 623 183 637 c 0
 167 645 161 656 161 668 c 0
 161 695 189 724 189 725 c 1
 193 736 198 741 211 742 c 0
 274 748 335 745 410 753 c 1
 412 753 414 753 416 753 c 0xa5
 453 749 471 745 504 744 c 0
 508 744 512 744 515 744 c 0
 545 744 565 747 602 748 c 0
 614 748 632 755 652 755 c 0
 665 755 679 753 694 744 c 0
 743 716 739 668 751 645 c 1
 753 643 753 641 754 638 c 0
 756 625 758 611 758 595 c 0
 758 579 756 561 746 541 c 1
 740 532 732 535 723 528 c 0
 722 527 703 516 683 516 c 0x33
 668 516 652 522 641 540 c 0
 613 586 613 609 584 627 c 0
 570 635 558 637 542 637 c 0
 531 637 519 636 502 636 c 0
 501 636 499 636 498 636 c 0
 483 636 475 639 467 639 c 0
 463 639 459 639 455 636 c 1
 440 619 437 579 432 558 c 1
 419 502 397 472 397 448 c 0
 397 445 397 443 398 440 c 1
 399 440 414 435 434 435 c 0
 445 435 458 437 470 443 c 0
 485 451 464 495 511 526 c 0
 526 536 541 538 555 538 c 0
 571 538 584 535 593 535 c 0
 594 535 594 535 595 535 c 1
 612 534 619 531 622 515 c 0
 624 505 625 496 625 488 c 0
 625 435 595 396 592 354 c 1
 592 351 591 349 590 347 c 0
 577 318 584 286 559 244 c 1
 557 241 555 238 552 236 c 0
 538 227 521 221 503 221 c 0
 485 221 467 227 453 241 c 1
 451 243 449 246 448 248 c 0
 435 280 430 304 430 320 c 0
 430 337 435 347 439 352 c 1
 431 352 418 353 405 353 c 0
 392 353 378 352 369 351 c 1
 338 292 343 241 324 158 c 1
 329 154 348 130 366 124 c 0
 378 120 388 118 399 118 c 0x6b
 411 118 424 121 443 125 c 1
 447 126 450 126 454 125 c 0
 466 123 474 121 480 121 c 0
 497 121 502 132 541 169 c 1
 545 173 549 175 555 176 c 0
 562 177 576 181 591 181 c 0xa1
 606 181 624 177 637 161 c 0
 649 147 653 132 653 118 c 0x61
 653 83 627 52 624 32 c 1
 620 19 615 14 601 12 c 0xa1
 591 11 579 11 566 11 c 0
 523 11 467 15 407 15 c 0x61
 382 15 356 14 331 12 c 1
 31 12 l 0
 10 19 8 12 9 32 c 0
 9 32 9 34 9 35 c 0
 9 44 10 64 27 81 c 0
 70 126 118 116 135 123 c 1
 147 145 134 209 190 325 c 1
 256 494 l 17xa1
EndSplineSet
Validated: 1
EndChar

StartChar: F
Encoding: 70 70 337
Width: 600
VWidth: 1080
Flags: W
HStem: 9 119<66.6669 144.014 298 374.486> 519 21G<677.5 695.5> 629 129<195.357 294.576> 640 109<188.107 258.013 466.14 488.362 568.295 750>
VStem: 644 117<544.936 595.512>
LayerCount: 2
Fore
SplineSet
423 336 m 1xd8
 415 337 400 337 387 337 c 0
 377 337 368 337 364 336 c 1
 293 181 321 194 298 127 c 1
 300 127 304 128 308 128 c 0
 330 128 371 122 383 94 c 0
 386 86 388 78 388 70 c 0
 388 42 370 13 335 9 c 1
 34 9 l 1
 13 16 11 9 12 30 c 1
 12 30 12 31 12 32 c 0
 12 39 13 62 30 79 c 0
 73 124 121 115 138 121 c 1
 150 144 137 209 192 325 c 1
 262 557 l 2
 264 565 288 619 295 634 c 1
 286 631 274 629 259 629 c 0
 238 629 213 633 185 647 c 0
 170 655 164 666 164 677 c 0
 164 703 192 731 192 731 c 1
 197 741 202 746 214 747 c 0
 277 753 338 750 413 758 c 0
 413 758 414 758 415 758 c 0xe8
 427 758 471 750 507 749 c 0
 515 749 521 749 525 749 c 0
 552 749 533 753 684 753 c 1
 685 753 685 753 686 753 c 0
 750 753 750 707 757 642 c 0
 758 628 761 614 761 598 c 0
 761 582 758 564 749 544 c 0
 743 535 735 538 726 531 c 0
 725 530 706 519 685 519 c 0
 670 519 655 524 644 542 c 0
 614 592 624 623 596 640 c 0
 587 645 579 647 569 647 c 0
 554 647 536 642 506 640 c 0
 505 640 504 640 502 640 c 0
 486 640 481 650 473 650 c 0
 471 650 469 649 466 648 c 1
 464 644 408 482 397 465 c 1
 407 461 432 444 447 444 c 0
 449 444 451 444 453 445 c 0
 466 451 445 497 492 528 c 0
 507 538 522 541 535 541 c 0
 549 541 560 538 566 538 c 0
 567 538 568 538 568 538 c 1
 585 537 592 534 595 518 c 0
 597 508 598 499 598 490 c 0
 598 437 568 397 565 355 c 0
 565 352 564 350 563 347 c 0
 550 318 557 286 532 244 c 0
 526 235 520 232 509 231 c 2
 465 231 l 2
 453 232 447 238 443 248 c 0
 426 287 421 311 421 325 c 0
 421 330 422 334 423 336 c 1xd8
EndSplineSet
Validated: 1
EndChar

StartChar: G
Encoding: 71 71 338
Width: 763
VWidth: 1080
Flags: W
HStem: 6 110<352.821 499.641> 245 116<706.011 794.155> 661 93<465.916 602.942>
VStem: 71 201<230.942 463.241>
LayerCount: 2
Fore
SplineSet
706 252 m 5
 706 248 713 237 713 206 c 4
 713 190 711 168 705 138 c 4
 705 136 704 134 704 131 c 4
 704 126 705 119 705 111 c 4
 705 97 703 80 688 63 c 4
 658 29 620 29 589 23 c 4
 540 13 500 6 457 6 c 4
 428 6 397 9 362 17 c 4
 278 36 224 62 162 117 c 4
 125 151 112 182 96 223 c 4
 81 264 71 297 71 337 c 4
 71 347 72 357 73 368 c 4
 82 452 101 509 155 579 c 4
 206 644 255 675 331 710 c 4
 390 738 476 754 561 754 c 4
 629 754 697 743 747 717 c 4
 781 699 794 680 816 663 c 4
 822 658 825 653 825 647 c 4
 825 643 825 639 825 635 c 4
 825 582 806 522 759 483 c 4
 752 477 745 476 736 478 c 6
 686 488 l 6
 677 491 672 494 669 502 c 4
 646 555 661 583 640 604 c 5
 606 631 597 661 553 661 c 4
 537 661 515 657 485 646 c 4
 429 627 405 608 363 566 c 4
 324 527 308 505 292 457 c 4
 278 415 272 383 272 348 c 4
 272 325 275 300 279 270 c 4
 286 222 288 199 316 167 c 4
 337 143 352 135 387 126 c 4
 409 120 426 116 441 116 c 4
 453 116 464 118 477 124 c 4
 505 137 516 151 526 183 c 4
 531 198 534 209 534 220 c 4
 534 232 530 242 521 254 c 4
 518 258 458 249 425 298 c 4
 420 306 418 313 418 319 c 4
 418 328 421 333 421 333 c 4
 422 344 425 350 436 354 c 4
 462 365 484 368 506 368 c 4
 538 368 571 361 620 361 c 4
 680 361 701 361 776 361 c 5
 794 358 798 355 801 339 c 4
 802 336 810 322 810 304 c 4
 810 293 807 280 795 268 c 4
 777 250 757 245 741 245 c 4
 721 245 706 252 706 252 c 5
EndSplineSet
Validated: 1
EndChar

StartChar: H
Encoding: 72 72 339
Width: 798
VWidth: 1080
Flags: W
HStem: 4 123<39.5625 111.758 287.237 351.188 431.938 538.939> 14 109<492.26 549.177 698.63 766.721> 342 94<381.825 587.577> 618 115<171.799 266.666> 634 109<422.646 494.923 853.189 876.83 878.611 930.763> 634 100<430.985 505.703> 639 114<853.189 930.763> 655 102<655.426 699.761>
LayerCount: 2
Fore
SplineSet
152 694 m 1xb0
 150 709 152 715 166 722 c 0
 189 732 215 733 242 733 c 0
 247 733 252 733 256 733 c 0xb0
 279 733 302 734 325 740 c 0
 328 741 331 741 334 741 c 0
 341 740 348 740 355 740 c 0
 380 740 404 743 430 743 c 0x28
 451 743 473 741 496 734 c 1x24
 509 728 513 723 513 708 c 0
 513 708 516 699 516 688 c 0
 516 676 513 662 499 649 c 0
 487 637 475 634 464 634 c 0x28
 450 634 438 641 437 641 c 1
 420 623 424 606 410 562 c 0
 390 502 382 456 380 449 c 1
 419 439 454 436 495 436 c 0
 531 436 571 439 622 439 c 1
 632 462 654 494 674 553 c 0
 688 595 704 614 704 630 c 0
 704 634 703 638 700 643 c 0
 695 651 684 641 642 655 c 1
 630 660 625 665 625 678 c 0
 625 707 642 730 655 744 c 0
 664 754 678 757 696 757 c 0x21
 724 757 763 749 808 746 c 0
 809 746 811 746 812 746 c 0
 831 746 853 753 878 753 c 0
 891 753 906 751 922 745 c 0
 926 743 930 740 933 736 c 0
 945 719 949 703 949 690 c 0
 949 661 931 644 931 643 c 0
 926 638 918 637 909 637 c 0
 897 637 882 639 870 639 c 0
 863 639 857 639 853 636 c 1
 810 584 845 509 790 387 c 1
 736 127 710 175 698 122 c 1
 702 123 707 123 712 123 c 0
 729 123 754 118 768 101 c 0
 776 90 779 79 779 70 c 0
 779 49 767 33 767 32 c 0
 761 17 758 11 746 11 c 0
 744 11 741 11 737 12 c 0
 728 13 718 14 708 14 c 0x62
 661 14 603 4 584 4 c 0
 583 4 581 4 580 4 c 0
 571 6 562 7 553 7 c 0
 529 7 504 0 471 0 c 0
 459 0 447 2 433 4 c 1
 415 10 411 14 411 33 c 1
 411 38 409 48 409 60 c 0
 409 75 413 94 431 110 c 0
 451 127 472 132 491 132 c 0
 518 132 538 121 539 121 c 0
 562 176 595 250 595 305 c 0
 595 318 593 331 588 341 c 1
 579 340 569 340 559 340 c 0
 529 340 493 342 456 342 c 0
 415 342 373 340 334 332 c 1
 299 248 297 187 287 124 c 1
 292 126 300 127 309 127 c 0
 326 127 347 122 360 106 c 0
 368 96 370 86 370 77 c 0
 370 53 353 32 353 30 c 0
 341 -0 341 19 178 4 c 0
 175 3 172 4 169 4 c 0
 163 6 156 6 150 6 c 0
 131 6 110 0 76 0 c 0
 64 0 51 2 35 4 c 1
 19 9 13 12 13 24 c 0
 13 26 13 29 14 33 c 0
 14 34 14 35 14 35 c 0
 14 41 13 49 13 58 c 0
 13 76 17 99 39 119 c 0
 51 130 63 134 74 134 c 0
 92 134 107 125 112 125 c 1
 133 133 130 175 140 210 c 0
 151 252 165 358 188 433 c 0
 223 546 248 571 267 628 c 1
 260 622 245 618 226 618 c 0
 208 618 188 622 171 637 c 0
 154 652 152 671 152 683 c 0
 152 687 152 692 152 694 c 1xb0
EndSplineSet
Validated: 1
EndChar

StartChar: I
Encoding: 73 73 340
Width: 467
VWidth: 1080
Flags: W
HStem: 3 136<58.7925 184.983 380.22 436.451> 619 126<552.034 640.248> 626 134<282.975 357.758 555.439 630.458>
LayerCount: 2
Fore
SplineSet
358 634 m 5xc0
 353 634 337 626 318 626 c 4
 305 626 291 630 277 644 c 4
 265 656 259 672 259 688 c 4
 259 704 265 720 278 733 c 4
 299 754 323 760 347 760 c 4xa0
 381 760 415 747 442 747 c 4
 443 747 444 747 445 747 c 4
 447 747 449 747 451 747 c 4
 455 746 458 746 462 746 c 4
 483 746 509 755 551 755 c 4
 573 755 599 752 632 745 c 5
 646 740 651 735 651 721 c 4
 651 714 658 700 658 682 c 4
 658 669 654 654 641 640 c 4
 625 623 606 619 592 619 c 4
 579 619 570 622 569 622 c 5
 533 577 527 562 496 448 c 4
 496 447 496 446 495 445 c 6
 428 275 l 5
 398 161 388 165 379 134 c 5
 385 137 391 139 397 139 c 4
 412 139 429 128 446 105 c 4
 455 93 458 80 458 69 c 4
 458 50 450 34 450 26 c 5
 446 9 443 3 424 3 c 4
 422 3 421 3 419 3 c 4
 388 3 310 14 233 14 c 4
 219 14 205 14 192 13 c 4
 160 11 129 -3 97 -3 c 4
 78 -3 59 2 39 15 c 4
 25 25 14 42 14 59 c 4
 14 66 16 72 19 79 c 4
 46 133 108 126 143 136 c 4
 162 142 185 144 185 144 c 5
 197 167 178 171 221 260 c 5
 253 331 l 6
 287 410 351 524 355 607 c 4
 355 609 359 632 358 634 c 5xc0
EndSplineSet
Validated: 1
EndChar

StartChar: J
Encoding: 74 74 341
Width: 583
VWidth: 1000
Flags: W
HStem: -259 113<128 244.297> 378 117<372.888 443.906> 386 109<396.108 454.742 671.995 732.295> 588 165<711.03 810.696> 668 91<260.285 343.719>
LayerCount: 2
Fore
SplineSet
498 469 m 5xc0
 518 477 521 494 528 532 c 4
 531 546 531 548 526 555 c 4
 518 566 512 568 490 574 c 4
 489 574 489 574 488 574 c 4
 481 574 470 567 451 567 c 4
 443 567 433 569 421 573 c 4
 356 597 355 651 323 665 c 4
 316 669 308 670 300 670 c 4
 290 670 280 668 272 668 c 4
 271 668 270 668 269 668 c 5
 268 667 263 660 259 653 c 5
 271 650 291 640 314 618 c 4
 324 608 347 588 347 561 c 4
 347 554 346 547 343 540 c 4
 324 494 278 467 230 467 c 4
 216 467 201 469 187 474 c 4
 139 491 142 547 137 556 c 4
 127 577 122 589 113 608 c 5
 111 614 110 619 112 624 c 4
 123 666 135 700 172 738 c 5
 176 742 181 745 187 746 c 4
 219 750 244 759 282 759 c 4
 286 759 289 759 293 759 c 4xc8
 368 756 414 741 481 715 c 4
 537 693 544 659 574 659 c 4
 623 659 634 716 711 739 c 4
 726 744 746 753 769 753 c 4
 782 753 795 750 809 742 c 4
 851 717 842 673 849 655 c 5
 853 643 852 636 841 628 c 4
 795 592 746 598 724 588 c 5
 695 541 674 512 671 499 c 5
 683 499 716 493 720 492 c 5
 734 487 738 482 740 468 c 4
 740 467 748 455 748 438 c 4
 748 428 745 415 733 404 c 4
 718 390 701 385 686 385 c 4
 660 385 639 398 637 398 c 5
 572 283 593 253 495 10 c 5
 494 8 493 5 491 3 c 4
 436 -61 408 -109 341 -165 c 5
 295 -219 257 -236 203 -252 c 5
 186 -257 171 -259 156 -259 c 4
 100 -259 62 -226 23 -191 c 5
 19 -188 17 -184 16 -180 c 4
 12 -167 11 -153 11 -139 c 4
 11 -114 17 -89 31 -68 c 5
 36 -62 41 -58 49 -57 c 4
 64 -55 81 -46 106 -46 c 4
 113 -46 121 -47 130 -49 c 4
 176 -61 193 -90 218 -109 c 4
 232 -120 235 -126 235 -130 c 4
 235 -132 234 -133 234 -135 c 4
 234 -137 234 -139 236 -141 c 4
 238 -144 240 -146 241 -146 c 4
 246 -146 247 -130 254 -100 c 5
 254 -96 256 -93 258 -90 c 4
 278 -62 302 5 311 74 c 5
 312 76 312 78 313 81 c 4
 348 152 365 194 404 266 c 4
 428 312 454 320 455 348 c 4
 455 350 455 353 455 356 c 4
 455 369 453 386 444 386 c 4xb0
 442 386 440 385 437 383 c 4
 433 380 426 378 419 378 c 4
 395 378 361 394 359 438 c 4
 359 439 359 440 359 441 c 4
 359 482 407 491 426 494 c 4
 432 495 437 495 441 495 c 4
 481 495 493 469 498 469 c 5xc0
EndSplineSet
Validated: 1
EndChar

StartChar: K
Encoding: 75 75 342
Width: 778
VWidth: 1080
Flags: W
HStem: 0 113<420.656 506.71> 10 120<311.049 369.163> 625 130<254.356 327> 639 101<535.562 572.812 803.956 907.193>
VStem: 17 371<12.5156 111.37> 628 291<651.529 739.924>
LayerCount: 2
Fore
SplineSet
507 97 m 0x9c
 508 98 509 98 509 100 c 0
 509 106 501 119 501 135 c 1
 383 277 446 257 391 291 c 1
 367 283 l 1
 345 198 308 171 308 142 c 0
 308 138 309 133 311 128 c 1
 312 129 316 130 322 130 c 0
 336 130 362 124 380 94 c 0
 386 85 388 76 388 67 c 0
 388 48 378 33 377 29 c 0
 375 19 371 13 360 10 c 0x4c
 330 -0 296 -3 260 -3 c 0
 209 -3 155 0 105 0 c 0
 94 0 82 0 71 0 c 0
 66 0 60 1 55 0 c 1
 34 2 30 5 27 24 c 0
 26 30 17 46 17 67 c 0
 17 79 21 93 33 107 c 0
 54 130 80 136 103 136 c 0
 124 136 143 131 150 131 c 0
 151 131 152 131 152 131 c 1
 206 201 151 243 225 386 c 1
 286 585 316 620 327 625 c 1
 254 625 l 1xac
 234 630 229 632 229 652 c 0
 230 681 242 716 259 740 c 0x1c
 264 747 269 750 277 751 c 0
 300 754 325 755 350 755 c 0x2c
 421 755 496 747 547 747 c 0
 551 747 555 747 559 747 c 1
 575 746 581 742 585 727 c 0
 587 720 588 710 588 700 c 0
 588 684 585 666 573 649 c 0
 569 644 565 641 559 639 c 2
 483 619 l 1
 457 586 468 556 433 443 c 1
 433 415 l 1
 446 444 500 509 667 633 c 1
 636 662 628 679 628 693 c 0
 628 706 635 716 637 730 c 0
 639 740 643 745 653 749 c 0
 672 756 692 758 711 758 c 0
 765 758 821 740 865 740 c 0
 873 740 879 741 886 742 c 1
 907 741 910 739 915 719 c 0
 915 719 919 710 919 697 c 0
 919 689 917 679 912 669 c 0
 899 643 870 639 850 639 c 0
 840 639 832 640 829 640 c 0
 828 640 827 640 827 640 c 0
 780 599 749 549 685 499 c 1
 624 437 562 392 537 365 c 1
 539 250 620 233 687 127 c 1
 691 129 702 133 717 133 c 0
 730 133 746 129 758 118 c 0
 772 105 776 90 776 76 c 0
 776 53 765 31 765 24 c 1
 760 7 758 0 743 0 c 0
 741 0 738 -0 735 0 c 0
 706 4 667 6 626 6 c 0
 555 6 475 1 425 0 c 1
 402 5 400 7 399 29 c 0
 399 31 397 39 397 50 c 0
 397 65 401 84 420 99 c 0
 434 109 447 113 458 113 c 0
 483 113 501 97 507 97 c 0x9c
EndSplineSet
Validated: 1
EndChar

StartChar: L
Encoding: 76 76 343
Width: 622
VWidth: 1080
Flags: W
HStem: 0 129<43.0112 113.851> 7 105<268.877 456.946> 635 125<464.192 531.242> 653 106<199.617 288.999> 665 93<198.75 255.339>
LayerCount: 2
Fore
SplineSet
184 411 m 5x80
 222 493 250 535 279 616 c 4
 285 631 288 647 289 652 c 5
 289 653 288 653 286 653 c 4x90
 281 653 272 650 256 650 c 4
 242 650 222 653 196 665 c 5
 183 673 180 679 183 693 c 4
 201 742 l 4
 206 753 212 758 224 758 c 4x08
 241 759 255 759 267 759 c 4x10
 302 759 321 757 336 757 c 4
 345 757 353 758 362 760 c 5
 367 761 371 761 375 760 c 4
 383 758 391 757 400 757 c 4
 416 757 434 760 454 760 c 4
 482 760 514 754 544 728 c 5
 550 722 553 716 552 707 c 4
 552 707 555 700 555 690 c 4
 555 680 552 667 538 655 c 4
 521 640 504 635 490 635 c 4
 478 635 468 639 464 644 c 5
 427 588 451 568 382 408 c 5
 378 398 281 166 271 141 c 5
 272 134 268 140 269 131 c 4
 270 116 282 112 300 112 c 4
 319 112 344 116 371 116 c 4
 401 116 420 125 453 132 c 5
 497 151 478 184 572 264 c 5
 579 269 585 271 593 270 c 4
 629 264 l 4
 643 260 649 256 650 242 c 4
 650 237 650 231 650 226 c 4
 650 159 628 86 592 33 c 5
 589 29 585 26 579 24 c 4
 533 9 491 6 448 6 c 4
 420 6 391 7 360 7 c 4
 350 7 341 7 331 7 c 4x60
 265 5 213 0 157 0 c 4
 121 0 84 1 41 8 c 5
 25 13 20 17 20 33 c 4
 20 38 14 52 14 68 c 4
 14 82 18 97 33 111 c 4
 48 125 66 129 80 129 c 4
 97 129 111 124 114 122 c 5
 133 215 97 215 184 411 c 5x80
EndSplineSet
Validated: 1
EndChar

StartChar: M
Encoding: 77 77 344
Width: 954
VWidth: 1080
Flags: W
HStem: 3 152<54.5989 132.807> 7 118<282 352.727 677.028 721.931> 605 137<1038 1103> 616 129<199.752 315.382> 626 119<222.577 323.507>
VStem: 388 179<278.984 459.907>
LayerCount: 2
Fore
SplineSet
283 123 m 1x64
 286 123 300 129 316 129 c 0
 329 129 343 125 355 113 c 0
 367 100 376 85 376 70 c 0
 376 58 371 46 358 34 c 0
 332 9 303 0 275 0 c 0
 246 0 219 9 198 9 c 0
 181 9 156 3 128 3 c 0
 100 3 70 9 44 34 c 0
 28 49 22 65 22 81 c 0
 22 101 32 121 50 137 c 0
 66 151 86 155 102 155 c 0
 117 155 129 152 133 150 c 1
 145 199 131 209 189 347 c 0
 291 554 l 2
 305 583 315 592 320 613 c 0
 322 622 323 623 324 623 c 1
 322 625 320 626 316 626 c 0x8c
 303 626 278 616 252 616 c 0
 234 616 215 621 199 637 c 0
 187 649 183 664 183 677 c 0
 183 697 191 714 191 717 c 0
 193 732 196 738 212 740 c 0
 233 743 251 745 267 745 c 0x14
 309 745 334 736 357 736 c 0
 361 736 365 736 369 737 c 0
 373 738 377 738 380 737 c 0
 384 736 389 736 393 736 c 0
 417 736 447 746 480 746 c 0
 501 746 523 742 547 729 c 0
 553 725 556 721 558 715 c 0
 570 674 573 639 573 608 c 0
 573 560 565 519 565 472 c 0
 565 461 566 449 567 437 c 0
 567 435 567 432 566 430 c 0
 553 382 552 298 545 278 c 1
 637 348 666 459 673 466 c 0
 762 557 777 635 834 724 c 0
 844 738 871 741 900 741 c 0
 920 741 941 739 957 739 c 0
 963 739 968 739 973 740 c 0
 976 741 979 740 982 740 c 0
 985 739 989 739 993 739 c 0
 1006 739 1021 742 1041 742 c 0
 1057 742 1075 740 1097 734 c 1
 1111 729 1115 724 1115 711 c 0
 1115 703 1121 688 1121 671 c 0
 1121 657 1117 642 1103 627 c 0
 1087 609 1056 605 1042 605 c 0
 1041 605 1039 605 1038 605 c 1
 1039 598 1039 592 1039 586 c 0
 1039 521 1001 545 922 305 c 1
 904 245 885 217 880 163 c 0
 879 153 879 145 879 139 c 0
 879 126 880 116 880 110 c 1
 883 110 897 118 914 118 c 0
 925 118 937 115 947 103 c 0
 957 92 961 80 961 68 c 0
 961 52 953 36 940 24 c 0
 918 5 895 -0 872 -0 c 0
 845 -0 819 7 798 7 c 0
 796 7 794 7 792 7 c 0
 790 7 789 7 787 7 c 0
 777 8 767 8 758 8 c 0
 741 8 724 7 707 7 c 0
 682 7 656 9 626 19 c 1
 615 23 610 28 609 39 c 0
 609 42 599 55 599 73 c 0
 599 83 603 94 613 105 c 0
 632 126 656 132 676 132 c 0
 698 132 715 125 716 125 c 0
 736 194 735 227 806 423 c 1
 810 448 815 468 818 486 c 1
 809 468 809 433 669 288 c 1
 611 194 588 123 513 40 c 0
 508 35 502 32 494 32 c 2
 446 32 l 1
 432 33 426 37 422 49 c 0
 406 100 403 136 403 167 c 0
 403 194 405 217 405 242 c 0
 405 254 405 266 403 279 c 1
 392 353 388 395 388 419 c 0
 388 451 394 452 394 456 c 0
 394 457 393 458 392 460 c 1
 365 383 409 470 316 222 c 1
 303 168 282 151 282 130 c 0
 282 128 282 126 283 123 c 1x64
EndSplineSet
Validated: 1
EndChar

StartChar: N
Encoding: 78 78 345
Width: 763
VWidth: 1080
Flags: W
HStem: 0 157<59.0218 165.852> 8 159<327.095 397.586> 623 143<242.55 311.859> 635 131<666.798 753.758 905.056 975.603> 644 123<877.695 937.159>
VStem: 650 342<656.657 756.999>
LayerCount: 2
Fore
SplineSet
654 732 m 0x14
 655 746 658 753 672 757 c 0
 699 766 723 768 746 768 c 0
 770 768 793 766 818 766 c 0
 823 766 829 766 835 766 c 0
 837 766 839 766 841 766 c 0x14
 850 765 858 764 866 764 c 0
 888 764 909 767 931 767 c 0x0c
 939 767 946 767 954 766 c 1
 968 762 974 758 976 744 c 0
 977 738 992 717 992 692 c 0
 992 679 988 665 975 652 c 0
 963 639 949 635 938 635 c 0x14
 920 635 906 644 905 644 c 1
 835 600 877 589 807 414 c 1
 767 299 788 169 696 30 c 0
 691 22 685 19 675 18 c 0
 671 18 658 12 642 12 c 0
 631 12 619 15 607 22 c 0
 547 59 555 117 538 159 c 0
 501 247 489 298 460 381 c 1
 436 433 422 470 415 496 c 1
 415 447 383 341 374 314 c 0
 355 258 338 232 330 181 c 0
 328 172 327 167 327 165 c 1
 329 166 333 167 339 167 c 0
 362 167 408 156 424 116 c 0
 428 107 429 99 429 92 c 0
 429 58 399 35 394 24 c 1
 387 11 377 8 353 8 c 0x4c
 332 8 301 10 253 10 c 0
 236 10 216 10 194 9 c 0
 192 9 191 9 189 9 c 0
 185 10 181 10 177 10 c 0
 151 10 121 0 87 0 c 0
 70 0 51 2 32 11 c 1
 19 20 16 25 19 39 c 0
 24 59 14 97 50 128 c 0
 77 152 109 157 133 157 c 0
 150 157 163 154 166 154 c 1
 184 236 191 294 241 448 c 1
 270 543 266 556 310 615 c 1
 312 625 l 1
 309 624 305 623 299 623 c 0xa4
 286 623 265 627 228 641 c 1
 215 648 212 654 212 668 c 1
 224 733 l 2
 227 743 231 748 241 752 c 0
 274 762 311 766 347 766 c 0
 391 766 435 761 474 756 c 0
 480 756 484 754 489 750 c 0
 568 674 554 617 596 517 c 0
 623 455 639 406 649 371 c 1
 654 403 666 445 688 487 c 1
 708 537 722 564 739 615 c 0
 747 640 759 643 754 642 c 0
 749 641 734 633 715 633 c 0
 701 633 683 638 666 656 c 0
 653 670 650 685 650 698 c 0
 650 713 654 726 654 732 c 0x14
EndSplineSet
Validated: 1
EndChar

StartChar: O
Encoding: 79 79 346
Width: 754
VWidth: 1080
Flags: W
HStem: -4 75<319.418 467.485> 682 83<483.625 613.405>
VStem: 79 139<181.862 428.458> 689 129<345.793 579.838>
LayerCount: 2
Fore
SplineSet
371 736 m 5
 374 736 384 645 384 629 c 13
 344 587 315 569 282 521 c 28
 256 483 253 456 234 414 c 21
 225 366 218 326 218 287 c 4
 218 249 225 211 246 168 c 13
 287 133 299 95 350 77 c 20
 362 73 372 71 383 71 c 4
 394 71 406 73 420 77 c 12
 495 97 535 128 588 185 c 28
 635 235 648 277 666 343 c 20
 679 394 689 434 689 476 c 4
 689 503 685 531 676 563 c 12
 663 608 649 637 610 664 c 20
 592 677 576 682 556 682 c 4
 550 682 544 682 538 681 c 5
 488 676 471 644 454 636 c 5
 449 635 445 635 442 635 c 4
 434 635 427 636 418 636 c 5
 415 639 396 703 396 734 c 4
 396 743 398 749 402 750 c 4
 430 755 459 763 491 763 c 4
 494 763 498 763 501 763 c 5
 512 765 521 765 530 765 c 4
 577 765 608 746 646 726 c 5
 647 726 648 725 649 725 c 4
 692 694 744 679 777 619 c 4
 808 563 818 513 818 462 c 4
 818 422 812 382 804 338 c 4
 787 254 757 202 702 136 c 4
 662 89 627 68 574 40 c 4
 539 21 512 12 472 5 c 4
 439 -0 410 -4 381 -4 c 4
 356 -4 330 -1 300 6 c 4
 241 20 216 48 174 70 c 5
 172 71 171 72 169 73 c 4
 99 134 91 189 79 285 c 5
 79 286 79 286 79 287 c 4
 78 311 76 333 76 354 c 4
 76 391 80 425 92 469 c 4
 108 529 122 573 169 623 c 4
 226 683 279 701 350 730 c 4
 361 734 367 735 371 736 c 5
EndSplineSet
Validated: 1
EndChar

StartChar: P
Encoding: 80 80 347
Width: 613
VWidth: 1080
Flags: W
HStem: 9 123<259.932 364.388> 321 118<362.048 469.438> 635 121<191.874 267.926 432.582 521.571>
VStem: 538 197<504.305 619.926>
LayerCount: 2
Fore
SplineSet
362 440 m 5
 363 439 366 439 369 439 c 4
 381 439 406 444 435 444 c 4
 446 444 458 443 470 441 c 5
 491 461 501 462 510 477 c 4
 528 509 538 531 538 556 c 4
 538 567 536 578 532 591 c 4
 525 614 516 624 494 632 c 4
 487 634 481 635 475 635 c 4
 465 635 457 632 445 624 c 4
 413 602 420 571 394 521 c 5
 384 480 362 449 362 440 c 5
259 119 m 5
 279 122 292 132 320 132 c 4
 336 132 352 127 365 114 c 4
 376 102 379 90 379 78 c 4
 379 55 366 35 365 30 c 5
 361 14 357 9 339 9 c 4
 293 8 273 0 238 0 c 4
 229 0 218 3 206 4 c 4
 197 5 189 5 181 5 c 4
 159 5 139 3 119 3 c 4
 93 3 67 6 38 19 c 4
 28 25 24 30 24 40 c 4
 24 47 15 63 15 82 c 4
 15 94 18 107 29 120 c 4
 45 140 67 143 80 143 c 4
 87 143 91 142 91 142 c 5
 143 229 121 251 197 438 c 5
 268 677 252 608 269 645 c 5
 246 635 229 632 215 632 c 4
 197 632 186 639 178 646 c 4
 167 656 163 668 163 679 c 4
 163 692 169 705 174 714 c 4
 191 743 222 746 230 751 c 4
 240 757 261 759 285 759 c 4
 317 759 356 756 385 756 c 4
 390 756 394 756 398 756 c 4
 399 756 400 756 400 756 c 4
 405 756 410 756 415 756 c 4
 443 756 468 759 495 759 c 4
 520 759 547 756 578 745 c 4
 639 723 695 701 724 634 c 4
 732 617 735 601 735 585 c 4
 735 551 719 520 707 490 c 4
 657 366 573 347 551 336 c 4
 513 318 478 314 448 314 c 4
 410 314 378 321 356 321 c 4
 351 321 346 321 342 320 c 5
 335 287 338 270 316 205 c 4
 304 169 259 144 259 119 c 5
EndSplineSet
Validated: 1
EndChar

StartChar: Q
Encoding: 81 81 348
Width: 765
Flags: W
HStem: -291 131<808.227 1032.82> -64 109<110.201 187.719> 0 125<239.013 345.011> 81 90<109.738 183.28> 263 108<321.757 435.085> 671 108<448.23 624.121>
VStem: 137 168<388.102 529.018> 697 171<461.066 600.751>
LayerCount: 2
Fore
SplineSet
127 81 m 1xdf
 124 80 125 82 109 63 c 1
 136 45 148 45 161 45 c 1
 175 46 181 49 189 53 c 1
 175 69 165 80 159 81 c 1
 127 81 l 1xdf
313 125 m 1xaf
 324 127 441 169 555 272 c 0
 635 345 658 370 680 434 c 0
 694 474 697 501 697 518 c 0
 697 626 609 671 543 671 c 0
 514 671 464 664 428 637 c 2
 402 617 l 2
 398 613 392 609 383 602 c 2
 365 589 l 2
 347 576 309 545 305 465 c 1
 305 445 l 2
 305 424 309 409 317 398 c 0
 332 376 378 371 394 371 c 0
 436 371 439 398 444 422 c 0
 445 426 445 426 445 426 c 0
 445 427 445 428 445 428 c 1
 415 429 401 463 401 488 c 0
 401 489 401 489 401 490 c 0
 401 513 420 559 477 559 c 0
 510 559 565 538 565 470 c 0
 565 391 537 355 523 338 c 0
 460 264 395 263 363 263 c 0
 285 263 200 319 167 359 c 0
 162 366 137 395 137 450 c 0
 137 494 159 531 177 561 c 2
 189 581 l 2
 235 658 296 723 403 747 c 0
 497 769 561 779 600 779 c 0
 673 779 760 754 807 716 c 0
 856 676 868 601 868 564 c 0
 868 506 823 373 769 319 c 1
 713 266 l 1
 580 134 446 62 446 62 c 1
 457 59 472 55 485 48 c 0
 505 39 689 -66 732 -95 c 0
 776 -124 836 -160 899 -160 c 0
 920 -160 971 -151 1003 -149 c 1
 1043 -140 1094 -97 1116 -87 c 0
 1119 -86 1122 -85 1124 -85 c 0
 1130 -85 1137 -88 1156 -95 c 0
 1180 -103 1187 -118 1187 -134 c 2
 1187 -141 l 2
 1187 -194 1154 -231 1051 -265 c 1
 1009 -283 966 -291 922 -291 c 0
 906 -291 752 -277 681 -249 c 0
 551 -199 460 -118 441 -102 c 2
 379 -52 l 1
 360 -38 335 0 292 0 c 0xaf
 234 0 228 -64 126 -64 c 0
 70 -64 8 -12 8 52 c 0
 8 134 90 171 136 171 c 0xdf
 174 171 293 125 313 125 c 1xaf
EndSplineSet
Validated: 1
EndChar

StartChar: R
Encoding: 82 82 349
Width: 667
VWidth: 1080
Flags: W
HStem: 0 144<295.086 355.998> 4 128<33.7998 143.148> 6 152<597.891 663.215> 655 110<243.981 297.906> 669 94<475.19 552.251>
VStem: 17 356<10.6895 108.39> 573 172<492.052 650.741>
LayerCount: 2
Fore
SplineSet
378 404 m 5x0e
 381 404 412 418 447 424 c 4
 491 432 513 439 536 468 c 4
 562 501 573 530 573 565 c 4
 573 580 571 597 567 615 c 4
 563 639 556 650 535 662 c 4
 527 667 522 669 516 669 c 4
 512 669 508 668 503 666 c 4
 474 655 467 636 444 597 c 4
 421 558 421 532 404 481 c 5
 381 452 393 426 378 404 c 5x0e
178 723 m 5
 176 732 178 739 184 745 c 4
 200 761 226 765 257 765 c 4x56
 292 765 333 760 375 760 c 4
 391 760 407 761 422 763 c 5
 425 763 427 763 429 763 c 4
 493 756 539 766 610 743 c 4
 648 730 690 722 718 677 c 4
 737 646 745 615 745 585 c 4
 745 556 738 527 725 497 c 4
 702 442 660 423 621 395 c 4
 593 376 574 375 558 364 c 4
 529 345 522 346 520 339 c 4
 520 337 519 335 519 333 c 4
 519 315 539 307 558 269 c 4
 589 211 586 179 623 153 c 5
 625 153 635 158 649 158 c 4
 662 158 677 154 689 136 c 4
 697 123 701 110 701 98 c 4
 701 71 686 47 667 31 c 4
 647 14 624 6 600 6 c 4x2e
 585 6 570 9 556 15 c 4
 491 42 480 97 459 142 c 4
 433 197 386 231 386 308 c 4
 386 313 386 317 386 322 c 4
 386 330 388 320 368 315 c 4
 352 312 340 288 326 276 c 5
 318 178 294 172 294 147 c 4
 294 146 294 145 294 143 c 5
 296 144 299 144 303 144 c 4x86
 318 144 344 138 361 116 c 4
 370 104 373 92 373 80 c 4
 373 57 360 37 359 27 c 5
 357 16 353 10 342 6 c 4x26
 330 2 317 0 305 0 c 4x86
 275 0 243 9 210 9 c 4
 200 9 189 8 178 6 c 5x26
 175 5 171 5 168 5 c 4
 159 6 150 7 141 7 c 4
 118 7 96 4 73 4 c 4
 65 4 57 4 49 5 c 5
 33 9 29 14 27 29 c 4
 26 34 17 50 17 70 c 4
 17 82 21 96 33 109 c 4
 50 127 71 132 88 132 c 4
 109 132 125 125 127 125 c 5
 179 205 152 243 226 407 c 5
 241 465 245 506 268 572 c 4
 282 610 298 618 299 637 c 4
 300 652 299 652 298 653 c 4
 296 654 294 655 292 655 c 4x56
 281 655 264 646 243 646 c 4
 228 646 212 650 195 665 c 4
 180 678 177 695 177 707 c 4
 177 714 178 720 178 723 c 5
EndSplineSet
Validated: 1
EndChar

StartChar: S
Encoding: 83 83 350
Width: 449
VWidth: 1080
Flags: W
HStem: 0 116<221.569 330.366> 642 121<313.34 405.23>
VStem: 36 155<118 276.691> 44 147<147.265 273.55> 145 144<504.204 617.765> 346 134<134.076 276.353> 431 128<510.266 596.812>
LayerCount: 2
Fore
SplineSet
123 84 m 1xcc
 120 84 105 76 86 76 c 0
 73 76 58 80 44 95 c 0xd4
 38 102 36 112 36 124 c 0xe0
 36 150 44 183 44 208 c 0
 44 211 44 214 44 217 c 0xd0
 44 219 57 300 85 344 c 0
 91 353 106 360 124 360 c 0
 146 360 173 350 192 323 c 0
 204 306 208 290 208 275 c 0
 208 244 191 217 191 196 c 0
 191 193 192 189 193 186 c 0
 207 150 220 132 253 118 c 0
 257 117 261 116 267 116 c 0
 290 116 326 128 330 135 c 0
 341 154 346 172 346 190 c 0xe4
 346 216 336 243 323 278 c 0
 300 336 221 347 186 435 c 0
 180 450 145 506 145 568 c 0
 145 590 149 614 162 637 c 0
 193 692 229 729 293 751 c 0
 318 759 341 763 364 763 c 0
 396 763 427 755 460 740 c 0
 515 714 525 672 553 643 c 0
 557 638 559 633 559 626 c 0
 557 571 544 516 522 480 c 1
 515 471 508 468 496 468 c 2
 457 474 l 1
 443 477 437 481 435 494 c 0
 432 513 431 527 431 538 c 0xca
 431 565 437 575 437 585 c 0
 437 589 436 593 434 597 c 1
 417 613 411 627 398 633 c 0
 384 639 374 642 365 642 c 0
 358 642 352 641 344 638 c 0
 313 626 299 610 291 578 c 0
 289 572 289 567 289 562 c 0
 289 544 297 530 312 502 c 0
 347 435 427 420 463 325 c 0
 475 294 480 266 480 238 c 0
 480 209 474 180 463 147 c 0
 445 94 425 47 365 18 c 0
 337 4 309 0 282 0 c 0
 253 0 224 5 194 17 c 0
 143 37 141 76 123 84 c 1xcc
EndSplineSet
Validated: 1
EndChar

StartChar: T
Encoding: 84 84 351
Width: 660
VWidth: 1080
Flags: W
HStem: 6 113<418.239 479.244> 7 135<180.995 274.755> 472 20G<259 275.5> 601 133<577.571 649.111> 610 124<570.174 645.368> 632 109<313.425 438.763>
VStem: 102 218<387.748 480.609> 102 120<481.233 542.133>
LayerCount: 2
Fore
SplineSet
229 481 m 5x65
 231 481 249 492 269 492 c 4
 282 492 297 487 309 470 c 4
 317 459 320 448 320 436 c 4x66
 320 391 265 346 207 346 c 4
 189 346 172 350 156 359 c 4
 109 384 108 430 103 465 c 4
 102 470 102 476 102 483 c 4
 102 526 119 598 199 671 c 4
 265 731 325 741 381 741 c 4x65
 413 741 444 738 473 738 c 4
 476 738 479 738 482 738 c 4
 485 738 489 738 492 738 c 4
 535 738 565 734 598 734 c 4
 614 734 631 735 650 738 c 4
 658 739 677 763 710 763 c 4
 718 763 727 761 736 758 c 4
 768 747 793 720 793 686 c 4
 793 681 793 677 792 672 c 4
 783 628 737 619 712 611 c 4
 687 603 665 601 647 601 c 4x31
 612 601 589 610 577 610 c 5
 562 582 574 531 531 420 c 5
 509 357 498 319 474 254 c 4
 450 189 421 167 418 110 c 5
 423 114 434 119 447 119 c 4
 459 119 473 115 485 101 c 4
 493 91 496 81 496 72 c 4
 496 48 479 28 478 27 c 4
 473 10 461 6 440 6 c 4xa9
 422 6 398 9 365 9 c 4
 355 9 343 9 330 8 c 4
 328 7 326 7 324 8 c 4
 319 9 315 9 310 9 c 4
 296 9 280 7 261 7 c 4
 243 7 222 9 197 16 c 5
 185 20 181 25 179 36 c 4
 178 41 162 61 162 86 c 4
 162 98 166 112 179 124 c 4
 193 138 211 142 227 142 c 4
 250 142 270 134 275 130 c 5
 280 148 298 242 379 444 c 5
 403 499 423 524 435 575 c 4
 439 591 439 621 439 621 c 5
 434 622 425 632 398 632 c 4
 382 632 361 628 330 618 c 4
 297 606 286 590 256 556 c 4
 234 531 224 523 222 503 c 4
 221 489 223 486 229 481 c 5x65
EndSplineSet
Validated: 1
EndChar

StartChar: U
Encoding: 85 85 352
Width: 756
VWidth: 1080
Flags: W
HStem: -5 111<301.002 449.286> 603 147<827.004 882.295> 628 130<150.936 212.586> 628 122<403.005 451.484 599.752 695.466>
VStem: 85 170<150.863 324.291> 126 363<651.282 741.399>
LayerCount: 2
Fore
SplineSet
281 744 m 1xa4
 321 744 303 756 400 756 c 0
 415 756 433 756 454 755 c 1
 473 754 489 732 489 705 c 0xa4
 489 683 478 658 452 637 c 0
 441 629 429 626 420 626 c 0
 410 626 403 629 403 633 c 0
 403 634 403 634 404 635 c 1
 345 588 348 536 308 438 c 1
 283 373 271 338 264 271 c 0
 261 241 255 220 255 203 c 0
 255 190 258 179 266 166 c 0
 290 128 318 113 367 107 c 0
 373 106 378 106 383 106 c 0
 412 106 432 118 467 138 c 0
 512 165 531 187 559 233 c 0
 598 296 595 343 623 421 c 1
 657 536 675 551 696 611 c 0
 695 611 691 619 679 627 c 0
 678 628 676 628 674 628 c 0
 669 628 660 626 650 626 c 0
 634 626 615 630 599 650 c 0
 589 662 582 679 582 696 c 0
 582 712 588 728 602 740 c 0
 605 743 609 745 614 746 c 0
 630 749 644 750 655 750 c 0
 693 750 708 737 732 737 c 0
 756 738 777 750 810 750 c 0x98
 817 750 825 749 834 748 c 0
 850 745 882 743 897 713 c 0
 903 702 906 690 906 678 c 0
 906 657 897 637 883 622 c 0
 868 607 851 603 839 603 c 0
 832 603 827 604 827 606 c 1
 787 533 799 485 744 363 c 1
 711 284 699 227 638 152 c 0
 596 100 558 74 500 41 c 0
 476 28 424 -5 350 -5 c 0
 312 -5 268 4 219 28 c 0
 167 55 124 81 100 140 c 0
 89 165 85 188 85 210 c 0xc8
 85 254 101 293 110 337 c 0
 127 431 154 480 183 565 c 0
 199 616 212 619 213 630 c 1
 210 630 200 628 188 628 c 0
 174 628 156 632 143 649 c 0
 131 665 126 680 126 695 c 0
 126 718 138 736 150 743 c 0
 170 754 188 758 204 758 c 0
 235 758 261 744 281 744 c 1xa4
EndSplineSet
Validated: 1
EndChar

StartChar: V
Encoding: 86 86 353
Width: 603
VWidth: 1080
Flags: W
HStem: 628 130<713.21 829.584> 636 111<162.609 237.896 432.146 506.294> 646 107<200.935 238 546.054 583.064>
LayerCount: 2
Fore
SplineSet
148 721 m 0x40
 149 736 152 743 168 747 c 0x40
 188 752 206 753 223 753 c 0x20
 241 753 258 752 275 752 c 0
 289 752 303 753 317 756 c 0
 320 757 322 757 325 757 c 0
 334 756 343 756 351 756 c 0
 375 756 397 758 420 758 c 0x80
 444 758 468 756 497 747 c 1x40
 509 742 513 737 514 725 c 0
 514 724 522 710 522 694 c 0
 522 682 519 670 507 658 c 0
 492 643 473 638 458 638 c 0
 445 638 435 642 432 644 c 1
 425 626 392 535 360 466 c 0
 337 419 318 386 300 349 c 1
 323 379 348 409 390 444 c 1
 461 512 506 561 576 623 c 0
 585 631 584 640 584 646 c 1x20
 581 645 578 645 574 645 c 0
 564 645 552 648 543 660 c 0
 536 670 534 679 534 688 c 0
 534 708 545 724 545 727 c 0
 547 737 551 742 561 746 c 0
 586 756 606 759 624 759 c 0
 646 759 665 755 686 755 c 0
 689 755 691 755 694 755 c 0
 695 755 697 755 699 755 c 0
 703 755 707 754 711 754 c 0
 728 754 748 758 771 758 c 0x80
 785 758 799 757 816 753 c 1x20
 828 748 832 743 834 731 c 0
 835 726 847 710 847 689 c 0
 847 678 843 665 832 653 c 0
 815 633 794 628 776 628 c 0x80
 757 628 743 634 742 634 c 0
 716 611 663 553 563 448 c 1
 471 357 415 312 330 218 c 0
 286 169 266 136 221 83 c 0
 203 63 196 18 144 0 c 0
 136 -2 111 -7 85 -7 c 0
 50 -7 13 1 13 33 c 0
 13 38 14 42 15 47 c 0
 46 165 71 180 99 258 c 0
 129 339 137 389 171 473 c 0
 194 531 221 552 232 599 c 0
 237 624 238 640 238 646 c 1x20
 236 646 220 636 200 636 c 0
 188 636 175 639 162 651 c 0
 148 664 144 679 144 692 c 0
 144 706 148 718 148 721 c 0x40
EndSplineSet
Validated: 1
EndChar

StartChar: W
Encoding: 87 87 354
Width: 940
VWidth: 1080
Flags: W
HStem: 612 139<134.198 201.623 1036.13 1146.46> 614 148<783.047 863.477> 623 106<412.48 473.295> 627 124<165.839 213.907 380.476 473.295>
VStem: 892 275<631.271 736.247>
LayerCount: 2
Fore
SplineSet
398 623 m 0x28
 368 623 345 455 316 416 c 1
 294 354 286 344 266 272 c 1
 273 272 345 395 389 439 c 0
 462 513 520 541 566 626 c 0
 567 627 573 635 580 643 c 1
 578 643 576 643 574 643 c 0
 561 643 545 648 536 661 c 0
 530 670 527 679 527 688 c 0
 527 713 549 733 551 737 c 0
 558 758 591 762 627 762 c 0
 650 762 675 760 695 760 c 0
 703 760 710 760 716 761 c 0
 733 762 743 763 751 763 c 0
 762 763 769 762 784 762 c 0
 795 762 810 763 835 764 c 1
 854 762 860 760 863 743 c 0
 865 729 884 703 884 674 c 0
 884 661 880 646 868 632 c 0
 852 613 835 608 821 608 c 0
 806 608 793 614 786 614 c 0x48
 785 614 784 614 783 613 c 1
 724 539 714 467 642 349 c 1
 626 318 575 254 575 248 c 1
 619 285 613 284 650 315 c 0
 812 451 917 593 917 593 c 0
 898 615 892 633 892 654 c 0
 892 673 897 694 901 722 c 1
 908 750 970 754 1003 754 c 0
 1015 754 1023 753 1023 753 c 0
 1030 752 1036 752 1043 752 c 0
 1061 752 1079 754 1097 754 c 0
 1104 754 1111 754 1118 753 c 0
 1130 752 1167 726 1167 686 c 0
 1167 665 1157 640 1126 612 c 0x88
 1122 608 1117 606 1111 605 c 2
 1049 605 l 1
 1004 559 1018 538 918 425 c 0
 918 424 918 424 917 423 c 2
 775 285 l 1
 705 220 661 192 600 128 c 1
 561 82 531 57 520 34 c 0
 517 29 514 25 509 22 c 0
 491 13 457 -5 424 -5 c 0
 404 -5 384 2 369 22 c 0
 365 26 364 31 364 36 c 0
 368 114 431 164 449 227 c 0
 449 228 449 229 450 230 c 2
 498 342 l 1
 515 387 526 412 533 427 c 1
 485 373 464 345 456 336 c 2
 299 155 l 2
 299 154 298 153 297 152 c 0
 249 113 242 104 192 34 c 0
 189 30 186 28 183 26 c 0
 158 14 128 0 98 0 c 0
 73 0 49 11 29 37 c 0
 26 41 24 45 24 50 c 0
 24 145 73 198 95 278 c 0
 104 309 159 415 191 520 c 0
 203 557 215 575 215 595 c 0
 215 600 214 604 213 609 c 0
 210 622 206 627 202 627 c 0x18
 194 627 183 612 165 612 c 0x88
 156 612 146 615 133 625 c 0
 114 640 107 658 107 676 c 0
 107 698 118 718 128 725 c 0
 161 747 195 751 226 751 c 0
 243 751 260 750 275 750 c 0
 282 750 289 750 296 751 c 0
 298 752 300 752 302 751 c 0x18
 307 750 313 750 318 750 c 0
 339 750 361 753 385 753 c 0
 414 753 444 749 475 729 c 0
 484 723 494 707 494 688 c 0
 494 674 489 658 474 642 c 0
 459 626 442 623 428 623 c 0
 420 623 414 624 409 624 c 0
 408 624 407 624 406 624 c 0
 404 623 401 623 398 623 c 0x28
EndSplineSet
Validated: 1
EndChar

StartChar: X
Encoding: 88 88 355
Width: 759
VWidth: 1080
Flags: W
HStem: 0 126<444.545 556> 7 126<37.429 129.988> 646 118<277.935 360.757> 649 98<899.891 1009.34> 658 104<534.939 604.249> 664 82<870.18 954.156>
LayerCount: 2
Fore
SplineSet
584 527 m 1x08
 584 530 592 542 684 619 c 1
 725 662 l 1
 708 664 692 669 684 680 c 0
 677 689 675 697 675 704 c 0
 675 722 692 733 692 733 c 1
 694 738 697 742 702 745 c 0
 718 754 735 757 753 757 c 0
 781 757 811 750 843 750 c 0
 844 750 846 750 847 750 c 0
 849 750 851 750 853 750 c 0
 869 747 884 746 899 746 c 0x04
 918 746 937 747 955 747 c 0
 969 747 983 747 997 744 c 1
 1011 740 1015 735 1017 722 c 0
 1017 721 1024 710 1024 696 c 0
 1024 687 1021 676 1010 666 c 0
 996 653 981 649 966 649 c 0x10
 944 649 923 659 914 659 c 0
 908 659 903 661 898 664 c 1
 882 664 746 511 739 505 c 0
 684 459 643 452 618 406 c 0
 614 399 613 394 613 388 c 0
 613 382 614 374 615 363 c 0
 623 283 649 242 681 159 c 0
 691 131 703 119 703 110 c 0
 703 108 702 106 700 104 c 0
 698 102 698 102 697 101 c 17
 698 101 709 109 721 109 c 0
 728 109 736 107 742 99 c 0
 749 90 752 81 752 73 c 0
 752 54 738 38 726 29 c 0
 701 9 676 4 652 4 c 0
 631 4 610 8 592 8 c 0
 587 8 583 7 579 7 c 0x44
 578 6 576 6 574 6 c 0
 571 6 568 6 564 6 c 0
 548 6 531 0 503 0 c 0x80
 488 0 469 4 446 7 c 1x40
 433 10 428 14 425 27 c 9
 419 77 l 17
 419 89 422 95 434 100 c 0
 480 119 513 126 536 126 c 0
 544 126 550 125 556 124 c 1
 514 206 547 178 493 251 c 1
 488 254 469 256 467 255 c 0
 317 85 356 160 314 115 c 1
 330 110 353 101 360 90 c 0
 365 82 367 74 367 66 c 0
 367 44 351 27 350 24 c 0
 345 7 325 0 292 0 c 0x80
 270 0 243 4 210 6 c 0
 198 7 187 7 176 7 c 0x40
 135 7 99 2 62 0 c 1x80
 44 2 38 4 35 20 c 0
 34 27 19 46 19 69 c 0
 19 82 23 95 35 108 c 0
 52 128 75 133 93 133 c 0
 114 133 130 127 130 127 c 0
 171 175 201 196 303 273 c 1
 364 337 407 358 448 388 c 0
 449 389 449 390 449 392 c 0
 449 398 448 408 447 426 c 1
 391 526 401 512 361 655 c 1
 356 652 339 646 320 646 c 0
 303 646 285 651 271 665 c 0
 262 674 259 684 259 694 c 0
 259 712 271 727 271 728 c 0
 272 735 275 740 281 744 c 0
 304 760 325 764 347 764 c 0x60
 377 764 410 756 454 754 c 0
 456 754 458 754 461 754 c 0
 486 754 517 762 548 762 c 0
 574 762 599 756 620 736 c 0
 627 728 629 722 625 712 c 0
 625 712 625 711 625 709 c 0
 625 703 624 687 605 673 c 0
 589 661 571 658 556 658 c 0
 546 658 538 660 534 661 c 1
 534 647 546 522 565 510 c 1
 582 523 584 526 584 527 c 1x08
EndSplineSet
Validated: 1
EndChar

StartChar: Y
Encoding: 89 89 356
Width: 595
VWidth: 1080
Flags: W
HStem: 11 98<92.8892 178.952> 16 102<375.38 423.195> 509 21G<170 187.5> 621 153<690.029 854.469> 740 20G<320 364.5>
LayerCount: 2
Fore
SplineSet
914 640 m 16x30
 914 625 883 578 823 578 c 0
 806 578 788 581 767 590 c 0
 741 601 729 621 720 621 c 0
 663 616 650 570 598 511 c 0
 539 442 524 391 473 312 c 1
 379 124 390 180 374 118 c 1
 389 114 416 106 424 95 c 0
 430 86 432 77 432 69 c 0
 432 51 422 36 422 36 c 1
 418 24 414 18 400 16 c 0x70
 340 7 292 5 249 5 c 0
 196 5 153 9 108 11 c 1
 86 13 76 38 76 61 c 0
 76 77 81 92 92 97 c 0
 111 107 128 109 141 109 c 0
 157 109 168 106 174 106 c 0
 176 106 178 106 179 107 c 1
 227 187 238 256 273 376 c 1
 307 541 299 527 301 565 c 1
 264 576 l 17
 257 574 260 558 228 537 c 0
 220 531 203 509 172 509 c 0
 168 509 164 509 160 510 c 0
 122 518 112 556 110 559 c 0
 102 570 101 576 108 587 c 0
 184 694 184 672 206 695 c 2
 248 740 l 2
 256 748 296 760 344 760 c 0xa8
 385 760 430 751 464 723 c 0
 468 720 475 725 483 583 c 1
 501 600 527 621 561 646 c 1
 680 747 l 2
 682 749 740 774 808 774 c 0
 834 774 861 770 888 761 c 0
 898 757 903 752 904 742 c 2
 914 640 l 16x30
EndSplineSet
Validated: 1
EndChar

StartChar: Z
Encoding: 90 90 357
Width: 667
VWidth: 1080
Flags: W
HStem: 7 106<306.102 513.044> 484 21G<154.5 182.5> 647 111<291.418 406.247 408.025 479.58 480.009 495>
LayerCount: 2
Fore
SplineSet
495 644 m 1
 492 644 480 651 480 651 c 1
 471 650 464 650 458 650 c 0
 442 650 429 652 407 652 c 0
 391 652 371 651 340 647 c 0
 339 647 337 647 336 647 c 0
 334 647 331 647 328 647 c 0
 314 647 296 643 270 589 c 0
 269 588 268 586 267 585 c 0
 256 571 275 587 240 514 c 0
 234 502 200 484 165 484 c 0
 144 484 122 491 107 510 c 0
 103 515 101 519 102 525 c 0
 111 589 126 594 146 638 c 0
 163 676 176 696 194 731 c 0
 198 737 202 740 208 743 c 0
 244 755 277 758 310 758 c 0
 339 758 367 756 397 756 c 0
 409 756 421 756 433 757 c 0
 434 757 436 757 437 757 c 0
 449 756 460 756 472 756 c 0
 521 756 567 763 618 763 c 0
 646 763 674 761 705 754 c 0
 717 751 722 746 724 735 c 0
 726 721 728 708 728 697 c 0
 728 644 706 622 704 620 c 0
 576 506 548 461 457 349 c 1
 394 263 341 230 305 144 c 0
 304 142 305 120 305 120 c 1
 329 115 321 113 365 113 c 0
 387 113 424 114 486 115 c 1
 542 137 528 216 633 268 c 0
 639 271 644 271 650 270 c 2
 680 265 l 1
 694 260 700 256 700 244 c 0
 700 243 700 241 700 239 c 0
 692 175 675 144 650 82 c 1
 628 34 l 2
 625 27 621 23 613 21 c 0
 575 9 539 6 503 6 c 0
 467 6 431 9 393 9 c 0
 377 9 361 8 345 7 c 0
 343 7 342 7 340 7 c 0
 314 10 294 11 275 11 c 0
 227 11 183 4 53 3 c 1
 35 6 31 10 28 26 c 1
 28 114 l 2
 28 120 30 125 34 129 c 0
 122 220 176 263 240 357 c 0
 240 358 241 359 242 360 c 0
 371 502 377 512 482 610 c 1
 485 625 495 639 495 644 c 1
EndSplineSet
Validated: 1
EndChar

StartChar: backslash
Encoding: 92 92 359
Width: 1023
VWidth: 1080
Flags: W
HStem: 11 135<881.323 942.742 944.328 1000.93> 627 124<156.713 210.855>
LayerCount: 2
Fore
SplineSet
898 146 m 1
 900 146 917 156 944 156 c 0
 951 156 958 155 966 152 c 0
 988 144 1022 131 1030 96 c 0
 1031 92 1032 87 1032 83 c 0
 1032 47 997 32 994 28 c 0
 990 22 985 19 977 17 c 1
 943 13 919 11 897 11 c 0
 854 11 826 17 759 17 c 0
 751 17 746 20 740 25 c 1
 729 37 681 52 681 93 c 0
 681 96 681 99 682 102 c 0
 686 120 701 127 713 128 c 1
 712 130 711 132 711 133 c 1
 601 255 579 269 461 385 c 0
 230 613 352 512 211 632 c 1
 208 631 199 627 183 627 c 0
 174 627 164 630 155 636 c 0
 137 648 125 668 125 689 c 0
 125 698 127 707 132 715 c 0
 135 720 139 723 145 725 c 1
 198 744 211 751 234 751 c 0
 247 751 246 754 266 754 c 0
 275 754 290 753 314 751 c 0
 318 751 345 745 349 743 c 1
 366 735 386 718 386 693 c 0
 386 691 386 688 385 686 c 0
 384 679 372 664 361 656 c 1
 419 601 375 613 526 485 c 0
 668 364 716 319 898 146 c 1
EndSplineSet
Validated: 1
EndChar

StartChar: bracketright
Encoding: 93 93 360
Width: 332
Flags: W
HStem: -7 103<25.0061 110.707> 673 72<249.438 340.779>
LayerCount: 2
Fore
SplineSet
111 8 m 0
 105 8 83 -7 58 -7 c 0
 45 -7 32 -3 20 7 c 0
 10 15 6 25 6 36 c 0
 6 47 12 59 19 68 c 0
 51 104 84 87 95 96 c 0
 150 144 135 176 177 260 c 0
 207 319 267 471 296 530 c 0
 325 589 341 626 341 647 c 0
 341 665 329 672 302 673 c 0
 291 673 279 666 268 666 c 0
 259 666 251 670 244 683 c 0
 241 689 240 694 240 699 c 0
 240 712 248 723 257 730 c 0
 273 742 288 745 303 745 c 0
 322 745 340 739 354 739 c 0
 359 739 364 740 368 743 c 0
 370 744 381 745 395 745 c 0
 428 745 479 739 479 714 c 0
 479 706 474 696 462 684 c 1
 412 565 387 477 319 301 c 1
 212 28 l 2
 209 20 205 16 197 13 c 0
 172 5 162 0 153 0 c 0
 144 0 136 5 111 8 c 0
EndSplineSet
Validated: 1
EndChar

StartChar: asciicircum
Encoding: 94 94 361
Width: 346
VWidth: 1080
Flags: W
HStem: 453 286
VStem: 95 148<463.16 542.297> 287 130<461.424 529.924>
LayerCount: 2
Fore
SplineSet
256 544 m 1
 252 528 246 504 243 483 c 0
 240 462 208 453 174 453 c 0
 136 453 95 465 95 489 c 0
 95 491 96 494 97 497 c 0
 121 563 138 598 193 705 c 1
 196 709 199 712 203 714 c 0
 227 726 252 739 279 739 c 0
 293 739 306 736 321 728 c 1
 324 726 326 724 328 721 c 0
 370 659 371 629 389 577 c 0
 399 547 408 518 416 490 c 0
 417 488 417 486 417 484 c 0
 417 460 368 450 328 450 c 0
 301 450 279 454 279 462 c 0
 279 463 280 465 282 467 c 0
 286 470 287 474 287 479 c 0
 287 497 267 526 256 544 c 1
EndSplineSet
Validated: 1
EndChar

StartChar: grave
Encoding: 96 96 363
Width: 330
VWidth: 1080
Flags: W
HStem: 458 285
VStem: 128 290
LayerCount: 2
Fore
SplineSet
368 464 m 0
 303 505 288 529 242 566 c 0
 212 591 171 599 142 650 c 0
 138 657 128 673 128 692 c 0
 128 702 131 712 140 722 c 0
 155 738 172 743 188 743 c 0
 214 743 240 730 258 722 c 0
 308 699 320 662 346 635 c 1
 348 633 349 631 351 629 c 0
 371 588 418 554 418 481 c 1
 412 460 410 458 389 458 c 0
 368 464 l 0
EndSplineSet
Validated: 1
EndChar

StartChar: a
Encoding: 97 97 364
Width: 505
VWidth: 1000
Flags: W
HStem: 399 132<331.821 381.859>
VStem: 34 160<108.5 222.039>
LayerCount: 2
Fore
SplineSet
195 150 m 4
 198 149 201 148 204 148 c 4
 220 148 237 168 270 195 c 4
 320 236 338 266 368 327 c 4
 380 353 388 364 388 378 c 4
 388 381 388 384 387 387 c 4
 385 397 384 397 382 398 c 4
 379 399 376 399 373 399 c 4
 356 399 344 386 315 364 c 4
 277 335 267 310 237 263 c 4
 215 227 201 215 197 185 c 4
 195 168 194 159 194 155 c 4
 194 152 194 150 195 150 c 4
462 150 m 5
 464 150 468 152 473 152 c 4
 480 152 488 148 498 133 c 4
 503 124 505 114 505 104 c 4
 505 71 483 34 443 19 c 4
 424 12 402 3 378 3 c 4
 362 3 346 6 330 17 c 4
 304 35 300 60 298 81 c 5
 271 50 241 11 174 11 c 4
 163 11 150 13 137 15 c 4
 110 21 74 25 51 61 c 4
 38 80 34 99 34 118 c 4
 34 141 41 163 46 184 c 4
 64 264 95 308 142 369 c 4
 184 425 217 461 279 498 c 4
 309 516 337 531 377 531 c 4
 380 531 384 531 387 531 c 4
 445 528 459 503 468 493 c 5
 472 493 482 529 516 529 c 4
 518 529 519 529 521 529 c 4
 565 524 579 478 579 462 c 4
 579 461 579 460 579 459 c 4
 566 366 516 333 487 260 c 5
 466 214 447 201 447 175 c 4
 447 174 447 172 447 170 c 4
 448 164 460 167 462 150 c 5
EndSplineSet
Validated: 1
EndChar

StartChar: b
Encoding: 98 98 365
Width: 448
VWidth: 1000
Flags: W
HStem: 5 99<141.5 247.952> 330 98<293.347 405>
VStem: 174 272<665.47 740.648> 372 122<261.661 352.5>
LayerCount: 2
Fore
SplineSet
195 104 m 0xd0
 246 107 262 143 310 193 c 1
 326 217 334 235 358 268 c 1
 366 292 372 305 372 314 c 0
 372 319 370 323 367 327 c 0
 366 329 364 330 359 330 c 0
 354 330 347 329 335 326 c 0
 295 316 281 298 244 264 c 0
 214 236 199 224 188 193 c 0
 181 173 176 158 176 144 c 0
 176 133 179 123 186 111 c 0
 191 104 193 104 195 104 c 0xd0
231 650 m 1
 213 654 193 659 187 665 c 0
 178 675 174 687 174 699 c 0
 174 711 178 722 187 732 c 0
 206 753 229 757 251 757 c 0
 268 757 284 754 297 754 c 0
 300 754 302 755 305 755 c 0
 309 756 317 756 327 756 c 0
 358 756 411 752 422 743 c 0
 440 728 446 713 446 699 c 0xe0
 446 671 420 648 408 643 c 0
 385 634 391 645 386 640 c 0
 322 569 333 522 298 447 c 1
 288 405 l 1
 298 412 344 428 390 428 c 0
 420 428 449 422 470 401 c 0
 488 382 494 362 494 343 c 0
 494 315 482 288 478 266 c 0
 477 265 477 264 477 263 c 0
 441 170 402 146 359 95 c 0
 357 93 355 91 353 90 c 0
 317 67 296 34 238 19 c 0
 210 11 182 5 155 5 c 0
 128 5 101 11 73 27 c 0
 38 47 37 82 30 93 c 0
 27 99 26 104 28 110 c 0
 61 226 77 234 91 288 c 0
 91 289 91 289 91 290 c 2
 194 567 l 2
 208 607 221 634 231 650 c 1
EndSplineSet
Validated: 1
EndChar

StartChar: c
Encoding: 99 99 366
Width: 362
VWidth: 1000
Flags: W
HStem: 385 144<249.543 317.026>
VStem: 38 152<153.25 289.282>
LayerCount: 2
Fore
SplineSet
369 349 m 4
 365 348 360 347 357 347 c 4
 326 347 311 381 311 381 c 4
 300 384 292 385 286 385 c 4
 278 385 272 383 266 379 c 5
 225 342 225 324 202 264 c 4
 190 230 187 218 187 211 c 4
 187 204 190 203 190 193 c 4
 190 192 190 191 190 190 c 4
 190 189 190 189 190 188 c 4
 190 156 208 153 214 153 c 4
 215 153 216 153 216 153 c 4
 216 154 215 154 215 155 c 4
 215 161 225 169 255 172 c 4
 260 172 271 175 284 175 c 4
 302 175 323 170 334 145 c 4
 339 135 341 126 341 117 c 4
 341 80 305 53 284 37 c 4
 253 14 221 3 187 3 c 4
 173 3 158 5 143 9 c 4
 95 21 80 57 58 75 c 4
 54 78 51 82 50 87 c 4
 41 117 38 146 38 172 c 4
 38 257 72 316 72 316 c 4
 129 383 144 463 242 512 c 4
 265 524 288 529 310 529 c 4
 327 529 344 526 362 521 c 4
 382 515 419 506 429 467 c 4
 431 458 433 448 433 439 c 4
 433 400 412 360 369 349 c 4
EndSplineSet
Validated: 1
EndChar

StartChar: d
Encoding: 100 100 367
Width: 489
VWidth: 1000
Flags: W
HStem: 0 119<143.5 210.265> 468 20G<354.5 373>
VStem: 26 143<104 175.892> 378 262<620.327 700.964>
LayerCount: 2
Fore
SplineSet
171 121 m 4
 173 120 175 119 178 119 c 4
 194 119 217 149 252 187 c 4
 283 220 294 240 300 284 c 4
 303 301 302 301 301 301 c 4
 293 309 281 314 271 314 c 4
 267 314 262 313 259 311 c 5
 234 273 224 238 198 194 c 5
 183 151 169 133 169 125 c 4
 169 123 170 122 171 121 c 4
272 133 m 5
 269 133 263 47 221 23 c 4
 195 9 175 0 149 0 c 4
 138 0 127 0 114 4 c 4
 74 15 44 40 31 79 c 4
 28 90 26 99 26 109 c 4
 26 143 46 169 56 194 c 4
 82 257 113 286 146 338 c 4
 166 371 271 472 302 480 c 4
 326 486 346 488 363 488 c 4
 383 488 398 485 409 481 c 5
 428 540 l 6
 435 560 445 592 449 605 c 5
 428 608 393 617 384 635 c 4
 380 643 378 651 378 658 c 4
 378 686 406 705 419 721 c 4
 437 746 462 757 525 757 c 4
 545 757 569 756 597 754 c 4
 603 754 607 752 611 748 c 4
 633 731 640 711 640 692 c 4
 640 656 617 621 609 595 c 4
 601 570 524 463 483 318 c 4
 470 268 433 224 427 208 c 5
 429 206 500 186 504 120 c 4
 504 113 502 108 497 102 c 4
 462 66 424 25 375 0 c 4
 369 -3 363 -2 357 0 c 6
 297 16 l 5
 285 22 282 22 279 29 c 4
 269 51 266 58 266 67 c 4
 266 77 269 93 272 133 c 5
EndSplineSet
Validated: 1
EndChar

StartChar: e
Encoding: 101 101 368
Width: 336
VWidth: 1000
Flags: W
HStem: 0 126<129.5 204.942> 501 20G<306 331>
VStem: 28 139<126.178 205.231> 298 109<353.388 446.5>
LayerCount: 2
Fore
SplineSet
184 126 m 5
 197 126 199 147 238 169 c 4
 242 171 256 191 283 191 c 4
 286 191 289 190 292 190 c 4
 319 186 327 164 327 164 c 4
 331 159 334 155 335 148 c 4
 335 146 335 144 335 142 c 4
 335 78 206 23 204 22 c 4
 187 19 165 0 134 0 c 4
 125 0 115 3 104 7 c 4
 66 20 45 49 34 84 c 4
 29 99 28 113 28 127 c 4
 28 165 43 196 53 230 c 4
 72 295 87 338 128 396 c 4
 158 439 183 477 241 500 c 4
 263 509 291 521 321 521 c 4
 341 521 362 515 381 497 c 4
 400 478 407 457 407 436 c 4
 407 407 395 378 386 356 c 4
 369 308 338 288 306 262 c 4
 243 210 195 226 174 190 c 4
 169 181 167 172 167 164 c 4
 167 143 181 126 184 126 c 5
222 316 m 5
 251 319 267 327 283 353 c 4
 293 370 298 381 298 390 c 4
 298 396 296 401 293 405 c 4
 292 406 288 410 268 403 c 4
 249 396 242 388 229 363 c 5
 226 349 226 334 222 316 c 5
EndSplineSet
Validated: 1
EndChar

StartChar: f
Encoding: 102 102 369
Width: 358
VWidth: 1000
Flags: W
HStem: -262 117<-129.978 -80.6429> 485 20G<352.5 365> 599 155<453.053 556.456> 653 101<382.978 420.89>
LayerCount: 2
Fore
SplineSet
148 376 m 1xd0
 144 376 129 371 104 371 c 1
 86 374 80 377 79 395 c 0
 79 397 79 399 79 400 c 0
 79 447 116 475 129 488 c 0
 133 491 138 493 144 494 c 2
 189 498 l 1
 191 502 192 506 192 511 c 0
 192 514 191 517 191 521 c 0
 191 537 195 563 233 621 c 0
 233 622 234 623 235 623 c 0
 263 656 273 696 325 727 c 0
 363 749 396 754 435 754 c 0
 439 754 444 754 448 754 c 0xd0
 458 754 470 755 482 755 c 0
 512 755 545 750 570 719 c 0
 580 707 584 693 584 679 c 0
 584 639 548 599 501 599 c 0
 499 599 496 599 494 599 c 0xe0
 460 602 449 629 444 633 c 0
 428 646 427 650 421 652 c 0
 419 653 394 653 394 653 c 1
 384 641 390 644 357 571 c 1
 349 547 355 524 345 504 c 1
 348 504 351 505 354 505 c 0
 376 505 406 495 421 471 c 0
 426 463 426 457 423 449 c 0
 418 438 421 409 391 387 c 0
 367 370 344 365 325 365 c 0
 311 365 299 367 290 371 c 0
 285 373 276 369 276 369 c 1
 238 287 299 400 189 132 c 0
 169 84 159 54 135 5 c 0
 104 -60 91 -105 42 -167 c 0
 10 -207 -18 -221 -49 -249 c 0
 -55 -254 -88 -262 -127 -262 c 0
 -169 -262 -219 -253 -252 -223 c 0
 -258 -217 -260 -211 -260 -203 c 0
 -260 -196 -266 -181 -266 -164 c 0
 -266 -150 -262 -134 -247 -119 c 0
 -232 -105 -216 -100 -199 -100 c 0
 -185 -100 -170 -104 -159 -108 c 0
 -124 -119 -128 -140 -123 -142 c 0
 -120 -144 -116 -145 -113 -145 c 0
 -93 -145 -75 -109 -42 -91 c 1
 3 -14 26 93 55 160 c 0
 152 385 119 297 147 366 c 1
 146 368 145 371 147 374 c 0
 147 375 148 375 148 376 c 1xd0
EndSplineSet
Validated: 1
EndChar

StartChar: g
Encoding: 103 103 370
Width: 402
VWidth: 1000
Flags: W
HStem: -259 106<78.5 233.04> 306 142<372.724 452.342> 341 123<193.907 279>
VStem: 47 119<186.388 292.563> 234 137<-149.329 -93.6763> 255 118<242.234 313.75>
LayerCount: 2
Fore
SplineSet
188 187 m 4xb4
 210 192 207 211 241 245 c 5
 248 277 255 294 255 310 c 4
 255 318 253 325 248 334 c 4
 246 337 233 341 223 341 c 4
 219 341 215 341 213 339 c 4
 185 318 183 294 173 245 c 4
 169 224 166 213 166 205 c 4
 166 199 167 195 170 191 c 4
 173 186 176 184 188 187 c 4xb4
54 -103 m 4
 53 -107 52 -107 58 -115 c 4
 70 -131 82 -132 114 -141 c 5
 143 -145 159 -153 187 -153 c 4
 198 -153 212 -152 230 -148 c 5
 232 -146 234 -140 234 -131 c 4x98
 234 -122 232 -111 226 -99 c 4
 218 -86 207 -85 174 -75 c 4
 155 -70 144 -66 132 -66 c 4
 126 -66 119 -67 110 -70 c 4
 77 -78 63 -84 54 -103 c 4
337 428 m 5
 344 434 374 448 404 448 c 4
 422 448 439 444 453 430 c 4
 468 416 475 397 475 379 c 4
 475 364 471 350 462 337 c 4
 449 317 427 306 404 306 c 4
 393 306 382 308 372 314 c 5
 373 310 373 306 373 301 c 4xd4
 373 259 343 191 335 181 c 4
 316 157 301 129 260 116 c 5
 236 103 221 107 216 104 c 4
 201 94 197 87 188 67 c 4
 181 50 181 53 182 52 c 4
 204 16 284 51 342 -29 c 4
 361 -55 371 -83 371 -112 c 4
 371 -127 368 -143 363 -159 c 4
 352 -194 326 -209 304 -221 c 4
 260 -247 225 -250 180 -254 c 4
 155 -257 132 -259 110 -259 c 4
 83 -259 56 -256 25 -245 c 4
 -12 -232 -50 -219 -73 -175 c 4
 -81 -160 -85 -143 -85 -127 c 4
 -85 -111 -81 -95 -73 -80 c 4
 -46 -30 -0 -27 26 -10 c 4
 47 3 55 3 62 10 c 4
 75 23 75 24 74 26 c 4
 74 38 32 45 27 98 c 5
 27 112 30 118 42 124 c 4
 67 134 81 137 89 137 c 4
 90 137 91 137 92 137 c 5
 89 143 l 6
 89 143 63 148 52 183 c 4
 48 195 47 205 47 216 c 4
 47 247 61 272 70 295 c 4
 88 343 98 391 151 427 c 4
 190 454 227 464 257 464 c 4xb8
 301 464 331 443 337 428 c 5
EndSplineSet
Validated: 1
EndChar

StartChar: h
Encoding: 104 104 371
Width: 459
VWidth: 1000
Flags: W
HStem: -14 172<225.436 306> 317 124<316.879 375.769>
VStem: 196 229<641.564 721.28> 377 130<219.88 355>
LayerCount: 2
Fore
SplineSet
373 622 m 1xe0
 351 588 373 591 308 466 c 2
 276 407 l 1
 328 432 367 441 397 441 c 0
 436 441 458 426 472 416 c 0
 500 395 507 368 507 342 c 0
 507 324 504 307 502 292 c 0
 495 222 468 181 431 126 c 0
 397 76 369 53 328 21 c 0
 326 19 321 -8 288 -13 c 0
 284 -14 280 -14 277 -14 c 0
 235 -14 200 24 200 67 c 0
 200 76 201 84 204 93 c 0
 210 110 225 158 269 158 c 0
 272 158 274 158 276 158 c 0
 296 155 306 149 306 139 c 0
 306 138 306 137 306 136 c 1
 339 185 l 2
 355 207 361 217 368 240 c 0
 373 261 377 272 377 284 c 0xd0
 377 289 376 295 374 301 c 0
 368 316 365 317 362 317 c 0
 360 317 359 317 357 317 c 0
 327 317 315 291 275 254 c 0
 245 226 237 203 207 165 c 1
 174 118 172 43 117 8 c 0
 109 4 103 3 95 6 c 2
 33 27 l 1
 22 34 16 38 16 48 c 0
 16 50 16 52 17 55 c 0
 32 124 50 128 79 202 c 1
 128 322 153 392 206 513 c 0
 222 550 236 562 242 589 c 0
 246 606 248 621 248 627 c 0
 248 630 248 631 247 631 c 0
 246 631 246 631 245 630 c 0
 242 626 237 623 232 623 c 0
 222 623 209 631 201 650 c 0
 198 658 196 666 196 673 c 0
 196 699 215 720 230 733 c 0
 256 755 285 754 307 755 c 0
 317 755 328 757 340 757 c 0
 362 757 385 753 405 731 c 0
 418 717 425 699 425 681 c 0
 425 667 421 653 413 641 c 0
 402 626 383 622 375 622 c 0
 374 622 374 622 373 622 c 1xe0
EndSplineSet
Validated: 1
EndChar

StartChar: k
Encoding: 107 107 374
Width: 438
VWidth: 1000
Flags: W
HStem: 455 20G<405.5 427.5>
VStem: 227 127<111.54 187.767>
LayerCount: 2
Fore
SplineSet
245 296 m 1
 254 294 257 291 264 292 c 0
 302 299 318 305 343 330 c 0
 358 346 365 356 369 362 c 1
 365 360 360 359 351 359 c 0
 344 359 335 360 323 362 c 1
 250 342 252 301 245 296 c 1
377 111 m 0
 377 114 384 118 393 118 c 0
 403 118 416 114 427 99 c 0
 435 90 438 79 438 69 c 0
 438 53 430 38 418 28 c 0
 399 11 378 6 358 6 c 0
 334 6 312 13 293 17 c 0
 267 23 255 37 245 42 c 0
 237 47 233 52 232 61 c 0
 228 104 227 131 227 148 c 0
 227 184 233 174 233 179 c 0
 233 180 232 183 231 188 c 1
 214 190 l 1
 214 189 213 187 213 186 c 0
 213 180 219 177 219 165 c 0
 219 151 211 125 174 68 c 1
 147 15 l 2
 141 5 124 0 104 0 c 0
 75 0 38 13 20 56 c 0
 18 61 17 65 19 70 c 0
 43 173 100 206 100 232 c 0
 100 233 100 234 100 235 c 0
 100 239 100 242 102 246 c 2
 203 489 l 1
 233 629 255 642 267 653 c 1
 215 656 195 675 195 697 c 0
 195 715 210 735 233 747 c 0
 249 755 264 758 278 758 c 0
 300 758 320 751 336 750 c 0
 363 748 379 746 403 744 c 0
 413 742 419 739 424 731 c 0
 433 713 438 693 438 676 c 0
 438 657 432 640 421 630 c 1
 368 528 359 532 329 479 c 1
 329 470 327 463 325 457 c 1
 335 460 345 463 355 464 c 0
 371 466 393 475 418 475 c 0
 437 475 457 469 474 451 c 0
 490 434 496 416 496 398 c 0
 496 371 483 344 471 323 c 0
 446 279 407 275 385 259 c 0
 374 251 354 234 354 234 c 1
 354 153 357 169 365 128 c 24
 366 120 377 111 377 111 c 0
EndSplineSet
Validated: 1
EndChar

StartChar: l
Encoding: 108 108 375
Width: 302
VWidth: 1000
Flags: W
HStem: 92 97<249.625 305.905> 740 20G<296 331.5>
VStem: 216 216<655.468 728.216>
LayerCount: 2
Fore
SplineSet
271 628 m 5
 269 627 266 627 262 627 c 4
 252 627 236 632 223 655 c 4
 218 665 216 674 216 683 c 4
 216 727 270 760 322 760 c 4
 341 760 359 756 375 746 c 5
 421 736 432 709 432 680 c 4
 432 661 427 640 424 623 c 4
 420 600 343 462 304 352 c 4
 298 336 260 265 225 184 c 5
 243 188 258 189 269 189 c 4
 294 189 306 182 316 168 c 4
 321 160 323 152 323 145 c 4
 323 123 306 107 306 106 c 4
 304 100 300 96 294 92 c 4
 254 70 228 62 194 40 c 4
 192 38 190 38 188 37 c 4
 159 27 137 5 89 3 c 4
 88 3 87 3 86 3 c 4
 63 3 48 13 41 15 c 4
 29 19 24 24 23 36 c 4
 23 38 23 41 23 43 c 4
 23 91 48 160 48 160 c 6
 183 449 l 5
 222 530 254 553 271 628 c 5
EndSplineSet
Validated: 1
EndChar

StartChar: m
Encoding: 109 109 376
Width: 741
VWidth: 1000
Flags: W
HStem: 515 20G<680 702.5>
LayerCount: 2
Fore
SplineSet
694 234 m 0
 724 232 772 235 772 205 c 0
 772 198 770 191 765 181 c 0
 723 93 615 28 607 21 c 0
 605 20 578 6 544 6 c 0
 524 6 501 12 480 28 c 0
 472 34 463 57 463 83 c 0
 463 101 468 120 482 134 c 1
 517 206 552 231 582 303 c 0
 587 316 608 344 614 363 c 1
 612 363 607 366 600 365 c 1
 543 337 548 286 462 176 c 0
 461 175 461 175 460 174 c 0
 418 131 393 61 337 8 c 0
 332 3 317 -5 295 -5 c 0
 276 -5 251 2 225 26 c 1
 217 35 214 42 219 54 c 0
 272 182 305 190 349 270 c 0
 375 315 400 325 400 349 c 0
 400 351 399 354 399 356 c 0
 398 366 393 370 387 370 c 0
 386 370 385 370 384 370 c 0
 343 370 330 331 288 278 c 0
 253 235 248 202 218 144 c 0
 218 143 217 141 216 140 c 0
 194 111 198 59 150 11 c 0
 144 7 139 4 132 4 c 0
 131 4 130 4 129 4 c 0
 82 4 48 24 36 65 c 0
 35 69 35 74 36 79 c 0
 78 216 144 269 166 335 c 0
 175 360 176 361 175 363 c 0
 174 363 173 362 165 362 c 0
 147 361 141 355 107 345 c 1
 104 345 101 345 99 345 c 0
 85 345 79 348 76 364 c 0
 74 371 74 377 74 383 c 0
 74 461 192 518 203 528 c 0
 204 528 205 529 205 530 c 0
 230 548 252 554 271 554 c 0
 319 554 348 510 356 488 c 1
 386 507 420 541 465 541 c 0
 486 541 509 534 535 516 c 0
 541 512 549 502 555 486 c 1
 569 494 589 504 620 515 c 0
 639 522 666 535 694 535 c 0
 711 535 729 530 746 516 c 0
 769 497 776 473 776 450 c 0
 776 429 770 407 766 390 c 0
 750 321 707 298 679 254 c 0
 670 239 664 230 659 223 c 1
 668 226 679 234 692 234 c 0
 693 234 693 234 694 234 c 0
EndSplineSet
Validated: 1
EndChar

StartChar: n
Encoding: 110 110 377
Width: 527
VWidth: 1000
Flags: W
HStem: 514 20G<259.5 282.5 441.5 462>
VStem: 394 150<292.11 423.5>
LayerCount: 2
Fore
SplineSet
343 293 m 28
 303 214 242 89 242 89 c 4
 238 85 236 8 182 0 c 4
 174 -1 165 0 157 0 c 4
 110 0 66 19 52 88 c 4
 51 92 51 95 52 99 c 4
 75 189 109 200 126 240 c 4
 147 286 166 297 167 328 c 5
 161 316 145 298 121 298 c 4
 113 298 106 299 97 303 c 4
 74 313 70 334 70 348 c 4
 70 356 71 361 71 361 c 4
 71 363 70 365 70 367 c 4
 70 408 166 475 185 494 c 4
 187 495 189 497 191 498 c 4
 215 512 243 534 276 534 c 4
 289 534 303 530 318 521 c 4
 330 514 345 471 346 449 c 5
 365 466 l 5
 384 488 l 6
 387 490 390 492 394 493 c 4
 402 495 426 521 457 521 c 4
 467 521 478 518 489 512 c 4
 534 486 544 444 544 403 c 4
 544 384 542 365 540 348 c 4
 533 282 489 258 479 222 c 5
 517 222 545 190 545 151 c 4
 545 146 544 141 543 135 c 4
 533 86 489 75 470 60 c 4
 446 41 429 33 407 19 c 4
 406 19 383 11 353 11 c 4
 343 11 333 12 322 14 c 4
 316 15 318 18 314 24 c 4
 306 36 292 57 292 98 c 4
 292 113 332 185 352 238 c 5
 359 273 376 286 385 328 c 4
 389 349 394 363 394 372 c 4
 394 377 392 380 388 381 c 4
 381 381 360 327 343 293 c 28
EndSplineSet
Validated: 1
EndChar

StartChar: o
Encoding: 111 111 378
Width: 354
VWidth: 1000
Flags: W
HStem: 7 116<164.261 211.333> 474 20G<278 306.5>
VStem: 42 122<123.521 255.918>
LayerCount: 2
Fore
SplineSet
165 163 m 4
 164 153 164 144 164 138 c 4
 164 128 165 123 171 123 c 4
 176 123 183 126 194 132 c 4
 221 147 225 166 247 206 c 4
 274 255 287 280 294 331 c 4
 298 358 298 360 296 362 c 4
 292 367 286 369 269 363 c 4
 236 351 227 330 204 290 c 4
 177 243 168 216 165 163 c 4
74 52 m 4
 47 80 42 112 42 142 c 4
 42 153 43 163 43 173 c 4
 45 232 60 270 86 320 c 4
 117 380 137 444 214 477 c 4
 239 488 265 494 291 494 c 4
 322 494 352 485 379 461 c 4
 402 440 407 415 407 392 c 4
 407 379 405 366 405 355 c 4
 400 261 378 201 332 121 c 4
 308 80 288 32 227 14 c 4
 211 9 195 7 179 7 c 4
 140 7 104 22 74 52 c 4
EndSplineSet
Validated: 1
EndChar

StartChar: p
Encoding: 112 112 379
Width: 413
VWidth: 1000
Flags: W
HStem: -286 124<-82.1484 -0.691452> 407 215<268 348.757>
VStem: 200 161<495.476 599.181> 200 149<485.258 557.417> 351 98<260.497 406.128>
LayerCount: 2
Fore
SplineSet
313 396 m 5xc8
 280 367 280 312 256 243 c 5
 246 200 235 181 231 146 c 5
 261 137 254 132 258 133 c 4
 286 143 278 171 315 224 c 5
 336 278 344 301 351 372 c 5
 350 397 348 407 339 407 c 4
 333 407 325 403 313 396 c 5xc8
-10 -168 m 5
 32 -57 43 -9 91 129 c 5
 149 344 l 5
 139 329 125 314 106 303 c 4
 96 297 89 295 83 295 c 4
 72 386 l 5
 73 391 74 396 78 400 c 4
 141 473 180 468 200 507 c 5
 200 509 201 511 201 514 c 4
 201 521 200 529 200 539 c 4
 200 561 204 588 232 608 c 4
 247 619 261 622 275 622 c 4
 300 622 322 610 334 609 c 5
 349 606 355 602 358 587 c 4
 360 577 361 567 361 559 c 4xe0
 361 525 349 505 349 495 c 5xd0
 363 491 387 478 406 450 c 4
 437 402 449 355 449 308 c 4
 449 274 443 239 433 202 c 4
 419 148 391 119 353 87 c 4
 311 52 277 58 250 38 c 4
 214 10 203 -16 172 -52 c 5
 139 -115 128 -143 124 -154 c 5
 164 -160 181 -182 181 -206 c 4
 181 -226 168 -249 149 -265 c 4
 126 -284 104 -288 83 -288 c 4
 70 -288 57 -286 46 -286 c 4
 41 -286 37 -286 33 -287 c 4
 32 -287 30 -287 29 -287 c 4
 15 -287 13 -286 8 -286 c 4
 2 -286 -9 -287 -53 -291 c 5
 -67 -290 -73 -287 -79 -274 c 5
 -103 -202 l 6
 -106 -190 -104 -183 -96 -175 c 4
 -85 -165 -70 -162 -55 -162 c 4
 -34 -162 -14 -168 -10 -168 c 5
EndSplineSet
Validated: 1
EndChar

StartChar: q
Encoding: 113 113 380
Width: 442
VWidth: 1000
Flags: W
HStem: -282 125<83.1443 168.882 313.144 373.342> 402 117<315.15 428>
VStem: 41 152<142.542 258.638> 367 200<330.837 401.275>
LayerCount: 2
Fore
SplineSet
252 138 m 0
 297 160 287 175 320 250 c 0
 341 297 360 311 364 347 c 0
 366 365 367 378 367 386 c 0
 367 395 365 399 361 401 c 0
 360 402 358 402 357 402 c 0
 332 402 262 342 234 294 c 0
 206 246 193 216 193 181 c 0
 193 170 195 159 197 147 c 0
 198 141 215 134 232 134 c 0
 239 134 246 135 252 138 c 0
502 428 m 1
 505 430 510 432 517 432 c 0
 529 432 545 427 556 410 c 0
 564 400 567 388 567 376 c 0
 567 360 560 343 547 331 c 0
 532 317 515 313 501 313 c 0
 488 313 477 317 476 318 c 1
 456 292 478 265 427 152 c 0
 403 98 364 20 325 -126 c 0
 320 -147 316 -155 313 -159 c 1
 316 -157 323 -155 331 -155 c 0
 343 -155 360 -159 374 -175 c 0
 390 -192 393 -211 393 -226 c 0
 393 -231 392 -237 392 -241 c 0
 392 -243 393 -245 393 -247 c 1
 394 -260 392 -267 380 -274 c 0
 368 -281 354 -283 338 -283 c 0
 310 -283 278 -276 249 -276 c 0
 243 -276 238 -276 233 -277 c 0
 230 -277 227 -277 225 -276 c 0
 220 -275 214 -275 209 -275 c 0
 186 -275 162 -282 135 -282 c 0
 125 -282 114 -281 102 -278 c 0
 91 -275 86 -270 83 -259 c 0
 83 -257 65 -237 65 -212 c 0
 65 -202 67 -191 75 -180 c 0
 88 -161 103 -157 117 -157 c 0
 132 -157 145 -162 149 -162 c 0
 150 -162 151 -162 151 -162 c 0
 178 -141 169 -111 192 -58 c 0
 206 -24 220 4 231 24 c 1
 188 19 170 10 152 10 c 0
 144 10 135 12 123 17 c 0
 72 37 41 95 41 167 c 0
 41 190 44 214 51 239 c 0
 75 324 118 365 173 425 c 0
 194 448 245 508 361 514 c 0
 377 515 397 519 416 519 c 0
 440 519 465 513 488 491 c 0
 503 477 507 462 507 450 c 0
 507 440 504 432 502 428 c 1
EndSplineSet
Validated: 1
EndChar

StartChar: r
Encoding: 114 114 381
Width: 401
VWidth: 1000
Flags: W
HStem: 456 20G<220.5 243 414 425.5>
LayerCount: 2
Fore
SplineSet
168 358 m 1
 161 358 110 300 108 293 c 1
 99 290 92 288 87 288 c 0
 80 288 76 293 71 308 c 0
 67 319 66 328 66 337 c 0
 66 397 133 425 141 441 c 0
 187 470 l 0
 198 473 213 476 228 476 c 0
 258 476 289 465 301 421 c 1
 311 431 327 441 345 446 c 1
 353 449 367 467 402 469 c 0
 406 469 411 470 417 470 c 0
 434 470 458 466 471 441 c 0
 477 430 479 419 479 409 c 0
 479 378 457 353 446 336 c 0
 442 329 428 295 395 295 c 0
 393 295 391 295 389 295 c 0
 359 298 373 308 364 331 c 0
 361 338 358 341 354 341 c 0
 337 341 311 269 271 215 c 0
 231 162 222 119 175 58 c 0
 163 43 151 3 105 -5 c 0
 100 -6 96 -6 91 -6 c 0
 64 -6 41 7 30 35 c 0
 26 45 24 55 24 64 c 0
 24 104 57 131 68 152 c 0
 101 220 139 240 155 297 c 0
 164 329 170 346 170 353 c 0
 170 356 170 357 168 358 c 1
EndSplineSet
Validated: 1
EndChar

StartChar: s
Encoding: 115 115 382
Width: 324
VWidth: 1080
Flags: W
HStem: 0 183<55.0683 150.498> 336 172<260.387 358.109>
VStem: 184 129<148.078 248.348>
LayerCount: 2
Fore
SplineSet
256 340 m 1
 259 340 281 338 295 304 c 0
 308 273 313 245 313 217 c 0
 313 187 307 157 296 125 c 0
 281 83 262 49 218 27 c 0
 190 12 156 0 122 0 c 0
 99 0 75 5 53 24 c 0
 33 43 24 68 24 93 c 0
 24 139 54 183 103 183 c 0
 109 183 116 183 123 181 c 0
 150 175 150 167 151 156 c 0
 152 136 169 149 171 150 c 0
 181 159 184 169 184 180 c 0
 184 216 144 263 144 330 c 0
 144 337 144 345 145 352 c 0
 148 374 145 397 161 427 c 0
 173 451 189 471 218 484 c 0
 240 494 270 508 300 508 c 0
 320 508 340 502 359 486 c 0
 379 467 390 442 390 416 c 0
 390 395 382 374 368 357 c 0
 355 341 337 336 319 336 c 0
 293 336 268 348 260 357 c 1
 256 353 254 348 256 340 c 1
EndSplineSet
Validated: 1
EndChar

StartChar: t
Encoding: 116 116 383
Width: 338
VWidth: 1080
Flags: W
HStem: 497 20G<154.5 170.5>
VStem: 77 331<387.848 485.033>
LayerCount: 2
Fore
SplineSet
193 510 m 5
 200 518 199 524 211 593 c 4
 212 600 216 605 223 609 c 4
 232 615 248 645 287 645 c 4
 288 645 288 645 289 645 c 4
 327 644 342 613 350 606 c 4
 360 599 373 571 373 542 c 4
 373 527 369 512 359 500 c 5
 392 496 408 471 408 444 c 4
 408 422 398 398 379 381 c 4
 364 368 347 364 333 364 c 4
 318 364 306 369 303 371 c 5
 263 307 238 306 209 195 c 5
 226 211 243 217 259 217 c 4
 291 217 316 191 316 156 c 4
 316 153 315 149 315 146 c 4
 304 76 242 57 201 33 c 4
 183 22 161 4 130 4 c 4
 123 4 117 4 110 6 c 4
 74 14 51 40 42 74 c 4
 38 88 37 101 37 113 c 4
 37 173 75 215 92 263 c 4
 112 315 127 324 142 378 c 5
 137 376 132 375 127 375 c 4
 101 375 77 400 77 432 c 4
 77 451 86 474 109 495 c 4
 128 512 147 517 162 517 c 4
 179 517 191 510 193 510 c 5
EndSplineSet
Validated: 1
EndChar

StartChar: u
Encoding: 117 117 384
Width: 510
VWidth: 1080
Flags: W
HStem: -4 21G<333 355> 497 20G<214.5 236.5 478 499>
LayerCount: 2
Fore
SplineSet
412 149 m 24
 443 173 429 221 483 221 c 0
 484 221 486 221 488 221 c 0
 522 218 524 187 524 187 c 1
 529 179 531 172 527 163 c 0
 495 76 416 28 416 28 c 0
 396 22 375 -4 335 -4 c 0
 331 -4 326 -4 321 -3 c 0
 257 6 252 64 251 77 c 1
 224 49 186 26 167 22 c 0
 162 20 147 5 123 5 c 0
 115 5 107 7 98 11 c 0
 54 31 44 72 41 108 c 0
 41 112 41 116 41 120 c 0
 41 192 81 232 106 285 c 0
 115 304 131 322 139 332 c 1
 132 333 113 337 101 343 c 0
 81 353 75 369 75 386 c 0
 75 400 79 413 82 421 c 0
 99 467 131 491 171 507 c 0
 190 515 207 517 222 517 c 0
 251 517 275 509 300 509 c 1
 314 507 320 504 324 491 c 0
 327 482 328 473 328 465 c 0
 328 417 286 383 276 350 c 0
 251 274 228 264 205 179 c 1
 205 179 208 179 221 188 c 1
 329 258 358 358 368 377 c 0
 387 408 387 476 448 517 c 0
 460 525 472 528 484 528 c 0
 514 528 538 507 541 488 c 0
 542 480 543 472 543 465 c 0
 543 383 478 332 452 265 c 0
 433 214 414 200 413 167 c 0
 412 150 406 145 412 149 c 24
EndSplineSet
Validated: 1
EndChar

StartChar: v
Encoding: 118 118 385
Width: 692
VWidth: 1080
Flags: W
HStem: 12 158<433.5 542.148> 429 109<232.801 351.086>
VStem: 69 135<298.5 404.203> 284 159<179.811 273.877> 620 141<296.5 467>
LayerCount: 2
Fore
SplineSet
619 354 m 8
 617 370 595 374 591 383 c 0
 583 402 576 424 576 446 c 0
 576 469 583 492 604 511 c 0
 623 529 647 538 670 538 c 0
 695 538 719 529 738 511 c 0
 756 495 761 476 761 458 c 0
 761 438 755 419 753 405 c 0
 735 294 702 228 641 136 c 0
 612 94 591 54 534 30 c 0
 504 17 476 12 448 12 c 0
 419 12 390 18 359 30 c 0
 324 43 316 64 299 101 c 0
 288 125 284 148 284 170 c 0
 284 196 290 222 298 250 c 0
 316 313 339 327 350 366 c 0
 354 380 356 388 356 393 c 0
 356 397 355 400 353 404 c 0
 343 420 330 424 299 428 c 0
 296 428 294 429 291 429 c 0
 281 429 275 425 258 418 c 0
 227 404 217 403 211 389 c 0
 207 382 204 372 204 364 c 0
 204 358 206 353 213 353 c 0
 214 353 214 353 215 353 c 0
 218 353 223 356 229 356 c 0
 238 356 250 351 261 328 c 0
 268 314 271 300 271 287 c 0
 271 235 226 195 175 195 c 0
 153 195 129 203 108 222 c 0
 78 249 69 282 69 315 c 0
 69 336 72 357 77 376 c 0
 88 427 117 453 150 480 c 0
 186 510 260 534 260 534 c 0
 292 537 324 538 351 538 c 0
 395 538 427 535 430 534 c 2
 526 492 l 1
 536 485 542 480 542 471 c 0
 542 468 541 465 540 461 c 0
 510 363 478 348 456 287 c 1
 443 231 442 252 442 232 c 1
 443 230 443 228 443 225 c 0
 443 222 443 218 443 214 c 0
 443 202 445 188 465 180 c 0
 476 176 485 170 495 170 c 0
 499 170 502 170 506 172 c 0
 576 202 620 260 620 333 c 0
 620 340 620 347 619 354 c 8
EndSplineSet
Validated: 1
EndChar

StartChar: w
Encoding: 119 119 386
Width: 941
VWidth: 1080
Flags: W
HStem: 4 142<409 491.427> 8 155<721.648 804.366> 394 130<236.53 357.389> 506 20G<406 429 679 699.5>
VStem: 287 137<147.697 252.33> 614 160<389.462 476.315> 823 184<343.566 479.028>
LayerCount: 2
Fore
SplineSet
884 330 m 1x4e
 872 330 858 333 848 341 c 0
 828 357 823 377 823 396 c 0
 823 409 825 420 827 430 c 0
 832 455 840 484 869 502 c 0
 886 511 906 518 926 518 c 0
 944 518 961 513 977 499 c 0
 1000 478 1007 453 1007 428 c 0
 1007 403 1000 377 997 356 c 0
 989 301 966 272 947 229 c 0
 916 162 906 96 845 41 c 0
 817 17 787 8 756 8 c 0x4e
 733 8 710 13 688 20 c 0
 628 40 604 101 598 120 c 1
 588 108 572 92 551 72 c 0
 529 51 511 24 469 12 c 0
 452 7 436 4 420 4 c 0
 398 4 377 9 356 22 c 0
 308 50 300 89 290 141 c 0
 288 149 287 157 287 165 c 0
 287 231 339 302 352 351 c 0
 358 374 358 375 358 375 c 0
 345 388 330 394 312 394 c 0xae
 292 394 269 387 243 375 c 0
 222 366 215 357 215 348 c 0
 215 347 215 347 215 346 c 0
 215 345 249 347 267 304 c 0
 273 289 279 271 279 254 c 0
 279 237 274 220 261 204 c 0
 245 184 220 174 194 174 c 0
 133 174 61 226 61 309 c 0
 61 332 67 359 81 387 c 0
 109 446 148 482 209 506 c 0x1e
 245 521 275 524 305 524 c 0x2e
 322 524 339 523 356 522 c 0
 358 522 359 522 361 522 c 0
 378 522 396 526 416 526 c 0
 442 526 469 518 496 483 c 0
 506 470 510 456 510 444 c 0
 510 416 492 391 485 375 c 0
 454 299 424 274 424 216 c 0
 424 209 424 202 425 195 c 0
 429 159 428 152 434 149 c 0
 439 147 443 146 448 146 c 0x9e
 465 146 484 162 517 188 c 0
 538 205 542 225 564 257 c 1
 595 320 578 385 614 472 c 0
 616 475 618 478 621 481 c 0
 649 504 670 514 688 514 c 0
 711 514 729 500 749 479 c 0
 768 460 774 439 774 418 c 0
 774 382 755 346 749 318 c 0
 739 272 716 262 715 242 c 0
 714 233 714 225 714 218 c 0
 714 198 718 186 731 175 c 0
 739 167 747 163 757 163 c 0
 763 163 770 164 777 167 c 0
 821 183 821 225 861 272 c 1
 874 299 881 318 884 330 c 1x4e
EndSplineSet
Validated: 1
EndChar

StartChar: x
Encoding: 120 120 387
Width: 578
VWidth: 1080
Flags: W
HStem: 467 20G<293.5 311.5 542 563.5>
VStem: 133 127<306.486 360.094> 434 128<140.318 196.982>
LayerCount: 2
Fore
SplineSet
260 360 m 1
 260 359 260 356 260 354 c 0
 260 343 258 319 232 302 c 0
 222 294 206 286 188 286 c 0
 179 286 169 288 158 294 c 0
 139 304 133 319 133 334 c 0
 133 360 151 388 159 401 c 0
 187 448 225 471 276 484 c 0
 283 486 290 487 297 487 c 0
 326 487 355 476 355 476 c 0
 385 459 394 422 394 395 c 0
 394 382 392 371 389 368 c 1
 416 376 363 346 476 465 c 0
 479 468 482 471 487 472 c 0
 502 477 524 502 560 502 c 0
 567 502 575 501 584 498 c 0
 614 489 633 465 637 435 c 0
 637 433 637 430 637 427 c 0
 637 377 588 283 554 283 c 0
 544 283 536 290 530 308 c 0
 526 321 523 332 522 340 c 1
 521 340 521 340 520 340 c 0
 513 340 504 334 483 318 c 0
 452 295 441 280 425 244 c 0
 419 229 416 222 416 212 c 0
 416 208 416 203 417 198 c 0
 422 164 430 139 433 139 c 0
 433 139 434 140 434 141 c 0
 436 149 427 189 471 205 c 0
 480 208 492 211 504 211 c 0
 524 211 545 204 556 181 c 0
 561 172 562 163 562 156 c 0
 562 124 531 101 525 91 c 0
 511 67 501 34 461 15 c 0
 446 8 429 4 413 4 c 0
 397 4 381 8 366 16 c 0
 340 30 337 48 325 76 c 0
 315 100 312 114 312 125 c 0
 312 138 316 147 316 164 c 0
 316 166 316 168 316 170 c 1
 293 142 269 106 259 97 c 0
 207 57 180 32 130 9 c 0
 127 8 123 9 120 7 c 0
 119 7 107 0 92 0 c 0
 81 0 69 3 57 15 c 0
 36 37 26 65 26 93 c 0
 26 154 69 214 120 214 c 0
 132 214 144 211 157 203 c 0
 174 193 177 172 177 156 c 1
 214 204 245 230 259 275 c 0
 269 308 277 328 277 342 c 0
 277 349 276 354 271 360 c 0
 270 362 267 364 260 360 c 1
EndSplineSet
Validated: 1
EndChar

StartChar: y
Encoding: 121 121 388
Width: 397
VWidth: 1080
Flags: W
HStem: 450 20G<354 384.5>
VStem: 61 196<278.091 393.165> 288 165<354.48 444.312>
LayerCount: 2
Fore
SplineSet
337 344 m 1
 331 344 297 350 289 387 c 0
 288 391 288 394 288 398 c 0
 288 439 332 470 376 470 c 0
 393 470 410 465 425 454 c 0
 457 430 452 395 453 375 c 0
 453 374 453 373 453 372 c 0
 453 285 343 90 313 27 c 0
 302 5 297 -11 281 -36 c 0
 219 -132 197 -126 102 -259 c 0
 99 -263 95 -266 90 -268 c 0
 76 -272 64 -274 54 -274 c 0
 9 -274 -3 -236 -3 -199 c 0
 -3 -195 -3 -192 -3 -188 c 0
 -3 -184 -2 -181 0 -178 c 0
 47 -95 102 -70 147 -13 c 1
 151 13 156 53 156 103 c 0
 156 132 155 163 151 196 c 1
 149 226 148 252 147 274 c 1
 142 268 136 265 128 265 c 0
 127 265 121 260 110 260 c 0
 103 260 94 263 84 272 c 0
 67 287 61 306 61 324 c 0
 61 341 67 358 72 371 c 0
 88 413 118 425 154 441 c 0
 186 455 196 456 214 458 c 0
 222 458 237 459 241 452 c 0
 257 424 257 415 257 404 c 0
 257 402 l 0
 257 397 258 392 259 384 c 0
 272 319 259 168 274 168 c 0
 277 168 281 173 286 184 c 1
 332 279 306 256 337 324 c 1
 336 332 336 341 337 344 c 1
EndSplineSet
Validated: 1
EndChar

StartChar: z
Encoding: 122 122 389
Width: 589
VWidth: 1080
Flags: W
HStem: 0 142<342.68 479.758> 389 116<212.414 277.865> 499 20G<520 538.5>
VStem: 68 144<278.102 387.996> 454 150<438.047 492.249>
LayerCount: 2
Fore
SplineSet
483 161 m 1xb8
 492 161 486 211 531 214 c 0
 533 214 534 214 535 214 c 0
 572 214 586 178 592 162 c 0
 598 146 602 129 602 112 c 0
 602 92 597 73 583 54 c 0
 555 16 515 22 491 17 c 0
 457 9 430 0 396 0 c 0
 385 0 374 2 361 4 c 0
 322 10 302 27 276 41 c 0
 228 66 222 92 204 92 c 0
 203 92 202 92 201 92 c 0
 186 90 194 55 146 26 c 0
 139 21 125 10 107 10 c 0
 101 10 95 11 88 14 c 0
 60 25 39 51 39 82 c 0
 39 87 39 91 40 96 c 0
 55 175 135 182 175 209 c 0
 233 251 315 279 363 318 c 1
 365 322 366 326 366 329 c 0
 366 356 298 359 263 371 c 0
 231 383 223 389 219 389 c 0
 218 389 217 389 216 388 c 0
 213 386 212 383 212 378 c 0
 212 369 216 355 216 338 c 0
 216 321 212 302 195 283 c 0
 192 279 188 277 184 275 c 0
 184 275 165 252 137 252 c 0
 129 252 120 254 111 259 c 0
 78 277 68 308 68 338 c 0
 68 356 72 373 75 388 c 0
 84 431 110 456 142 476 c 0
 173 495 202 505 236 505 c 0xd8
 246 505 257 504 268 502 c 0
 325 492 344 455 376 440 c 0
 390 433 406 423 422 423 c 0
 432 423 442 427 453 438 c 0
 454 439 454 440 454 442 c 0
 454 445 453 450 453 455 c 0
 453 470 457 491 482 506 c 0
 496 515 512 519 528 519 c 0
 549 519 570 511 585 493 c 0
 599 477 604 460 604 443 c 0
 604 418 593 393 582 375 c 0
 552 323 505 321 476 301 c 0
 430 268 403 254 365 219 c 0
 335 191 323 189 323 183 c 0
 324 169 339 166 379 150 c 0
 393 144 405 142 415 142 c 0
 446 142 458 163 474 163 c 0
 476 163 480 162 483 161 c 1xb8
EndSplineSet
Validated: 1
EndChar

StartChar: bar
Encoding: 124 124 391
Width: 318
VWidth: 1080
Flags: W
VStem: 14 170<18.0125 104.75>
LayerCount: 2
Fore
SplineSet
184 56 m 4
 179 17 139 0 100 0 c 4
 57 0 14 20 14 45 c 4
 14 51 16 58 22 65 c 5
 140 388 76 236 245 701 c 5
 245 703 245 705 245 706 c 4
 245 737 293 753 329 753 c 4
 342 753 353 751 360 747 c 4
 376 737 383 717 383 690 c 4
 383 617 333 497 302 413 c 4
 250 270 197 159 184 56 c 4
EndSplineSet
Validated: 1
EndChar

StartChar: braceright
Encoding: 125 125 392
Width: 310
Flags: W
HStem: 0 98<28.7782 99.9055> 692 71<272.103 350.5>
VStem: 106 112<188.561 313.499> 120 117<101.382 304.126> 169 116<411.867 498.014>
LayerCount: 2
Fore
SplineSet
186 371 m 1xe0
 178 382 169 402 169 428 c 0
 169 443 172 461 181 479 c 0
 245 609 270 637 306 685 c 0
 308 688 309 690 309 691 c 0
 309 692 308 692 307 692 c 0
 302 692 282 681 267 681 c 0
 261 681 255 683 252 689 c 0
 249 694 248 699 248 704 c 0
 248 717 256 729 265 736 c 0
 286 751 314 763 341 763 c 0
 360 763 379 756 393 741 c 0
 410 723 417 702 417 680 c 0
 417 632 385 579 349 544 c 0
 315 511 293 494 288 470 c 0
 286 461 285 454 285 448 c 0xc8
 285 425 301 421 334 385 c 1
 339 374 342 367 342 362 c 0
 342 355 337 352 322 346 c 0
 248 320 256 343 223 294 c 0
 219 289 218 284 218 280 c 0xe0
 218 267 230 254 235 221 c 0
 237 210 237 200 237 188 c 0
 237 141 221 89 167 46 c 0
 141 26 105 0 68 0 c 0
 56 0 44 3 32 10 c 0
 19 17 14 29 14 40 c 0
 14 53 20 66 27 74 c 0
 46 95 64 98 78 98 c 0
 83 98 87 97 91 97 c 0
 95 97 98 98 100 100 c 0
 116 118 120 131 120 145 c 0xd0
 120 169 106 193 106 243 c 0
 106 247 106 252 106 257 c 0
 109 308 158 350 186 371 c 1xe0
EndSplineSet
Validated: 1
EndChar

StartChar: asciitilde
Encoding: 126 126 393
Width: 376
VWidth: 1000
Flags: W
HStem: 269 115<261.991 320.746> 319 110<174.244 225.305>
LayerCount: 2
Fore
SplineSet
195 319 m 0x40
 192 319 172 282 135 282 c 0
 131 282 128 282 125 283 c 0
 95 288 69 312 69 345 c 0
 69 346 69 346 69 347 c 0
 70 385 105 398 117 405 c 0
 140 419 163 429 193 429 c 0
 196 429 198 429 201 429 c 0x40
 239 427 255 407 272 400 c 0
 300 389 301 384 306 384 c 0
 308 385 321 425 366 425 c 0
 393 424 430 408 433 370 c 0
 433 369 433 368 433 367 c 0
 433 334 398 323 397 322 c 0
 373 303 351 271 302 269 c 0
 300 269 297 269 295 269 c 0x80
 232 269 216 319 195 319 c 0x40
EndSplineSet
Validated: 1
EndChar

